<svg width="1440" height="1008" viewBox="0 0 1440 1008" fill="none" xmlns="http://www.w3.org/2000/svg">
<rect width="1440" height="1008" fill="white"/>
<rect width="1440" height="1008" fill="url(#paint0_linear_265_1845)" fill-opacity="0.15"/>
<mask id="mask0_265_1845" style="mask-type:luminance" maskUnits="userSpaceOnUse" x="0" y="0" width="1440" height="1008">
<rect width="1440" height="1008" fill="white"/>
<rect width="1440" height="1008" stroke="white"/>
</mask>
<g mask="url(#mask0_265_1845)">
<path d="M1009.2 15.5C1009.2 -258.583 1234.52 -480.8 1512.5 -480.8C1790.48 -480.8 2015.8 -258.583 2015.8 15.5C2015.8 289.583 1790.48 511.8 1512.5 511.8C1480.89 511.8 1454.57 505.214 1431.7 492.725C1408.83 480.232 1389.35 461.797 1371.5 438.006C1337.3 392.436 1309.18 327.413 1274.53 247.3C1272.96 243.676 1271.38 240.022 1269.79 236.337C1255.87 204.181 1232.46 183.588 1205.28 168.452C1182.51 155.772 1157.02 146.887 1132.23 138.246C1127.48 136.589 1122.75 134.941 1118.07 133.276C1088.92 122.906 1061.71 111.916 1041.77 94.2889C1021.91 76.7287 1009.2 52.5182 1009.2 15.5Z" stroke="#5D72E4" stroke-width="2.4"/>
<path d="M1440.5 -415C1208.26 -415 1020 -229.422 1020 -0.5C1020 123.961 1149.17 107.912 1237.28 183.891C1311.23 247.66 1334.53 414 1440.5 414C1672.74 414 1861 228.422 1861 -0.5C1861 -229.422 1672.74 -415 1440.5 -415Z" fill="#F6DDD3"/>
</g>
<defs>
<linearGradient id="paint0_linear_265_1845" x1="0" y1="0" x2="0" y2="1008" gradientUnits="userSpaceOnUse">
<stop stop-color="#FA7E4A"/>
<stop offset="1" stop-color="#6A7BE3"/>
</linearGradient>
</defs>
</svg>
