<svg width="80" height="80" viewBox="0 0 80 80" fill="none" xmlns="http://www.w3.org/2000/svg">
<path d="M40 80C62.0914 80 80 62.0914 80 40C80 17.9086 62.0914 0 40 0C17.9086 0 0 17.9086 0 40C0 62.0914 17.9086 80 40 80Z" fill="#F87853"/>
<path d="M40 80C62.0914 80 80 62.0914 80 40C80 17.9086 62.0914 0 40 0C17.9086 0 0 17.9086 0 40C0 62.0914 17.9086 80 40 80Z" fill="url(#paint0_linear_562_15145)" fill-opacity="0.5"/>
<path fill-rule="evenodd" clip-rule="evenodd" d="M49.5 25H51.5C52.8807 25 54 26.1193 54 27.5V43.4995C52.7465 42.5579 51.1884 42 49.5 42C46.8582 42 44.5354 43.3659 43.1994 45.43C42.2225 44.5415 40.9245 44 39.5 44C38.0755 44 36.7775 44.5415 35.8007 45.43C34.4646 43.3659 32.1418 42 29.5 42C27.8116 42 26.2535 42.5579 25 43.4995V27.5C25 26.1193 26.1193 25 27.5 25H29.5C30.3284 25 31 24.3284 31 23.5C31 22.6716 30.3284 22 29.5 22H27.5C24.4624 22 22 24.4624 22 27.5V49.3117C22 49.3312 22.0004 49.3506 22.0011 49.3699C22.0004 49.4132 22 49.4565 22 49.5C22 53.6421 25.3579 57 29.5 57C33.6421 57 37 53.6421 37 49.5C37 48.1193 38.1193 47 39.5 47C40.8807 47 42 48.1193 42 49.5C42 53.6421 45.3579 57 49.5 57C53.6421 57 57 53.6421 57 49.5C57 49.4565 56.9996 49.4132 56.9989 49.3699C56.9996 49.3506 57 49.3312 57 49.3117V27.5C57 24.4624 54.5376 22 51.5 22H49.5C48.6716 22 48 22.6716 48 23.5C48 24.3284 48.6716 25 49.5 25ZM45 49.5C45 51.9853 47.0147 54 49.5 54C51.9853 54 54 51.9853 54 49.5C54 47.0147 51.9853 45 49.5 45C47.0147 45 45 47.0147 45 49.5ZM25 49.5C25 51.9853 27.0147 54 29.5 54C31.9853 54 34 51.9853 34 49.5C34 47.0147 31.9853 45 29.5 45C27.0147 45 25 47.0147 25 49.5Z" fill="white"/>
<defs>
<linearGradient id="paint0_linear_562_15145" x1="0" y1="0" x2="0" y2="80" gradientUnits="userSpaceOnUse">
<stop stop-color="#1F2C5F"/>
<stop offset="1" stop-color="#F9764A"/>
</linearGradient>
</defs>
</svg>
