<svg width="80" height="80" viewBox="0 0 80 80" fill="none" xmlns="http://www.w3.org/2000/svg">
<path d="M40 80C62.0914 80 80 62.0914 80 40C80 17.9086 62.0914 0 40 0C17.9086 0 0 17.9086 0 40C0 62.0914 17.9086 80 40 80Z" fill="#F87853"/>
<path d="M40 80C62.0914 80 80 62.0914 80 40C80 17.9086 62.0914 0 40 0C17.9086 0 0 17.9086 0 40C0 62.0914 17.9086 80 40 80Z" fill="url(#paint0_linear_562_15148)"/>
<path fill-rule="evenodd" clip-rule="evenodd" d="M40.6759 59C51.3484 59 60.0001 50.2696 60.0001 39.5C60.0001 28.7304 51.3484 20 40.6759 20C30.0035 20 21.3518 28.7304 21.3518 39.5C21.3518 44.2132 23.0201 48.6538 25.9485 52.1269L21.4551 52.1472C20.6304 52.1509 19.9588 52.8225 19.9551 53.6472C19.9514 54.4719 20.6169 55.1374 21.4416 55.1337L29.8886 55.0954C30.7133 55.0917 31.3849 54.4201 31.3886 53.5954L31.4268 45.1484C31.4306 44.3237 30.7651 43.6582 29.9404 43.6619C29.1157 43.6657 28.4441 44.3372 28.4404 45.1619L28.4166 50.4199C25.8122 47.4473 24.3247 43.5972 24.3247 39.5C24.3247 30.3873 31.6454 23 40.6759 23C49.7065 23 57.0272 30.3873 57.0272 39.5C57.0272 48.6127 49.7065 56 40.6759 56C39.855 56 39.1895 56.6716 39.1895 57.5C39.1895 58.3284 39.855 59 40.6759 59ZM40.6759 29.6014C41.4969 29.6014 42.1624 30.273 42.1624 31.1014V40.8787L46.99 45.7502C47.5705 46.336 47.5705 47.2857 46.99 47.8715C46.4095 48.4573 45.4683 48.4573 44.8878 47.8715L39.6248 42.5607C39.3461 42.2794 39.1895 41.8978 39.1895 41.5V31.1014C39.1895 30.273 39.855 29.6014 40.6759 29.6014Z" fill="white"/>
<defs>
<linearGradient id="paint0_linear_562_15148" x1="80" y1="0" x2="0" y2="0" gradientUnits="userSpaceOnUse">
<stop stop-color="#5D72E4"/>
<stop offset="1" stop-color="#FF9F81"/>
</linearGradient>
</defs>
</svg>
