<svg width="80" height="80" viewBox="0 0 80 80" fill="none" xmlns="http://www.w3.org/2000/svg">
<path d="M40 80C62.0914 80 80 62.0914 80 40C80 17.9086 62.0914 0 40 0C17.9086 0 0 17.9086 0 40C0 62.0914 17.9086 80 40 80Z" fill="#F87853"/>
<path d="M40 80C62.0914 80 80 62.0914 80 40C80 17.9086 62.0914 0 40 0C17.9086 0 0 17.9086 0 40C0 62.0914 17.9086 80 40 80Z" fill="url(#paint0_linear_562_15149)"/>
<path fill-rule="evenodd" clip-rule="evenodd" d="M27.2806 57.2513C27.0706 58.471 28.3554 59.401 29.4546 58.8252L40.5 53.0391L51.5454 58.8252C52.6446 59.401 53.9294 58.471 53.7194 57.2513L51.6099 44.9961L60.5459 36.3169C61.4352 35.4532 60.9445 33.9483 59.7155 33.7704L47.3663 31.9824L41.8436 20.8322C41.294 19.7226 39.706 19.7226 39.1564 20.8322L33.6337 31.9824L21.2845 33.7704C20.0555 33.9483 19.5648 35.4532 20.4541 36.3169L29.3901 44.9961L27.2806 57.2513ZM29.3901 44.9961L29.5232 44.2225L29.9541 45.544L29.3901 44.9961ZM33.6337 31.9824L34.4132 31.8695L33.2851 32.6862L33.6337 31.9824ZM41.1972 50.0309C40.7607 49.8022 40.2393 49.8022 39.8028 50.0309L30.7473 54.7745L32.4768 44.7273C32.5601 44.243 32.399 43.7488 32.0458 43.4058L24.7198 36.2903L34.8441 34.8244C35.3322 34.7538 35.754 34.4483 35.9723 34.0077L40.5 24.8664L45.0277 34.0077C45.246 34.4483 45.6679 34.7538 46.1559 34.8244L56.2802 36.2903L48.9542 43.4058C48.601 43.7488 48.4399 44.243 48.5232 44.7273L50.2527 54.7745L41.1972 50.0309Z" fill="white"/>
<defs>
<linearGradient id="paint0_linear_562_15149" x1="80" y1="0" x2="0" y2="0" gradientUnits="userSpaceOnUse">
<stop stop-color="#FBD4C9"/>
<stop offset="1" stop-color="#6A7BE2"/>
</linearGradient>
</defs>
</svg>
