<svg width="250" height="250" viewBox="0 0 250 250" fill="none" xmlns="http://www.w3.org/2000/svg">
<g filter="url(#filter0_d_574_15151)">
<rect x="40" y="20" width="170" height="170" rx="15" fill="#212B60"/>
</g>
<path fill-rule="evenodd" clip-rule="evenodd" d="M145.918 76.5266L138.32 89.2623C137.188 88.4036 135.96 87.6705 134.658 87.0829L142.232 74.3831C140.716 72.8552 139.778 70.7614 139.778 68.4446C139.778 63.7771 143.57 60 148.256 60C152.95 60 156.744 63.7791 156.744 68.4446C156.744 73.1121 152.95 76.8932 148.256 76.8932C147.442 76.8932 146.666 76.7398 145.918 76.5266ZM108.416 84.5529L114.134 89.9356C113.046 90.854 112.072 91.8958 111.208 93.0333L105.498 87.6566C104.194 88.4694 102.666 88.9594 101.014 88.9594C96.328 88.9594 92.528 85.1784 92.528 80.5109C92.528 75.8433 96.328 72.0663 101.014 72.0663C105.7 72.0663 109.494 75.8453 109.494 80.5109C109.494 81.983 109.082 83.3476 108.416 84.5529ZM164.524 99.9241C160.876 99.9241 157.786 102.233 156.588 105.452L146.032 104.414C146.032 104.454 146.035 104.493 146.038 104.532V104.532V104.532V104.532C146.041 104.571 146.044 104.609 146.044 104.647C146.044 106.018 145.892 107.357 145.618 108.65L156.17 109.687C156.808 113.72 160.294 116.811 164.524 116.811C169.208 116.811 173 113.034 173 108.369C173 103.705 169.208 99.9241 164.524 99.9241ZM133.034 122.865L135.394 133.137C139.958 133.272 143.622 136.98 143.616 141.559C143.616 146.223 139.824 150 135.14 150C130.446 150 126.654 146.225 126.654 141.559C126.654 138.3 128.524 135.509 131.234 134.097L128.87 123.824C130.316 123.658 131.702 123.328 133.034 122.865ZM107.714 108.725L94.574 113.11C93.058 110.803 90.448 109.273 87.478 109.273C82.792 109.273 79 113.052 79 117.718C79 122.389 82.792 126.168 87.478 126.168C92.16 126.168 95.962 122.389 95.962 117.718C95.962 117.598 95.9461 117.484 95.9301 117.369C95.9202 117.297 95.9102 117.226 95.904 117.152L109.086 112.755C108.492 111.478 108.02 110.134 107.714 108.725ZM141.202 104.647C141.202 112.647 134.691 119.132 126.66 119.132C118.629 119.132 112.118 112.647 112.118 104.647C112.118 96.6477 118.629 90.1627 126.66 90.1627C134.691 90.1627 141.202 96.6477 141.202 104.647Z" fill="#FBD3C9"/>
<defs>
<filter id="filter0_d_574_15151" x="0" y="0" width="250" height="250" filterUnits="userSpaceOnUse" color-interpolation-filters="sRGB">
<feFlood flood-opacity="0" result="BackgroundImageFix"/>
<feColorMatrix in="SourceAlpha" type="matrix" values="0 0 0 0 0 0 0 0 0 0 0 0 0 0 0 0 0 0 127 0" result="hardAlpha"/>
<feOffset dy="20"/>
<feGaussianBlur stdDeviation="20"/>
<feColorMatrix type="matrix" values="0 0 0 0 0 0 0 0 0 0 0 0 0 0 0.262745 0 0 0 0.1 0"/>
<feBlend mode="normal" in2="BackgroundImageFix" result="effect1_dropShadow_574_15151"/>
<feBlend mode="normal" in="SourceGraphic" in2="effect1_dropShadow_574_15151" result="shape"/>
</filter>
</defs>
</svg>
