<svg width="64" height="64" viewBox="0 0 64 64" fill="none" xmlns="http://www.w3.org/2000/svg">
<g filter="url(#filter0_d_265_2004)">
<rect x="8" y="4" width="48" height="48" rx="7" fill="white"/>
</g>
<path d="M40 23.54C39.412 23.8013 38.7787 23.9773 38.1147 24.0573C38.7933 23.6507 39.312 23.008 39.5587 22.2413C38.924 22.6173 38.2213 22.8907 37.4733 23.0373C36.876 22.3987 36.0213 22 35.0787 22C32.9587 22 31.4013 23.9773 31.88 26.0307C29.1533 25.8933 26.7333 24.5867 25.1147 22.6013C24.2547 24.076 24.6693 26.0067 26.1307 26.984C25.5933 26.9667 25.088 26.8187 24.6453 26.5733C24.6093 28.0933 25.7 29.516 27.2787 29.8333C26.8173 29.9587 26.3107 29.988 25.796 29.8893C26.2133 31.1933 27.428 32.1413 28.8627 32.168C27.48 33.2507 25.7427 33.7347 24 33.5293C25.4533 34.4613 27.1773 35.004 29.0307 35.004C35.1267 35.004 38.5693 29.856 38.3613 25.2387C39.004 24.7773 39.56 24.1987 40 23.54Z" fill="#2F3A62"/>
<defs>
<filter id="filter0_d_265_2004" x="0" y="0" width="64" height="64" filterUnits="userSpaceOnUse" color-interpolation-filters="sRGB">
<feFlood flood-opacity="0" result="BackgroundImageFix"/>
<feColorMatrix in="SourceAlpha" type="matrix" values="0 0 0 0 0 0 0 0 0 0 0 0 0 0 0 0 0 0 127 0" result="hardAlpha"/>
<feOffset dy="4"/>
<feGaussianBlur stdDeviation="4"/>
<feColorMatrix type="matrix" values="0 0 0 0 0 0 0 0 0 0.0342233 0 0 0 0 0.241576 0 0 0 0.104874 0"/>
<feBlend mode="normal" in2="BackgroundImageFix" result="effect1_dropShadow_265_2004"/>
<feBlend mode="normal" in="SourceGraphic" in2="effect1_dropShadow_265_2004" result="shape"/>
</filter>
</defs>
</svg>
