<svg width="56" height="56" viewBox="0 0 56 56" fill="none" xmlns="http://www.w3.org/2000/svg">
<rect width="56" height="56" rx="8" fill="#FFFAEA"/>
<path fill-rule="evenodd" clip-rule="evenodd" d="M25 22.4249H31C32.2866 22.4249 33.3333 21.3652 33.3333 20.0625V19.7251H40.3333C41.252 19.7251 42 20.4822 42 21.4124V38.2874C42 39.2176 41.252 39.975 40.3333 39.975H15.6667C14.748 39.975 14 39.2176 14 38.2874V21.4124C14 20.4822 14.748 19.7251 15.6667 19.7251H22.6667V20.0625C22.6667 21.3652 23.7134 22.4249 25 22.4249ZM31.3333 20.0625V18.7126V17.3624C31.3333 17.1763 31.1841 17.025 31 17.025H25C24.8159 17.025 24.6667 17.1763 24.6667 17.3624V18.7126V20.0625C24.6667 20.2489 24.8159 20.3999 25 20.3999H31C31.1841 20.3999 31.3333 20.2489 31.3333 20.0625ZM22.6667 17.3624V17.7001H15.6667C13.644 17.7001 12 19.3644 12 21.4124V38.2874C12 40.3354 13.644 42 15.6667 42H40.3333C42.356 42 44 40.3354 44 38.2874V21.4124C44 19.3644 42.356 17.7001 40.3333 17.7001H33.3333V17.3624C33.3333 16.0597 32.2866 15 31 15H25C23.7134 15 22.6667 16.0597 22.6667 17.3624ZM22 31.2C20.1626 31.2 18.6667 29.6852 18.6667 27.825C18.6667 25.9647 20.1626 24.4499 22 24.4499C23.8374 24.4499 25.3333 25.9647 25.3333 27.825C25.3333 29.6852 23.8374 31.2 22 31.2ZM22 26.4749C21.2654 26.4749 20.6667 27.081 20.6667 27.825C20.6667 28.5688 21.2654 29.175 22 29.175C22.7346 29.175 23.3333 28.5688 23.3333 27.825C23.3333 27.081 22.7346 26.4749 22 26.4749ZM27 37.95C26.448 37.95 26 37.4964 26 36.9375V36.2624C26 35.3323 25.252 34.5749 24.3333 34.5749H19.6667C18.748 34.5749 18 35.3323 18 36.2624V36.9375C18 37.4964 17.552 37.95 17 37.95C16.448 37.95 16 37.4964 16 36.9375V36.2624C16 34.2145 17.644 32.5499 19.6667 32.5499H24.3333C26.356 32.5499 28 34.2145 28 36.2624V36.9375C28 37.4964 27.552 37.95 27 37.95ZM31.6667 27.15H39C39.552 27.15 40 26.6964 40 26.1375C40 25.5786 39.552 25.125 39 25.125H31.6667C31.1147 25.125 30.6667 25.5786 30.6667 26.1375C30.6667 26.6964 31.1147 27.15 31.6667 27.15ZM39 32.5499H31.6667C31.1147 32.5499 30.6667 32.0963 30.6667 31.5374C30.6667 30.9785 31.1147 30.5249 31.6667 30.5249H39C39.552 30.5249 40 30.9785 40 31.5374C40 32.0963 39.552 32.5499 39 32.5499ZM31.6667 37.95H39C39.552 37.95 40 37.4964 40 36.9375C40 36.3786 39.552 35.925 39 35.925H31.6667C31.1147 35.925 30.6667 36.3786 30.6667 36.9375C30.6667 37.4964 31.1147 37.95 31.6667 37.95Z" fill="#333333"/>
</svg>
