<svg width="48" height="48" viewBox="0 0 48 48" fill="none" xmlns="http://www.w3.org/2000/svg">
<rect width="48" height="48" rx="24" fill="#F07566"/>
<path fill-rule="evenodd" clip-rule="evenodd" d="M16.3258 23.2196L25.4156 14.3195C25.6258 14.1135 25.9065 14 26.2057 14C26.5049 14 26.7856 14.1135 26.9958 14.3195L27.6652 14.9748C28.1008 15.4018 28.1008 16.0958 27.6652 16.5221L20.0323 23.9959L27.6737 31.4779C27.8839 31.6839 28 31.9586 28 32.2514C28 32.5446 27.8839 32.8192 27.6737 33.0254L27.0043 33.6805C26.7939 33.8865 26.5134 34 26.2142 34C25.9149 34 25.6343 33.8865 25.424 33.6805L16.3258 24.7723C16.1151 24.5656 15.9993 24.2897 16 23.9963C15.9993 23.7019 16.1151 23.4261 16.3258 23.2196Z" fill="white"/>
</svg>
