<svg width="1170" height="288" viewBox="0 0 1170 288" fill="none" xmlns="http://www.w3.org/2000/svg">
<rect width="1170" height="288" rx="8" fill="#F18990"/>
<mask id="mask0_308_14502" style="mask-type:luminance" maskUnits="userSpaceOnUse" x="0" y="0" width="1170" height="288">
<rect width="1170" height="288" rx="8" fill="white"/>
</mask>
<g mask="url(#mask0_308_14502)">
<path d="M1030.5 634C1193.7 634 1326 501.7 1326 338.5C1326 175.3 1193.7 43 1030.5 43C867.3 43 735 175.3 735 338.5C735 501.7 867.3 634 1030.5 634Z" fill="#FF9AA1"/>
</g>
<path d="M692 239C699.18 239 705 233.18 705 226C705 218.82 699.18 213 692 213C684.82 213 679 218.82 679 226C679 233.18 684.82 239 692 239Z" fill="#FFB4B9"/>
<rect x="864.234" y="213" width="15" height="15" transform="rotate(38 864.234 213)" fill="#959DD2"/>
<path d="M736.435 63.7531L735.094 80.9418L721.001 71.4356L736.435 63.7531Z" fill="#5864BA"/>
<path d="M1096 252C1103.18 252 1109 246.18 1109 239C1109 231.82 1103.18 226 1096 226C1088.82 226 1083 231.82 1083 239C1083 246.18 1088.82 252 1096 252Z" fill="#959DD2"/>
<rect x="896.234" y="35" width="15" height="15" transform="rotate(38 896.234 35)" fill="#5864BA"/>
<path d="M1124.44 118.753L1123.09 135.942L1109 126.436L1124.44 118.753Z" fill="#F18990"/>
<path fill-rule="evenodd" clip-rule="evenodd" d="M841.255 119.627L807.314 85.6864C801.065 79.4379 790.935 79.4379 784.686 85.6864C778.438 91.9349 778.438 102.065 784.686 108.314L818.627 142.255C824.876 148.503 835.006 148.503 841.255 142.255C847.503 136.006 847.503 125.876 841.255 119.627V119.627Z" fill="white"/>
<path fill-rule="evenodd" clip-rule="evenodd" d="M784.686 108.314L801.657 125.284L824.284 102.657L807.314 85.6864C801.065 79.4379 790.935 79.4379 784.686 85.6864C778.438 91.9349 778.438 102.065 784.686 108.314Z" fill="#FFC2C7"/>
<path fill-rule="evenodd" clip-rule="evenodd" d="M1066.25 69.514C1079.64 69.514 1090.5 58.6581 1090.5 45.2666C1090.5 31.8751 1079.64 21.0192 1066.25 21.0192C1052.86 21.0192 1042 31.8751 1042 45.2666C1042 58.6581 1052.86 69.514 1066.25 69.514Z" fill="#A8B0E4"/>
<path fill-rule="evenodd" clip-rule="evenodd" d="M1086.23 31.5395L1052.52 65.2455C1063.55 72.8324 1078.64 70.0424 1086.23 59.0139C1091.92 50.74 1091.92 39.813 1086.23 31.5395Z" fill="#959DD2"/>
<path fill-rule="evenodd" clip-rule="evenodd" d="M1080.54 25.7985L1086.07 31.3299C1078.4 20.3706 1063.29 17.7094 1052.33 25.3857C1041.37 33.0621 1038.71 48.1687 1046.39 59.1275C1046.5 59.2892 1046.61 59.4493 1046.73 59.608L1080.54 25.7985Z" fill="#959DD2"/>
</svg>
