<svg width="41" height="64" viewBox="0 0 41 64" fill="none" xmlns="http://www.w3.org/2000/svg">
<path fill-rule="evenodd" clip-rule="evenodd" d="M34.1239 33.5114C37.4713 33.5114 40.3207 35.8914 40.9016 39.1468C41.5379 42.8399 39.0205 46.3415 35.2858 46.9707V52.8523C35.272 59.0075 30.2232 64 23.9988 64H23.9434C17.7328 63.9863 12.7117 58.9938 12.7256 52.8523V34.4415C5.54669 33.8671 0 27.9444 0 20.8181V3.21436V3.15965C0.0276643 2.59885 0.511789 2.16115 1.07891 2.17482H6.77775V1.09425C6.77775 0.492413 7.27571 0 7.88432 0C8.49293 0 8.99089 0.492413 8.99089 1.09425V5.36183C8.99089 5.96367 8.49293 6.45608 7.88432 6.45608C7.27571 6.45608 6.77775 5.96367 6.77775 5.36183V4.377H2.21314V20.8592C2.21314 27.1921 7.41403 32.3214 13.8183 32.3214C20.2088 32.3214 25.4511 27.1785 25.4511 20.8455V4.39068H20.4716V5.37551C20.4716 5.97735 19.9736 6.46976 19.365 6.46976C18.7564 6.46976 18.2584 5.97735 18.2584 5.37551V1.10793C18.2584 0.506091 18.7564 0.0136781 19.365 0.0136781C19.9736 0.0136781 20.4716 0.506091 20.4716 1.10793V2.1885H26.4885C27.0972 2.1885 27.6643 2.6262 27.6643 3.22804V20.8318C27.6643 27.9991 21.9931 33.8944 14.9387 34.4552V52.866C14.9249 57.8038 18.9777 61.8252 23.9711 61.8252C28.9783 61.8252 33.045 57.8175 33.0588 52.866V46.9844C29.7391 46.451 27.3046 43.6333 27.2908 40.3095C27.277 36.5617 30.3339 33.5251 34.1239 33.5114ZM30.8318 43.5375C32.6438 45.3293 35.5901 45.3293 37.4021 43.5375C38.2735 42.6758 38.7715 41.4995 38.7715 40.2821C38.7577 39.0648 38.2735 37.9021 37.4021 37.0404C35.5901 35.2486 32.6438 35.2486 30.8318 37.0404C29.0198 38.8322 29.0198 41.7457 30.8318 43.5375Z" fill="#4A56A7"/>
</svg>
