<svg width="64" height="53" viewBox="0 0 64 53" fill="none" xmlns="http://www.w3.org/2000/svg">
<path fill-rule="evenodd" clip-rule="evenodd" d="M43.6918 9.34393H62.8142C63.4911 9.37457 64.0295 9.92601 63.9987 10.6V51.7439V51.7592C64.0141 52.4332 63.4911 52.9847 62.8142 53H1.18583H1.17044C0.508929 52.9694 -0.0295117 52.4179 0.0012563 51.7439V10.6V10.5847C-0.0141277 9.92601 0.508929 9.35925 1.18583 9.34393H20.3082V1.25607C20.3235 0.566763 20.8774 0.0153179 21.5696 0H42.4304C43.1226 0.0153179 43.6765 0.566763 43.6918 1.25607V9.34393ZM41.2304 2.45087H22.7696V9.34393H41.2304V2.45087ZM11.6931 50.5491H2.4627V11.7948H11.6931V50.5491ZM14.1545 11.7948V50.5491H49.8455V11.7948H14.1545ZM61.5373 50.5491H52.3069V11.7948H61.5373V50.5491ZM33.2307 29.8699H42.4304C43.1073 29.8699 43.6611 30.4214 43.6611 31.0954C43.6611 31.7694 43.1073 32.3208 42.4304 32.3208H33.2307V41.5269C33.2307 42.2009 32.6769 42.7523 32 42.7523C31.3231 42.7523 30.7693 42.2009 30.7693 41.5269V32.3208H21.5696C20.8927 32.3208 20.3389 31.7694 20.3389 31.0954C20.3389 30.4214 20.8927 29.8699 21.5696 29.8699H30.7693V20.7405C30.7693 20.0665 31.3231 19.515 32 19.515C32.6769 19.515 33.2307 20.0665 33.2307 20.7405V29.8699Z" fill="#4A56A7"/>
</svg>
