<svg width="96" height="96" viewBox="0 0 96 96" fill="none" xmlns="http://www.w3.org/2000/svg">
<path d="M48 96C74.5097 96 96 74.5097 96 48C96 21.4903 74.5097 0 48 0C21.4903 0 0 21.4903 0 48C0 74.5097 21.4903 96 48 96Z" fill="#F5F5FA"/>
<path fill-rule="evenodd" clip-rule="evenodd" d="M55.7084 66.4436H72.7176C75.0863 66.4436 77 68.3761 77 70.7351C77 73.0941 75.0863 75 72.7176 75H25.9188C23.5501 75 21.6364 73.0941 21.6364 70.7351C21.6364 68.3761 23.5501 66.4702 25.9188 66.4702H42.928C42.928 66.2436 42.9414 66.0037 42.9682 65.7772C39.114 64.4977 35.7282 62.112 33.239 58.9134C30.7231 55.688 29.2644 51.7697 29.0637 47.6781H20.0706C19.4818 47.6781 19 47.1982 19 46.6118C19 46.0254 19.4818 45.5456 20.0706 45.5456H24.0586C23.9917 45.4123 23.9649 45.2791 23.9649 45.1324V45.1191C23.9649 44.5327 24.4467 44.0662 25.0355 44.0662H35.1661H35.1795C35.755 44.0662 36.2367 44.5327 36.2367 45.1191C36.2234 45.2657 36.1966 45.399 36.1431 45.5323H40.1311C40.7199 45.5323 41.2017 46.0121 41.2017 46.5985C41.2017 47.1849 40.7199 47.6647 40.1311 47.6647H31.1915C31.6465 55.0217 36.5445 61.379 43.557 63.7247C44.1726 62.4186 45.2298 61.3657 46.5413 60.7393C49.7264 59.2199 53.5404 60.5527 55.066 63.7114C62.4532 61.2191 67.4449 54.3286 67.4582 46.5585C67.4582 36.6426 59.4019 28.566 49.4721 28.486L44.9086 33.0308L41.4827 36.4561C41.0678 36.8692 40.3853 36.8692 39.9705 36.4561L33.9483 30.4586C33.5335 30.0454 33.5335 29.3657 33.9483 28.9525L48.9769 13.9588C49.1777 13.7722 49.4587 13.6522 49.7397 13.6522C50.0341 13.6522 50.3018 13.7589 50.5025 13.9588L50.9709 14.4252L54.0891 11.3199C54.2898 11.12 54.5708 11 54.8519 11C55.1463 11 55.4139 11.12 55.6147 11.3199L59.1611 14.8917C59.5759 15.3049 59.5759 15.9846 59.1611 16.3978L56.0429 19.4898L56.5247 19.9696C56.9395 20.3828 56.9395 21.0625 56.5247 21.4756L51.5062 26.4736C61.677 27.5531 69.6128 36.1495 69.6128 46.5585C69.6262 51.01 68.1407 55.3415 65.4107 58.8601C62.9216 62.0721 59.5358 64.4711 55.6682 65.7505C55.695 65.9771 55.7084 66.2037 55.7084 66.4436ZM56.886 15.6247L54.8519 13.5989L52.4965 15.9446L54.5307 17.9704L56.886 15.6247ZM40.7333 34.1903L36.2234 29.6989L38.1371 27.793L42.647 32.2711L40.7333 34.1903ZM39.6627 26.3003L44.1592 30.7784L54.263 20.716L53.7946 20.2362L50.275 16.7309C50.2683 16.7309 50.2617 16.7243 50.255 16.7176C50.2483 16.711 50.2416 16.7043 50.2349 16.7043C50.2266 16.7043 50.2235 16.6992 50.2191 16.6922C50.2176 16.6898 50.2161 16.6873 50.2141 16.6846C50.2124 16.6824 50.2105 16.68 50.2081 16.6776L49.7665 16.2378L39.6627 26.3003ZM72.7176 72.8409H25.9188C24.7411 72.8409 23.7776 71.8813 23.7776 70.7085C23.7776 69.5356 24.7411 68.576 25.9188 68.576H44.1057C44.6945 68.576 45.1763 68.1095 45.1763 67.5231C45.1763 67.4431 45.1629 67.3632 45.1495 67.2832C45.096 67.0167 45.0692 66.7368 45.0692 66.4702C45.0826 64.1379 46.9829 62.2453 49.3249 62.2453C51.6668 62.2586 53.5671 64.1512 53.5671 66.4836C53.5671 66.7634 53.5404 67.03 53.4868 67.2965C53.3664 67.8696 53.7411 68.4294 54.3166 68.5494L54.3466 68.5544L54.3467 68.5544C54.4141 68.5659 54.474 68.576 54.5441 68.576H72.731C73.9086 68.576 74.8722 69.5356 74.8722 70.7085C74.8722 71.8813 73.8952 72.8409 72.7176 72.8409ZM47.9331 65.6706C47.9331 64.9109 48.5487 64.2845 49.3249 64.2845C50.0877 64.2845 50.7167 64.8975 50.7167 65.6706C50.7167 66.4302 50.1011 67.0566 49.3249 67.0566C48.5621 67.0566 47.9331 66.4302 47.9331 65.6706Z" fill="#4A56A7"/>
</svg>
