<svg width="96" height="96" viewBox="0 0 96 96" fill="none" xmlns="http://www.w3.org/2000/svg">
<path d="M48 96C74.5097 96 96 74.5097 96 48C96 21.4903 74.5097 0 48 0C21.4903 0 0 21.4903 0 48C0 74.5097 21.4903 96 48 96Z" fill="#F5F5FA"/>
<path fill-rule="evenodd" clip-rule="evenodd" d="M74.1644 42.3392C76.3213 44.4232 78.2271 46.7567 79.8227 49.281C80.0591 49.6626 80.0591 50.1469 79.8227 50.5285C76.8236 55.2689 72.7904 59.2755 68.0185 62.2548C50.4377 73.2473 27.2281 67.9932 16.1773 50.5285C15.9409 50.1469 15.9409 49.6626 16.1773 49.281C23.0471 38.406 35.0729 31.8017 48 31.8164C50.2308 31.8164 52.4469 32.0218 54.6334 32.4034L62.1828 21.5137C62.4044 21.1908 62.7738 21 63.1579 21C63.542 21 63.9114 21.1908 64.133 21.5137L73.0859 34.4434C73.0914 34.4543 73.0989 34.4653 73.107 34.4769C73.1206 34.4966 73.1357 34.5185 73.145 34.5461C74.4451 36.9237 74.7996 39.7122 74.1644 42.3392ZM55.2096 35.7202C54.6039 36.8943 54.2641 38.2005 54.2198 39.536C54.1311 41.987 55.0766 44.3792 56.8199 46.1257C57.7359 47.0356 58.8292 47.74 60.0406 48.1803H60.0554C63.3352 49.3838 67.0139 48.5766 69.4811 46.1257C70.4857 45.0983 71.2244 43.8655 71.6676 42.5153C71.6676 42.486 71.6824 42.4566 71.6971 42.4273L71.6971 42.4273C71.7119 42.4126 71.7119 42.3979 71.7119 42.3832V42.3686C72.4211 40.1671 72.1994 37.7602 71.1062 35.7202L63.1579 24.2434L56.0813 34.4581L55.2096 35.7202ZM58.3712 50.0149C58.3121 55.7092 53.614 60.2735 47.8818 60.2148C42.1496 60.1561 37.5549 55.4891 37.614 49.7947C37.6731 44.1444 42.2973 39.5947 47.9852 39.5947C49.3001 39.5947 50.615 39.8442 51.8412 40.3286C51.9741 43.1317 53.1413 45.7881 55.1357 47.7694C56.0813 48.7087 57.1745 49.4718 58.3712 50.0149ZM18.5854 49.8974C28.7645 65.2634 49.1819 70.1653 65.3001 61.1394C70.1754 58.4096 74.3269 54.5498 77.4294 49.8974C76.2179 48.0629 74.8292 46.3458 73.2927 44.7754C72.7461 45.8762 72.0369 46.8741 71.1801 47.7547L71.1653 47.7694C68.4321 50.4992 64.5023 51.6439 60.7202 50.8074C60.6464 51.8494 60.4395 52.8914 60.0997 53.8894C57.8837 60.523 50.6593 64.1187 43.9815 61.9173C37.3038 59.7158 33.6842 52.5392 35.9003 45.9055C38.1163 39.2719 45.3407 35.6762 52.0185 37.8776C52.2105 36.7035 52.5946 35.5881 53.156 34.5461C53.1708 34.5461 53.1708 34.5315 53.1708 34.5315C39.6085 32.5502 26.12 38.5381 18.5854 49.8974ZM48 55.2694C50.9782 55.2694 53.3924 52.871 53.3924 49.9126C53.3924 46.9541 50.9782 44.5557 48 44.5557C45.0218 44.5557 42.6076 46.9541 42.6076 49.9126C42.6076 52.871 45.0218 55.2694 48 55.2694ZM66.2456 36.8797C66.7627 36.4834 67.5014 36.5715 67.9003 37.0851C70.0129 39.8296 69.4958 43.7334 66.7479 45.8468C66.5411 46.0083 66.2899 46.0963 66.024 46.0963C65.6547 46.0963 65.3149 45.9349 65.0785 45.6413C64.6796 45.1277 64.783 44.3939 65.3001 43.9976C67.0139 42.6768 67.3389 40.2405 66.024 38.5234C65.6251 38.0097 65.7285 37.2759 66.2456 36.8797Z" fill="#4A56A7"/>
</svg>
