<svg width="36" height="27" viewBox="0 0 36 27" fill="none" xmlns="http://www.w3.org/2000/svg">
<path fill-rule="evenodd" clip-rule="evenodd" d="M1.5 27C10.662 25.191 16.5 17.124 16.5 9.4125C16.5 3.4575 12.321 0 7.7985 0C3.876 0 0 2.6955 0 7.4685C0 11.3715 2.8575 14.604 6.594 15.192C6.2685 18.198 3.3465 22.5585 0.024 23.811L1.5 27ZM21 27C30.162 25.191 36 17.124 36 9.4125C36 3.4575 31.821 0 27.2985 0C23.376 0 19.5 2.6955 19.5 7.4685C19.5 11.3715 22.3575 14.604 26.094 15.192C25.7685 18.198 22.8465 22.5585 19.524 23.811L21 27Z" fill="#F18990"/>
</svg>
