<svg width="48" height="48" viewBox="0 0 48 48" fill="none" xmlns="http://www.w3.org/2000/svg">
<rect width="48" height="48" rx="24" fill="#F07566"/>
<path fill-rule="evenodd" clip-rule="evenodd" d="M31.6742 23.2196L22.5844 14.3195C22.3742 14.1135 22.0935 14 21.7943 14C21.4951 14 21.2144 14.1135 21.0042 14.3195L20.3348 14.9748C19.8992 15.4018 19.8992 16.0958 20.3348 16.5221L27.9677 23.9959L20.3263 31.4779C20.1161 31.6839 20 31.9586 20 32.2514C20 32.5446 20.1161 32.8192 20.3263 33.0254L20.9957 33.6805C21.2061 33.8865 21.4866 34 21.7858 34C22.0851 34 22.3657 33.8865 22.576 33.6805L31.6742 24.7723C31.8849 24.5656 32.0007 24.2897 32 23.9963C32.0007 23.7019 31.8849 23.4261 31.6742 23.2196Z" fill="white"/>
</svg>
