<svg width="64" height="54" viewBox="0 0 64 54" fill="none" xmlns="http://www.w3.org/2000/svg">
<path fill-rule="evenodd" clip-rule="evenodd" d="M63.6805 39.4961C63.283 39.0992 62.6073 39.0992 62.1966 39.4961L56.5925 45.0926L51.7304 40.2503L57.2285 34.7464C57.6392 34.3363 57.6392 33.6615 57.2285 33.2514L35.5275 11.6196C34.1364 10.2172 32.2419 9.41014 30.2546 9.41014H30.2016C28.1879 9.54245 26.3066 10.2569 24.9023 11.699L24.0411 12.5722L11.7333 0.307607C11.3226 -0.102536 10.6469 -0.102536 10.2362 0.307607C9.82552 0.717751 9.82552 1.3925 10.2362 1.80265L22.5308 14.0805L21.8816 14.7288C18.9537 17.6527 18.9537 22.4024 21.8816 25.3396L24.3988 27.8534L36.4019 39.8401L43.5163 46.9449C43.927 47.355 44.6027 47.355 45.0134 46.9449L50.2333 41.7321L55.0955 46.5877L49.4781 52.1974C49.0674 52.6075 49.0674 53.2822 49.4781 53.6924C49.8888 54.1025 50.5645 54.1025 50.9752 53.6924L63.6937 40.9912C64.1043 40.581 64.1043 39.9063 63.6805 39.4961ZM49.4781 39.4961L44.2582 44.7089L38.6409 39.0992L42.2047 35.5402C42.6154 35.1301 42.6154 34.4553 42.2047 34.0452C41.794 33.6351 41.1184 33.6351 40.7076 34.0452L37.1571 37.6042L32.6526 33.1191L39.3033 26.5436C39.7273 26.1334 39.7273 25.4719 39.3298 25.0485C38.9324 24.6251 38.2567 24.6251 37.8327 25.0221L37.8195 25.0353L31.1688 31.6108L26.6643 27.1125L30.2281 23.5535C30.6388 23.1433 30.6388 22.4686 30.2281 22.0584C29.8174 21.6483 29.1418 21.6483 28.7311 22.0584L25.1672 25.6174L23.4052 23.8445C21.2987 21.7409 21.2987 18.3275 23.4052 16.2238L26.4258 13.2073L26.4391 13.194C28.4926 11.0772 31.8709 11.0243 33.9907 13.0617L34.0569 13.1279L55.0027 33.979L49.4781 39.4961ZM13.3627 18.6847L8.58003 13.6042C8.18258 13.1808 7.50691 13.1544 7.08295 13.5645L7.04321 13.6042L2.26052 18.6847C-0.746879 21.86 -0.760127 27.0595 2.26052 30.2745C3.66486 31.8093 5.66537 32.6957 7.77187 32.6957H7.79837C9.90487 32.6957 11.9319 31.8225 13.3627 30.2745C16.4099 27.0595 16.4099 21.86 13.3627 18.6847ZM11.826 28.8192C10.7794 29.9438 9.32207 30.5788 7.7985 30.5788H7.78525C6.26168 30.5788 4.8176 29.9438 3.79747 28.8192C1.53199 26.4112 1.51874 22.5083 3.78422 20.1268L7.7985 15.8666L11.826 20.1268C14.1048 22.5215 14.1048 26.4112 11.826 28.8192Z" fill="#4A56A7"/>
</svg>
