<svg width="94" height="94" viewBox="0 0 94 94" fill="none" xmlns="http://www.w3.org/2000/svg">
<path d="M47 94C72.9574 94 94 72.9574 94 47C94 21.0426 72.9574 0 47 0C21.0426 0 0 21.0426 0 47C0 72.9574 21.0426 94 47 94Z" fill="#B2B8E6"/>
<path fill-rule="evenodd" clip-rule="evenodd" d="M45.9805 34H31.329C26.1722 34.0096 21.9903 38.1469 22 43.2367C22 48.3169 26.182 52.4734 31.329 52.4734H34.2047V58.2271C34.2047 58.5446 34.3997 58.8236 34.7019 58.9391C34.7994 58.9776 34.8968 58.9968 34.9943 58.9968C35.2088 59.0064 35.4135 58.9294 35.5597 58.7851L41.7011 52.4734H45.9805C51.1275 52.4734 55.3095 48.3072 55.3095 43.2367C55.3095 38.1661 51.1275 34 45.9805 34ZM45.9805 50.9339H41.3599C41.1552 50.9243 40.9505 51.0013 40.7945 51.1456L35.7644 56.3124V51.6555C35.7644 51.2322 35.433 50.9339 34.9943 50.9339H31.329C27.0496 50.9339 23.5597 47.4702 23.5597 43.2463C23.5597 39.0032 27.0301 35.5587 31.329 35.5394H45.9805C50.26 35.5394 53.7498 39.0128 53.7498 43.2367C53.7498 47.4606 50.2697 50.9339 45.9805 50.9339ZM57.1617 39.0032H60.671C65.818 39.0032 69.9903 43.1212 70 48.2014C70 53.272 65.818 57.3804 60.671 57.3804H57.7953V63.2399C57.7953 63.5574 57.5906 63.8364 57.2981 63.9519C57.2104 63.9808 57.1032 64 57.0057 64C56.7912 63.9904 56.5865 63.9038 56.4403 63.7498L50.299 57.39H46.0098C44.2063 57.3996 42.4322 56.8897 40.9115 55.9083L40.9017 55.8987C40.5508 55.6677 40.4533 55.2059 40.6873 54.8595C40.9212 54.5035 41.4086 54.3977 41.7693 54.6286C43.0366 55.4368 44.5085 55.8602 46.0195 55.8505H50.6401C50.8546 55.8602 51.0593 55.9564 51.2055 56.1103L56.2356 61.3156V56.6588C56.2356 56.2354 56.5768 55.8409 57.0057 55.8409H60.671C64.9505 55.8409 68.4208 52.4157 68.4208 48.1918C68.4208 43.9679 64.9505 40.5427 60.671 40.5427H57.1617C56.7327 40.5427 56.3818 40.1963 56.3818 39.7729C56.3818 39.3496 56.7327 39.0032 57.1617 39.0032ZM38.6109 46.2482C38.6109 46.2579 38.6011 46.2579 38.5914 46.2579C38.3477 46.2482 38.104 46.3445 37.9285 46.508C37.7531 46.6716 37.6556 46.9025 37.6556 47.143C37.6458 47.3932 37.7433 47.6434 37.9383 47.8069C38.1137 47.9609 38.3477 48.0475 38.5817 48.0378C38.8156 48.0378 39.0398 47.9513 39.2055 47.7973C39.3907 47.6241 39.4882 47.3836 39.4785 47.1334C39.4882 46.6523 39.0983 46.2579 38.6109 46.2482ZM40.2876 39.2919C40.7068 39.4843 41.0674 39.7826 41.3209 40.1578C41.5646 40.5138 41.6913 40.9371 41.6913 41.3605C41.7011 41.6684 41.6328 41.9763 41.4866 42.2553C41.3599 42.4958 41.1844 42.7267 40.9895 42.9192C40.7945 43.1116 40.4533 43.4195 39.9561 43.8621C39.8392 43.9679 39.7319 44.0738 39.6247 44.1892C39.5467 44.2662 39.4882 44.3528 39.4395 44.449C39.4005 44.526 39.3615 44.603 39.342 44.6799C39.3327 44.7166 39.3212 44.7665 39.3064 44.8305C39.2902 44.9007 39.27 44.988 39.2445 45.0936C39.1665 45.5074 38.9326 45.7094 38.5232 45.7094C38.3185 45.7094 38.1332 45.6421 37.987 45.5074C37.8408 45.3727 37.7726 45.1706 37.7726 44.9012C37.7531 44.3335 37.9578 43.7947 38.3477 43.381C38.5719 43.1501 38.8059 42.9288 39.0496 42.7171C39.3128 42.4958 39.498 42.3226 39.615 42.2072C39.7319 42.1013 39.8294 41.9666 39.9074 41.8319C39.9854 41.6972 40.0244 41.5433 40.0244 41.3797C40.0244 41.0718 39.8977 40.7736 39.6637 40.5715C39.4102 40.3502 39.0691 40.2348 38.7279 40.2444C38.2795 40.2444 37.9578 40.3502 37.7433 40.5715C37.5288 40.7928 37.3534 41.1199 37.2072 41.5529C37.0707 42.0051 36.8075 42.2264 36.4273 42.2264C36.2128 42.236 36.0081 42.1495 35.8522 41.9955C35.7059 41.8608 35.6182 41.6684 35.6182 41.4759C35.628 41.0622 35.7547 40.6677 35.9886 40.3214C36.2616 39.9076 36.632 39.5709 37.0707 39.3496C37.5873 39.0898 38.1527 38.9647 38.7279 38.9743C39.264 38.9647 39.8002 39.0706 40.2876 39.2919Z" fill="white"/>
</svg>
