<svg width="94" height="94" viewBox="0 0 94 94" fill="none" xmlns="http://www.w3.org/2000/svg">
<path d="M47 94C72.9574 94 94 72.9574 94 47C94 21.0426 72.9574 0 47 0C21.0426 0 0 21.0426 0 47C0 72.9574 21.0426 94 47 94Z" fill="#B2B8E6"/>
<path fill-rule="evenodd" clip-rule="evenodd" d="M56.5689 49.3491L51.9581 41.5469C51.9581 41.5469 51.9581 41.5365 51.9478 41.5365C51.6288 41.017 51.4744 40.4249 51.4744 39.6976C51.4744 37.6717 51.1965 35.6563 50.6304 33.7239C49.7453 30.763 48.2221 28.3631 46.102 26.5866C41.9852 23.1374 35.7894 22.1712 27.6793 23.7088C27.2882 23.7815 27 24.1244 27 24.5295V70.1585C27.0103 70.626 27.3808 70.9896 27.8439 71H39.443C39.9062 71 40.2767 70.626 40.287 70.1585V67.6132C40.287 66.9482 40.7398 66.3665 41.3779 66.2002C41.8085 66.0869 42.3156 66.0079 42.8529 65.9241L43.0144 65.8989L43.0185 65.8983C46.4869 65.3789 51.7112 64.5965 51.8655 54.8449L55.9514 52.1645C55.9514 52.1526 55.9514 52.1475 55.9534 52.1434C55.9543 52.1415 55.9556 52.1398 55.9575 52.1377L55.9617 52.1334L55.9617 52.1334C56.8468 51.51 57.1144 50.2633 56.5689 49.3491ZM55.0251 50.7724L50.5893 53.6917C50.3526 53.8476 50.2188 54.1073 50.2188 54.3878C50.2188 58.3357 49.4057 60.9745 47.7281 62.4602C46.3078 63.7172 44.4244 64.0081 42.7674 64.2471C42.119 64.3406 41.522 64.4341 40.956 64.5795C39.5871 64.9431 38.6403 66.1795 38.63 67.6028V69.3274H28.6467V25.2152C35.954 23.9477 41.4294 24.8308 45.0419 27.854C46.8327 29.3501 49.8277 32.8824 49.8277 39.6872C49.8277 40.7261 50.0644 41.6092 50.5378 42.3988L55.1486 50.201C55.2516 50.3984 55.2001 50.6374 55.0251 50.7724ZM41.3676 39.1366C39.7518 39.1262 38.4447 40.4352 38.4344 42.0663C38.4241 43.6974 39.7209 45.0168 41.3368 45.0272H41.3676C42.9629 45.048 44.27 43.7598 44.2803 42.1495V42.0871C44.2803 40.456 42.9835 39.1366 41.3676 39.1366ZM41.4191 43.365H41.3676C40.6678 43.365 40.1017 42.7936 40.1017 42.0871C40.1017 41.3807 40.6678 40.8093 41.3676 40.8093C42.0675 40.8093 42.6336 41.3807 42.6336 42.0871C42.6541 42.7832 42.1087 43.3546 41.4191 43.365ZM53.646 58.6162C53.646 57.0786 54.881 55.8319 56.4043 55.8319C57.9275 55.8319 59.1522 57.0786 59.1625 58.6162C59.1625 60.1538 57.9275 61.4005 56.4043 61.4005C54.881 61.4005 53.646 60.1538 53.646 58.6162ZM55.2927 58.6058C55.2927 59.2291 55.7867 59.7278 56.4043 59.7278C57.0115 59.7278 57.5158 59.2291 57.5158 58.6058C57.5158 57.9825 57.0218 57.4838 56.4043 57.4838C55.7867 57.4838 55.2927 57.9825 55.2927 58.6058ZM67.2417 55.8319C65.7185 55.8319 64.4835 57.0786 64.4835 58.6162C64.4835 60.1538 65.7185 61.4005 67.2417 61.4005C68.765 61.4005 70 60.1538 70 58.6162C70 57.0786 68.765 55.8319 67.2417 55.8319ZM67.2417 59.7278C66.6242 59.7278 66.1302 59.2291 66.1302 58.6058C66.1302 57.9825 66.6242 57.4838 67.2417 57.4838C67.8593 57.4838 68.3533 57.9825 68.3533 58.6058C68.3533 59.2291 67.8593 59.7278 67.2417 59.7278ZM58.6376 62.8965C58.6376 61.3589 59.8727 60.1122 61.3959 60.1122C62.9191 60.1122 64.1541 61.3589 64.1541 62.8965C64.1541 64.4341 62.9191 65.6808 61.3959 65.6808C59.8727 65.6808 58.6376 64.4341 58.6376 62.8965ZM60.2843 62.8861C60.2843 63.5095 60.7784 64.0081 61.3959 64.0081C62.0031 64.0081 62.5074 63.5095 62.5074 62.8861C62.5074 62.2628 62.0134 61.7641 61.3959 61.7641C60.7784 61.7641 60.2843 62.2628 60.2843 62.8861ZM67.0359 62.3874C65.5127 62.3874 64.2776 63.6341 64.2776 65.1717C64.2776 66.7093 65.5127 67.956 67.0359 67.956C68.5591 67.956 69.7942 66.7093 69.7942 65.1717C69.7839 63.6341 68.5488 62.3874 67.0359 62.3874ZM67.0359 66.2833C66.4184 66.2833 65.9244 65.7847 65.9244 65.1613C65.9244 64.538 66.4184 64.0393 67.0359 64.0393C67.6534 64.0393 68.1474 64.538 68.1474 65.1613C68.1371 65.7847 67.6431 66.2833 67.0359 66.2833ZM58.6376 54.8242C58.6376 53.2866 59.8727 52.0399 61.3959 52.0399C62.9191 52.0399 64.1541 53.2762 64.1541 54.8242C64.1541 56.3617 62.9191 57.6084 61.3959 57.6084C59.8727 57.6084 58.6376 56.3617 58.6376 54.8242ZM60.2843 54.8138C60.2843 55.4371 60.7784 55.9358 61.3959 55.9358C62.0031 55.9358 62.5074 55.4371 62.5074 54.8138C62.5074 54.1904 62.0134 53.6917 61.3959 53.6917C60.7784 53.6917 60.2843 54.1904 60.2843 54.8138ZM67.2417 48.6738C65.7185 48.6738 64.4835 49.9205 64.4835 51.4581C64.4938 52.9957 65.7288 54.232 67.2417 54.2424C68.765 54.2424 70 52.9957 70 51.4581C70 49.9205 68.765 48.6738 67.2417 48.6738ZM67.2417 52.5801C66.6242 52.5801 66.1302 52.0814 66.1302 51.4581C66.1405 50.8347 66.6345 50.3361 67.2417 50.3361C67.8593 50.3361 68.3533 50.8347 68.3533 51.4581C68.3533 52.0814 67.8593 52.5801 67.2417 52.5801Z" fill="white"/>
</svg>
