<svg width="505" height="866" viewBox="0 0 505 866" fill="none" xmlns="http://www.w3.org/2000/svg">
<path d="M468.948 451.5C468.948 565.685 430.694 659.442 363.576 724.653C296.455 789.868 200.362 826.636 84.5 826.636C-147.249 826.636 -334.8 679.596 -334.8 451.5C-334.8 223.123 -146.961 1.28594 84.5 1.28594C110.568 1.28594 132.859 13.7735 152.844 33.6907C172.843 53.6216 190.439 80.9021 207.089 110.276C215.052 124.323 222.787 138.828 230.461 153.219L231.498 155.162C239.509 170.184 247.462 185.052 255.531 199.082C271.656 227.118 288.314 251.933 306.966 268.018C329.075 287.083 350.311 300.369 369.698 311.512C374.876 314.488 379.913 317.307 384.795 320.039C398.229 327.556 410.491 334.418 421.295 342.102C435.977 352.544 447.856 364.438 456.085 381.391C464.321 398.36 468.948 420.498 468.948 451.5Z" stroke="#5D72E4" stroke-width="2.4"/>
<path d="M84.5 866C316.736 866 505 680.422 505 451.5C505 327.039 375.828 343.088 287.719 267.109C213.768 203.34 190.473 37 84.5 37C-147.736 37 -336 222.578 -336 451.5C-336 680.422 -147.736 866 84.5 866Z" fill="url(#paint0_linear_584_15157)"/>
<defs>
<linearGradient id="paint0_linear_584_15157" x1="-336" y1="37" x2="-336" y2="866" gradientUnits="userSpaceOnUse">
<stop stop-color="#FFECE5"/>
<stop offset="1" stop-color="white"/>
</linearGradient>
</defs>
</svg>
