<svg width="80" height="80" viewBox="0 0 80 80" fill="none" xmlns="http://www.w3.org/2000/svg">
<path d="M40 80C62.0914 80 80 62.0914 80 40C80 17.9086 62.0914 0 40 0C17.9086 0 0 17.9086 0 40C0 62.0914 17.9086 80 40 80Z" fill="#F87853"/>
<path d="M40 80C62.0914 80 80 62.0914 80 40C80 17.9086 62.0914 0 40 0C17.9086 0 0 17.9086 0 40C0 62.0914 17.9086 80 40 80Z" fill="url(#paint0_linear_562_15146)"/>
<path fill-rule="evenodd" clip-rule="evenodd" d="M20.3133 56.5505C19.5714 57.5153 20.2269 58.9156 21.443 58.9637C26.4753 59.1627 30.3134 58.5461 32.9703 57.0392C35.6024 58.322 38.5041 58.9999 41.5011 58.9999C52.2701 58.9999 61 50.2695 61 39.5C61 28.7304 52.2701 20 41.5011 20C30.7322 20 22.0023 28.7304 22.0023 39.5C22.0023 42.8634 22.8563 46.1049 24.4558 48.9763C23.8923 51.1509 22.5175 53.6842 20.3133 56.5505ZM33.6151 53.997C33.1145 53.724 32.5024 53.7585 32.0357 54.086C30.4275 55.2141 27.8809 55.8625 24.4046 55.9803C26.0456 53.4807 27.0875 51.1705 27.52 49.0353C27.5943 48.6687 27.5289 48.2875 27.3367 47.9666C25.8165 45.4291 25.0021 42.526 25.0021 39.5C25.0021 30.3873 32.389 23 41.5011 23C50.6133 23 58.0002 30.3873 58.0002 39.5C58.0002 48.6126 50.6133 55.9999 41.5011 55.9999C38.7055 55.9999 36.0138 55.305 33.6151 53.997ZM33.5016 45H47.5008C48.3292 45 49.0007 44.3284 49.0007 43.5C49.0007 42.6715 48.3292 42 47.5008 42H33.5016C32.6732 42 32.0017 42.6715 32.0017 43.5C32.0017 44.3284 32.6732 45 33.5016 45ZM43.501 37H33.5016C32.6732 37 32.0017 36.3284 32.0017 35.5C32.0017 34.6715 32.6732 34 33.5016 34H43.501C44.3294 34 45.0009 34.6715 45.0009 35.5C45.0009 36.3284 44.3294 37 43.501 37Z" fill="white"/>
<defs>
<linearGradient id="paint0_linear_562_15146" x1="0" y1="0" x2="0" y2="80" gradientUnits="userSpaceOnUse">
<stop stop-color="#5D72E4"/>
<stop offset="1" stop-color="#FF9F81"/>
</linearGradient>
</defs>
</svg>
