<svg width="250" height="250" viewBox="0 0 250 250" fill="none" xmlns="http://www.w3.org/2000/svg">
<g filter="url(#filter0_d_574_15153)">
<rect x="40" y="20" width="170" height="170" rx="15" fill="#FBD3C9"/>
</g>
<path fill-rule="evenodd" clip-rule="evenodd" d="M84.5 60H165.5C168.2 60 170 61.8 170 64.5V145.5C170 148.2 168.2 150 165.5 150H84.5C81.8 150 80 148.2 80 145.5V64.5C80 61.8 81.8 60 84.5 60ZM134 73.5C134 70.8 132.2 69 129.5 69C127.25 69 125 70.8 125 73.5C125 76.2 126.8 78 129.5 78C132.2 78 134 76.2 134 73.5ZM111.5 69C114.2 69 116 70.8 116 73.5C116 76.2 114.2 78 111.5 78C108.8 78 107 76.2 107 73.5C107 70.8 109.25 69 111.5 69ZM98 73.5C98 70.8 96.2 69 93.5 69C91.25 69 89 70.8 89 73.5C89 76.2 90.8 78 93.5 78C96.2 78 98 76.2 98 73.5ZM89 141V87H161V141H89ZM146.15 101.85L155.15 110.85C156.95 112.65 156.95 115.35 155.15 117.15L146.15 126.15C143.9 128.85 140.75 127.05 139.85 126.15C138.05 124.35 138.05 121.65 139.85 119.85L145.7 114L139.85 108.15C138.05 106.35 138.05 103.65 139.85 101.85C141.65 100.05 144.35 100.05 146.15 101.85ZM104.3 114L110.15 108.15C111.95 106.35 111.95 103.65 110.15 101.85C108.35 100.05 105.65 100.05 103.85 101.85L94.85 110.85C93.05 112.65 93.05 115.35 94.85 117.15L103.85 126.15C106.55 128.85 109.25 127.05 110.15 126.15C111.95 124.35 111.95 121.65 110.15 119.85L104.3 114ZM127.7 97.8L131.3 127.05C132.2 129.3 130.85 132 128.6 132.9C125.45 133.8 123.2 132 122.75 130.2L119.15 100.95C118.25 98.7 119.6 96 121.85 95.1C124.1 94.2 126.8 95.55 127.7 97.8Z" fill="#A47466"/>
<defs>
<filter id="filter0_d_574_15153" x="0" y="0" width="250" height="250" filterUnits="userSpaceOnUse" color-interpolation-filters="sRGB">
<feFlood flood-opacity="0" result="BackgroundImageFix"/>
<feColorMatrix in="SourceAlpha" type="matrix" values="0 0 0 0 0 0 0 0 0 0 0 0 0 0 0 0 0 0 127 0" result="hardAlpha"/>
<feOffset dy="20"/>
<feGaussianBlur stdDeviation="20"/>
<feColorMatrix type="matrix" values="0 0 0 0 0.237989 0 0 0 0 0.0475978 0 0 0 0 0 0 0 0 0.104506 0"/>
<feBlend mode="normal" in2="BackgroundImageFix" result="effect1_dropShadow_574_15153"/>
<feBlend mode="normal" in="SourceGraphic" in2="effect1_dropShadow_574_15153" result="shape"/>
</filter>
</defs>
</svg>
