<svg width="250" height="250" viewBox="0 0 250 250" fill="none" xmlns="http://www.w3.org/2000/svg">
<g filter="url(#filter0_d_574_15152)">
<rect x="40" y="20" width="170" height="170" rx="15" fill="#5D71E9"/>
</g>
<path fill-rule="evenodd" clip-rule="evenodd" d="M169.227 83.1555L146.844 60.7727C145.814 59.7424 144.145 59.7424 143.114 60.7727L131.221 72.6662C130.191 73.6965 130.191 75.3659 131.221 76.3963L153.604 98.7791C154.119 99.2943 154.794 99.552 155.468 99.552C156.143 99.552 156.818 99.2943 157.333 98.7791L169.227 86.8855C170.258 85.8551 170.258 84.1857 169.227 83.1555ZM149.874 102.509L127.491 80.1264C127.474 80.1095 127.46 80.0908 127.446 80.072L127.446 80.0719L127.446 80.0719C127.433 80.0541 127.419 80.0363 127.404 80.0202L102.172 92.6355C101.595 92.9242 101.142 93.416 100.902 94.0163L80 146.27L112.058 114.212C111.564 113.18 111.265 112.04 111.265 110.822C111.265 106.458 114.815 102.908 119.178 102.908C123.542 102.908 127.092 106.458 127.092 110.822C127.092 115.185 123.542 118.735 119.178 118.735C117.96 118.735 116.82 118.436 115.788 117.942L83.7301 150L135.984 129.099C136.584 128.859 137.076 128.406 137.365 127.829L149.98 102.597C149.964 102.581 149.946 102.568 149.929 102.555C149.91 102.54 149.891 102.526 149.874 102.509ZM116.54 110.822C116.54 109.367 117.723 108.184 119.178 108.184C120.634 108.184 121.816 109.367 121.816 110.822C121.816 112.277 120.633 113.46 119.178 113.46C117.723 113.46 116.54 112.277 116.54 110.822Z" fill="#212B60"/>
<defs>
<filter id="filter0_d_574_15152" x="0" y="0" width="250" height="250" filterUnits="userSpaceOnUse" color-interpolation-filters="sRGB">
<feFlood flood-opacity="0" result="BackgroundImageFix"/>
<feColorMatrix in="SourceAlpha" type="matrix" values="0 0 0 0 0 0 0 0 0 0 0 0 0 0 0 0 0 0 127 0" result="hardAlpha"/>
<feOffset dy="20"/>
<feGaussianBlur stdDeviation="20"/>
<feColorMatrix type="matrix" values="0 0 0 0 0 0 0 0 0 0 0 0 0 0 0.262745 0 0 0 0.1 0"/>
<feBlend mode="normal" in2="BackgroundImageFix" result="effect1_dropShadow_574_15152"/>
<feBlend mode="normal" in="SourceGraphic" in2="effect1_dropShadow_574_15152" result="shape"/>
</filter>
</defs>
</svg>
