<svg width="357" height="157" viewBox="0 0 357 157" fill="none" xmlns="http://www.w3.org/2000/svg">
<rect width="357" height="157" fill="#1E1E1E"/>
<rect y="-107" width="357" height="272" fill="#456CC6"/>
<path d="M216.355 300.526C286.236 293.182 336.463 236.303 379.479 206.321C422.173 176.564 510.749 168.268 506.752 130.239C502.521 89.9838 421.272 122.229 368.539 102.228C321.258 84.2956 341.333 7.85929 275.51 14.7775C207.979 21.8753 164.8 79.186 122.033 107.649C76.6225 137.871 -3.4982 125.885 0.63431 165.204C4.79579 204.797 66.2923 221.817 117.59 241.905C165.207 260.553 149.326 307.571 216.355 300.526Z" fill="#517ADA"/>
<mask id="path-3-inside-1_0_1" fill="white">
<path fill-rule="evenodd" clip-rule="evenodd" d="M154.727 193C220.249 180.069 262 122.405 262 67.2819C262 24.7147 232.114 0 199.771 0C171.719 0 144 19.2678 144 53.3859C144 81.2852 164.435 104.392 191.157 108.595C188.829 130.082 167.933 161.252 144.172 170.205L154.727 193ZM294.727 193C360.249 180.069 402 122.405 402 67.2819C402 24.7147 372.114 0 339.771 0C311.719 0 284 19.2678 284 53.3859C284 81.2852 304.435 104.392 331.157 108.595C328.829 130.082 307.933 161.252 284.172 170.205L294.727 193Z"/>
</mask>
<path d="M154.727 193L151.098 194.681L152.418 197.533L155.502 196.924L154.727 193ZM191.157 108.595L195.134 109.025L195.544 105.236L191.779 104.643L191.157 108.595ZM144.172 170.205L142.761 166.461L138.733 167.979L140.542 171.885L144.172 170.205ZM294.727 193L291.098 194.681L292.418 197.533L295.502 196.924L294.727 193ZM331.157 108.595L335.134 109.025L335.544 105.236L331.779 104.643L331.157 108.595ZM284.172 170.205L282.761 166.461L278.733 167.979L280.542 171.885L284.172 170.205ZM258 67.2819C258 120.533 217.563 176.522 153.953 189.076L155.502 196.924C222.936 183.616 266 124.277 266 67.2819H258ZM199.771 4C229.91 4 258 26.9287 258 67.2819H266C266 22.5007 234.318 -4 199.771 -4V4ZM148 53.3859C148 21.9811 173.388 4 199.771 4V-4C170.05 -4 140 16.5546 140 53.3859H148ZM191.779 104.643C166.97 100.741 148 79.2834 148 53.3859H140C140 83.2869 161.901 108.042 190.536 112.546L191.779 104.643ZM145.582 173.948C158.439 169.103 170.174 158.429 178.93 146.462C187.682 134.5 193.871 120.68 195.134 109.025L187.18 108.164C186.115 117.996 180.692 130.505 172.474 141.738C164.259 152.965 153.665 162.353 142.761 166.461L145.582 173.948ZM158.357 191.319L147.801 168.524L140.542 171.885L151.098 194.681L158.357 191.319ZM398 67.2819C398 120.533 357.563 176.522 293.953 189.076L295.502 196.924C362.936 183.616 406 124.277 406 67.2819H398ZM339.771 4C369.91 4 398 26.9287 398 67.2819H406C406 22.5007 374.318 -4 339.771 -4V4ZM288 53.3859C288 21.9811 313.388 4 339.771 4V-4C310.05 -4 280 16.5546 280 53.3859H288ZM331.779 104.643C306.97 100.741 288 79.2834 288 53.3859H280C280 83.2869 301.901 108.042 330.536 112.546L331.779 104.643ZM285.582 173.948C298.439 169.103 310.174 158.429 318.93 146.462C327.682 134.5 333.871 120.68 335.134 109.025L327.18 108.164C326.115 117.996 320.692 130.505 312.474 141.738C304.259 152.965 293.665 162.353 282.761 166.461L285.582 173.948ZM298.357 191.319L287.801 168.524L280.542 171.885L291.098 194.681L298.357 191.319Z" fill="url(#paint0_linear_0_1)" mask="url(#path-3-inside-1_0_1)"/>
<defs>
<linearGradient id="paint0_linear_0_1" x1="162.263" y1="0" x2="162.263" y2="165.676" gradientUnits="userSpaceOnUse">
<stop stop-color="#EEC151"/>
<stop offset="1" stop-color="#517ADA"/>
</linearGradient>
</defs>
</svg>
