<svg width="1170" height="464" viewBox="0 0 1170 464" fill="none" xmlns="http://www.w3.org/2000/svg">
<rect width="1170" height="464" rx="16" fill="#456CC6"/>
<mask id="mask0_135_13801" style="mask-type:luminance" maskUnits="userSpaceOnUse" x="0" y="0" width="1170" height="464">
<rect width="1170" height="464" rx="16" fill="white"/>
</mask>
<g mask="url(#mask0_135_13801)">
<path d="M-136 473C-136 473 -62.2159 479.19 22.8887 423.852C66.3008 395.623 87.2749 367.283 154.541 340.73C190.523 326.527 202.193 328.245 248.492 331.105C306.178 334.67 347.933 362.048 392.033 333.67C471.646 282.439 455.446 213.833 514.812 170.047C578.561 123.029 623.983 143.551 691.363 76.8672C716.105 52.3809 728 -3 728 -3H-136V473Z" fill="#EEC151"/>
<path d="M-138 427V431.53L-134.653 428.478L-136 427C-134.653 428.478 -134.652 428.478 -134.652 428.477L-134.651 428.476L-134.647 428.473L-134.632 428.459L-134.576 428.408C-134.527 428.363 -134.456 428.297 -134.363 428.211C-134.176 428.038 -133.902 427.782 -133.548 427.448C-132.84 426.779 -131.813 425.796 -130.528 424.533C-127.958 422.005 -124.356 418.352 -120.213 413.838C-111.935 404.819 -101.464 392.324 -92.7711 378.482C-84.1388 364.735 -80.0307 351.935 -76.5333 341.038C-75.476 337.744 -74.4745 334.623 -73.4208 331.703C-71.133 325.364 -68.6153 319.971 -64.826 315.51C-61.0648 311.082 -55.9575 307.465 -48.3257 304.847C-37.648 301.184 -25.6673 302.107 -12.5501 305.23C-3.17432 307.461 6.58359 310.76 16.7238 314.188C20.8086 315.569 24.9555 316.971 29.1645 318.333C58.2416 327.739 89.8524 335.07 120.188 317.444C160.399 294.081 172.621 264.76 184.337 231.515C185.124 229.28 185.909 227.028 186.701 224.757C197.651 193.347 209.782 158.551 245.092 121.114C280.066 84.0332 300.73 72.8092 334.03 54.7223C347.692 47.3014 363.482 38.7251 383.26 26.7336C402.335 15.1679 417.349 4.11119 427.601 -4.06029C432.728 -8.14637 436.665 -11.512 439.325 -13.8606C440.655 -15.0349 441.666 -15.955 442.346 -16.5838C442.687 -16.8982 442.945 -17.1398 443.119 -17.304C443.206 -17.3861 443.272 -17.4488 443.316 -17.4916L443.368 -17.5408L443.382 -17.554L443.386 -17.5577L443.387 -17.5589C443.387 -17.5593 443.388 -17.5596 442 -19L443.388 -17.5596L446.959 -21H442H-136H-138V-19V427Z" stroke="#FAEFE8" stroke-width="4"/>
<path d="M1304 106C1304 106 1286.18 112.695 1264.28 131.383C1241.69 150.662 1233.69 161.76 1207.89 161.76C1164.6 161.76 1148.17 125.498 1089.72 125.498C1033.21 125.498 1025.46 170.356 953.859 228.762C894.615 277.09 794.23 264.293 706.262 312.262C593.402 373.803 569 467 569 467H1304V106Z" fill="#2C3E91"/>
<path d="M1306 184.904V182.35L1303.52 182.962L1303.54 183.031C1303.52 182.962 1303.52 182.963 1303.52 182.963L1303.52 182.963L1303.5 182.966L1303.45 182.98C1303.4 182.992 1303.32 183.01 1303.22 183.034C1303.02 183.081 1302.72 183.152 1302.33 183.242C1301.54 183.421 1300.37 183.677 1298.88 183.982C1295.89 184.592 1291.61 185.395 1286.42 186.166C1276.03 187.709 1262.07 189.114 1247.7 188.589C1213.9 187.354 1180.58 184.355 1148.69 181.486C1131.06 179.899 1113.86 178.352 1097.27 177.165C1050.84 173.842 1009.16 173.343 976.631 182.987C938.412 194.316 922.826 215.866 904.646 241.002C902.896 243.422 901.123 245.874 899.303 248.354C878.639 276.504 851.609 308.836 784.953 337.891C747.319 354.296 700.512 349.101 648.303 341.649C644.434 341.097 640.537 340.532 636.614 339.964C587.81 332.897 534.943 325.241 481.858 332.925C424.91 341.167 390.426 374.625 370.23 405.922C360.137 421.563 353.597 436.683 349.579 447.893C347.569 453.5 346.189 458.135 345.308 461.376C344.868 462.996 344.553 464.269 344.347 465.141C344.244 465.577 344.169 465.913 344.118 466.142C344.093 466.256 344.074 466.344 344.061 466.405L344.047 466.475L344.043 466.494L344.041 466.5C344.041 466.501 344.041 466.503 346 466.904L344.041 466.503L343.549 468.904H346H1304H1306V466.904V184.904Z" stroke="#EEC151" stroke-width="4"/>
<path d="M1306 349.532V346.717L1303.34 347.644L1303.34 347.644L1303.34 347.645L1303.32 347.652L1303.24 347.678C1303.17 347.701 1303.07 347.737 1302.93 347.784C1302.65 347.877 1302.24 348.015 1301.69 348.19C1300.6 348.541 1298.99 349.043 1296.93 349.642C1292.81 350.84 1286.89 352.425 1279.71 353.965C1265.36 357.049 1246.05 359.94 1226.13 359.225C1168 357.137 1118.86 348.169 1077.97 340.705C1072.92 339.784 1067.99 338.885 1063.2 338.026C1041.39 334.118 1022.08 330.998 1005.25 330.199C988.42 329.401 973.883 330.91 961.693 336.409C927.746 351.722 907.134 375.131 889.943 401.283C883.282 411.416 877.111 421.999 870.888 432.67C869.101 435.735 867.309 438.808 865.5 441.88C857.377 455.672 848.882 469.49 838.769 482.753C829.296 495.178 817.051 507.48 807.137 516.702C802.187 521.307 797.833 525.13 794.718 527.801C793.161 529.136 791.914 530.183 791.057 530.895C790.629 531.25 790.299 531.522 790.076 531.705C789.965 531.796 789.88 531.865 789.824 531.911L789.761 531.962L789.746 531.974L789.743 531.977L789.742 531.978C789.742 531.978 789.742 531.978 789.844 532.104L789.742 531.978L785.35 535.532H791H1304H1306V533.532V349.532Z" stroke="#E1715E" stroke-width="4"/>
</g>
</svg>
