<svg width="1448" height="1192" viewBox="0 0 1448 1192" fill="none" xmlns="http://www.w3.org/2000/svg">
<path d="M4 496C4 496 77.7841 502.19 162.889 446.852C206.301 418.623 227.275 390.283 294.541 363.73C330.523 349.527 342.193 351.245 388.492 354.105C446.178 357.67 487.933 385.048 532.033 356.67C611.646 305.439 595.446 236.833 654.812 193.047C718.561 146.029 763.983 166.551 831.363 99.8672C856.105 75.3809 868 20 868 20H4V496Z" fill="#2C3E91"/>
<path d="M2 450V454.53L5.34744 451.478L4 450C5.34744 451.478 5.34772 451.478 5.3481 451.477L5.34931 451.476L5.3534 451.473L5.3682 451.459L5.42391 451.408C5.47255 451.363 5.54401 451.297 5.63734 451.211C5.82399 451.038 6.09813 450.782 6.45207 450.448C7.15992 449.779 8.1871 448.796 9.47211 447.533C12.0418 445.005 15.6444 441.352 19.7873 436.838C28.0653 427.819 38.5359 415.324 47.2289 401.482C55.8612 387.735 59.9693 374.935 63.4667 364.038C64.524 360.744 65.5255 357.623 66.5792 354.703C68.867 348.364 71.3847 342.971 75.174 338.51C78.9352 334.082 84.0425 330.465 91.6743 327.847C102.352 324.184 114.333 325.107 127.45 328.23C136.826 330.461 146.584 333.76 156.724 337.188C160.809 338.569 164.956 339.971 169.164 341.333C198.242 350.739 229.852 358.07 260.188 340.444C300.399 317.081 312.621 287.76 324.337 254.515C325.124 252.28 325.909 250.028 326.701 247.757C337.651 216.347 349.782 181.551 385.092 144.114C420.066 107.033 440.73 95.8092 474.03 77.7223C487.692 70.3014 503.482 61.7251 523.26 49.7336C542.335 38.1679 557.349 27.1112 567.601 18.9397C572.728 14.8536 576.665 11.488 579.325 9.13942C580.655 7.96512 581.666 7.04502 582.346 6.41619C582.687 6.10177 582.945 5.86016 583.119 5.69599C583.206 5.61391 583.272 5.55118 583.316 5.50839L583.368 5.45924L583.382 5.44601L583.386 5.44226L583.387 5.44111C583.387 5.44073 583.388 5.44043 582 4L583.388 5.44043L586.959 2H582H4H2V4V450Z" stroke="#EEC151" stroke-width="4"/>
<path d="M1444 759C1444 759 1426.18 765.695 1404.28 784.383C1381.69 803.662 1373.69 814.76 1347.89 814.76C1304.6 814.76 1288.17 778.498 1229.72 778.498C1173.21 778.498 1165.46 823.356 1093.86 881.762C1034.62 930.09 934.23 917.293 846.262 965.262C733.402 1026.8 709 1120 709 1120H1444V759Z" fill="#FAEFE8"/>
<path d="M1446 837.904V835.35L1443.52 835.962L1443.54 836.031C1443.52 835.962 1443.52 835.963 1443.52 835.963L1443.52 835.963L1443.5 835.966L1443.45 835.98C1443.4 835.992 1443.32 836.01 1443.22 836.034C1443.02 836.081 1442.72 836.152 1442.33 836.242C1441.54 836.421 1440.37 836.677 1438.88 836.982C1435.89 837.592 1431.61 838.395 1426.42 839.166C1416.03 840.709 1402.07 842.114 1387.7 841.589C1353.9 840.354 1320.58 837.355 1288.69 834.486C1271.06 832.899 1253.86 831.352 1237.27 830.165C1190.84 826.842 1149.16 826.343 1116.63 835.987C1078.41 847.316 1062.83 868.866 1044.65 894.002C1042.9 896.422 1041.12 898.874 1039.3 901.354C1018.64 929.504 991.609 961.836 924.953 990.891C887.319 1007.3 840.512 1002.1 788.303 994.649C784.434 994.097 780.537 993.532 776.614 992.964C727.81 985.897 674.943 978.241 621.858 985.925C564.91 994.167 530.426 1027.62 510.23 1058.92C500.137 1074.56 493.597 1089.68 489.579 1100.89C487.569 1106.5 486.189 1111.13 485.308 1114.38C484.868 1116 484.553 1117.27 484.347 1118.14C484.244 1118.58 484.169 1118.91 484.118 1119.14C484.093 1119.26 484.074 1119.34 484.061 1119.4L484.047 1119.47L484.043 1119.49L484.041 1119.5C484.041 1119.5 484.041 1119.5 486 1119.9L484.041 1119.5L483.549 1121.9H486H1444H1446V1119.9V837.904Z" stroke="#EEC151" stroke-width="4"/>
<path d="M1446 1003.53V1000.72L1443.34 1001.64L1443.34 1001.64L1443.34 1001.65L1443.32 1001.65L1443.24 1001.68C1443.17 1001.7 1443.07 1001.74 1442.93 1001.78C1442.65 1001.88 1442.24 1002.01 1441.69 1002.19C1440.6 1002.54 1438.99 1003.04 1436.93 1003.64C1432.81 1004.84 1426.89 1006.42 1419.71 1007.97C1405.36 1011.05 1386.05 1013.94 1366.13 1013.23C1308 1011.14 1258.86 1002.17 1217.97 994.705C1212.92 993.784 1207.99 992.885 1203.2 992.026C1181.39 988.118 1162.08 984.998 1145.25 984.199C1128.42 983.401 1113.88 984.91 1101.69 990.409C1067.75 1005.72 1047.13 1029.13 1029.94 1055.28C1023.28 1065.42 1017.11 1076 1010.89 1086.67C1009.1 1089.74 1007.31 1092.81 1005.5 1095.88C997.377 1109.67 988.882 1123.49 978.769 1136.75C969.296 1149.18 957.051 1161.48 947.137 1170.7C942.187 1175.31 937.833 1179.13 934.718 1181.8C933.161 1183.14 931.914 1184.18 931.057 1184.89C930.629 1185.25 930.299 1185.52 930.076 1185.7C929.965 1185.8 929.88 1185.87 929.824 1185.91L929.761 1185.96L929.746 1185.97L929.743 1185.98L929.742 1185.98C929.742 1185.98 929.742 1185.98 929.844 1186.1L929.742 1185.98L925.35 1189.53H931H1444H1446V1187.53V1003.53Z" stroke="#EFA19D" stroke-width="4"/>
</svg>
