<svg width="94" height="94" viewBox="0 0 94 94" fill="none" xmlns="http://www.w3.org/2000/svg">
<path d="M47 94C72.9574 94 94 72.9574 94 47C94 21.0426 72.9574 0 47 0C21.0426 0 0 21.0426 0 47C0 72.9574 21.0426 94 47 94Z" fill="#B2B8E6"/>
<path fill-rule="evenodd" clip-rule="evenodd" d="M36.0096 26C35.5771 26 35.2232 26.3544 35.2232 26.7876V32.9213C35.2232 33.3545 35.5771 33.7089 36.0096 33.7089C36.4421 33.7089 36.7959 33.3545 36.7959 32.9213V26.7876C36.7959 26.3544 36.4421 26 36.0096 26ZM55.5708 26.7876C55.5708 26.3544 55.9247 26 56.3572 26C56.7897 26 57.1436 26.3544 57.1436 26.7876V32.9213C57.1436 33.3545 56.7897 33.7089 56.3572 33.7089C55.9247 33.7089 55.5708 33.3545 55.5708 32.9213V26.7876ZM39.7547 29.1013H52.4842C52.9168 29.1013 53.2706 29.4557 53.2706 29.8889C53.2706 30.3221 52.9168 30.6766 52.4842 30.6766H39.7547C39.3222 30.6766 38.9683 30.3221 38.9683 29.8889C38.9683 29.4557 39.3222 29.1013 39.7547 29.1013ZM30.8588 38.7498H61.4981C61.9306 38.7498 62.2845 39.1042 62.2845 39.5374C62.2845 39.9706 61.9306 40.325 61.4883 40.325H30.8588C30.4263 40.325 30.0724 39.9706 30.0724 39.5374C30.0724 39.1042 30.4263 38.7498 30.8588 38.7498ZM54.3421 44.9523H30.8588C30.4263 44.9523 30.0724 45.3068 30.0724 45.74C30.0724 46.1732 30.4263 46.5276 30.8588 46.5276H54.3421C54.7844 46.5276 55.1285 46.1732 55.1285 45.74C55.1285 45.3068 54.7746 44.9523 54.3421 44.9523ZM30.8588 51.0565H44.1289C44.5615 51.0565 44.9153 51.4109 44.9153 51.8441C44.9153 52.2773 44.5615 52.6317 44.1289 52.6317H30.8588C30.4263 52.6317 30.0724 52.2773 30.0724 51.8441C30.0724 51.4109 30.4263 51.0565 30.8588 51.0565ZM67.3665 50.2098C69.2735 51.2041 70.8168 52.7597 71.8194 54.6697C74.4833 59.809 72.4878 66.1494 67.3567 68.8175C62.2255 71.4856 55.8952 69.487 53.2313 64.3477H25.7571H25.708C25.3049 64.3379 24.9904 64.0031 25.0002 63.5995V29.8495V29.8003C25.0199 29.3967 25.3541 29.0914 25.7571 29.1013H31.8811C32.3136 29.1013 32.6674 29.4557 32.6674 29.8889C32.6674 30.3221 32.3136 30.6766 31.8811 30.6766H26.573V62.7725H52.5629C52.1992 61.719 52.0222 60.6065 52.0222 59.4939C52.0222 53.695 56.7209 49.0086 62.5008 49.0086C63.6214 48.9988 64.7321 49.1858 65.7937 49.5403V30.6766H59.4535C59.021 30.6766 58.6672 30.3221 58.6672 29.8889C58.6672 29.4557 59.021 29.1013 59.4535 29.1013H66.5998H66.6391C67.0421 29.1013 67.3763 29.4459 67.3665 29.8495V50.2098ZM53.595 59.5136C53.595 64.4462 57.5859 68.4434 62.5106 68.4434C67.4353 68.4335 71.4262 64.4363 71.4262 59.5136C71.4262 54.5811 67.4353 50.5839 62.5106 50.5839C57.5859 50.5839 53.595 54.5811 53.595 59.5136ZM63.3363 59.2281H67.2387C67.6712 59.2281 68.0251 59.5727 68.0251 60.0059C68.0251 60.4391 67.6712 60.7935 67.2387 60.7935H62.5204H62.4909C62.0683 60.7837 61.7439 60.4293 61.7635 60.0158V53.8821C61.7635 53.4489 62.1174 53.0945 62.5499 53.0945C62.9824 53.0945 63.3363 53.4489 63.3363 53.8821V59.2281Z" fill="white"/>
</svg>
