<svg width="96" height="96" viewBox="0 0 96 96" fill="none" xmlns="http://www.w3.org/2000/svg">
<path d="M48 96C74.5097 96 96 74.5097 96 48C96 21.4903 74.5097 0 48 0C21.4903 0 0 21.4903 0 48C0 74.5097 21.4903 96 48 96Z" fill="#F5F5FA"/>
<path fill-rule="evenodd" clip-rule="evenodd" d="M59.7105 17.5412H71.9211C72.5 17.5281 72.9868 17.9871 73 18.5642V76.9637C72.9868 77.5538 72.5 78.0128 71.9211 77.9997H24.0789C23.5 77.9997 23.0132 77.5407 23 76.9637V18.5642C23.0132 17.9871 23.5 17.5281 24.0789 17.5412H36.2895V15.0363C36.3026 14.4462 36.7895 13.9872 37.3684 14.0003H58.6316C59.2105 14.0003 59.6974 14.4593 59.7105 15.0363V17.5412ZM57.6053 16.0986H38.3947V21.0822H57.6053V16.0986ZM70.8947 75.9014H25.1053V19.6396H36.2895V22.092C36.3026 22.6822 36.7763 23.1674 37.3684 23.1805H58.6316C59.2237 23.1674 59.6974 22.6822 59.7105 22.092V19.6396H70.8947V75.9014ZM38.6579 28.951H31.5526C30.9737 28.951 30.5 29.4231 30.5 30.0001V37.082C30.5 37.6591 30.9737 38.1312 31.5526 38.1312H38.6579C39.2368 38.1312 39.7105 37.6591 39.7105 37.082V30.0001C39.7105 29.4231 39.2368 28.951 38.6579 28.951ZM37.6053 36.0329H32.6053V31.0493H37.6053V36.0329ZM63.9342 28.951H46.2237C45.6447 28.951 45.1711 29.4231 45.1711 30.0001C45.1711 30.5772 45.6447 31.0493 46.2237 31.0493H63.9342C64.5132 31.0493 64.9868 30.5772 64.9868 30.0001C64.9868 29.4231 64.5132 28.951 63.9342 28.951ZM46.2368 36.0329H55.0921C55.6711 36.0329 56.1447 36.505 56.1447 37.082C56.1447 37.6591 55.6711 38.1312 55.0921 38.1312H46.2368C45.6579 38.1312 45.1842 37.6591 45.1842 37.082C45.1842 36.505 45.6579 36.0329 46.2368 36.0329ZM52.8684 63.5736H47.4868L45.9079 57.2917C45.7632 56.7278 45.1974 56.3868 44.6316 56.5179C44.3026 56.5966 44.0395 56.8327 43.9079 57.1474L39.8553 67.2457L38.8158 62.59C38.7105 62.1048 38.2895 61.7507 37.7895 61.7376H31.5921C31.0132 61.7376 30.5395 62.2097 30.5395 62.7867C30.5395 63.3638 31.0132 63.8359 31.5921 63.8359H36.9474L38.5395 70.9965C38.6447 71.4424 39.0263 71.7834 39.4868 71.8227C39.5 71.8227 39.5131 71.826 39.5263 71.8293L39.5263 71.8293L39.5264 71.8293C39.5395 71.8326 39.5526 71.8358 39.5658 71.8358C40 71.8358 40.3816 71.5736 40.5395 71.1801L44.6447 60.9507L45.6316 64.8851C45.75 65.3572 46.1711 65.6851 46.6579 65.6851H52.8684C53.4474 65.6851 53.9211 65.213 53.9211 64.6359C53.9211 64.0589 53.4605 63.5736 52.8684 63.5736ZM31.6053 43.2459H63.9474C64.5263 43.2459 64.9868 43.7181 64.9868 44.2951C64.9868 44.8721 64.5132 45.3443 63.9342 45.3443H31.6053C31.0263 45.3443 30.5526 44.8721 30.5526 44.2951C30.5526 43.7181 31.0263 43.2459 31.6053 43.2459ZM63.9474 50.3278H31.6053C31.0263 50.3278 30.5526 50.8 30.5526 51.377C30.5526 51.954 31.0263 52.4262 31.6053 52.4262H63.9342C64.5132 52.4262 64.9868 51.954 64.9868 51.377C64.9868 50.8 64.5263 50.3278 63.9474 50.3278ZM55.9737 69.7375H63.9474C64.5263 69.7375 65 70.2096 65 70.7867C65 71.3637 64.5263 71.8358 63.9474 71.8358H55.9737C55.3947 71.8358 54.9211 71.3637 54.9211 70.7867C54.9211 70.2096 55.3947 69.7375 55.9737 69.7375Z" fill="#4A56A7"/>
</svg>
