<svg width="182" height="64" viewBox="0 0 182 64" fill="none" xmlns="http://www.w3.org/2000/svg">
<rect width="182" height="64" rx="8" fill="url(#paint0_linear_430_15004)"/>
<path fill-rule="evenodd" clip-rule="evenodd" d="M38.167 11C33.928 11.171 30.469 15.6186 30.952 19.2968C34.87 19.6013 38.629 15.2091 38.167 11ZM37.6555 46.9532C41.2915 46.8872 44.821 40.8315 46 37.4114C39.976 34.5958 39.1015 26.935 44.713 23.2719C42.598 20.1788 39.3025 19.7558 38.1295 19.7063C36.4156 19.533 34.7527 20.1888 33.3937 20.7248C32.5298 21.0655 31.7887 21.3578 31.2355 21.3578C30.6217 21.3578 29.862 21.0561 29.0091 20.7173C27.8921 20.2736 26.6153 19.7665 25.297 19.7903C20.962 19.8548 16 23.3844 16 30.5051C16 38.2574 21.955 47.1467 25.813 46.9982C26.8714 46.9564 27.6244 46.6356 28.4031 46.3039C29.3018 45.9211 30.2347 45.5236 31.711 45.5236C33.1205 45.5236 34.0122 45.9094 34.8693 46.2804C35.6887 46.6349 36.4767 46.9759 37.6555 46.9532Z" fill="white"/>
<path d="M68.168 33.36H60.656L58.4 39H57.224L64.424 21.216H64.52L71.72 39H70.4L68.168 33.36ZM67.736 32.256L64.448 23.88L61.088 32.256H67.736ZM80.4333 29.328C81.3133 29.328 82.1133 29.544 82.8333 29.976C83.5693 30.408 84.1453 31.008 84.5613 31.776C84.9933 32.528 85.2093 33.368 85.2093 34.296C85.2093 35.224 84.9933 36.064 84.5613 36.816C84.1293 37.568 83.5293 38.152 82.7613 38.568C82.0093 38.984 81.1773 39.192 80.2653 39.192C79.4333 39.192 78.6493 38.992 77.9133 38.592C77.1933 38.192 76.6253 37.664 76.2093 37.008V43.512H75.0813V29.544H76.0893L76.1613 31.632C76.6093 30.928 77.2093 30.368 77.9613 29.952C78.7293 29.536 79.5533 29.328 80.4333 29.328ZM80.0733 38.256C80.7933 38.256 81.4573 38.08 82.0653 37.728C82.6733 37.376 83.1533 36.896 83.5053 36.288C83.8733 35.68 84.0573 35.016 84.0573 34.296C84.0573 33.56 83.8813 32.888 83.5293 32.28C83.1933 31.672 82.7213 31.192 82.1133 30.84C81.5213 30.488 80.8653 30.312 80.1453 30.312C79.4573 30.312 78.8173 30.472 78.2253 30.792C77.6493 31.112 77.1773 31.552 76.8093 32.112C76.4573 32.656 76.2573 33.264 76.2093 33.936V34.704C76.2573 35.36 76.4573 35.96 76.8093 36.504C77.1773 37.048 77.6413 37.48 78.2013 37.8C78.7773 38.104 79.4013 38.256 80.0733 38.256ZM93.9099 29.328C94.7899 29.328 95.5899 29.544 96.3099 29.976C97.0459 30.408 97.6219 31.008 98.0379 31.776C98.4699 32.528 98.6859 33.368 98.6859 34.296C98.6859 35.224 98.4699 36.064 98.0379 36.816C97.6059 37.568 97.0059 38.152 96.2379 38.568C95.4859 38.984 94.6539 39.192 93.7419 39.192C92.9099 39.192 92.1259 38.992 91.3899 38.592C90.6699 38.192 90.1019 37.664 89.6859 37.008V43.512H88.5579V29.544H89.5659L89.6379 31.632C90.0859 30.928 90.6859 30.368 91.4379 29.952C92.2059 29.536 93.0299 29.328 93.9099 29.328ZM93.5499 38.256C94.2699 38.256 94.9339 38.08 95.5419 37.728C96.1499 37.376 96.6299 36.896 96.9819 36.288C97.3499 35.68 97.5339 35.016 97.5339 34.296C97.5339 33.56 97.3579 32.888 97.0059 32.28C96.6699 31.672 96.1979 31.192 95.5899 30.84C94.9979 30.488 94.3419 30.312 93.6219 30.312C92.9339 30.312 92.2939 30.472 91.7019 30.792C91.1259 31.112 90.6539 31.552 90.2859 32.112C89.9339 32.656 89.7339 33.264 89.6859 33.936V34.704C89.7339 35.36 89.9339 35.96 90.2859 36.504C90.6539 37.048 91.1179 37.48 91.6779 37.8C92.2539 38.104 92.8779 38.256 93.5499 38.256ZM118.49 23.88C117.914 23.608 117.274 23.376 116.57 23.184C115.866 22.992 115.178 22.896 114.506 22.896C113.386 22.896 112.49 23.176 111.818 23.736C111.146 24.28 110.81 24.984 110.81 25.848C110.81 26.456 110.986 26.976 111.338 27.408C111.706 27.824 112.17 28.176 112.73 28.464C113.29 28.736 114.01 29.04 114.89 29.376C115.85 29.728 116.642 30.088 117.266 30.456C117.906 30.824 118.442 31.328 118.874 31.968C119.306 32.592 119.522 33.4 119.522 34.392C119.522 35.336 119.298 36.176 118.85 36.912C118.402 37.632 117.77 38.192 116.954 38.592C116.154 38.992 115.234 39.192 114.194 39.192C112.386 39.192 110.594 38.608 108.818 37.44L109.37 36.48C109.962 36.928 110.69 37.32 111.554 37.656C112.418 37.992 113.258 38.16 114.074 38.16C114.794 38.16 115.474 38.024 116.114 37.752C116.77 37.464 117.298 37.04 117.698 36.48C118.114 35.904 118.322 35.216 118.322 34.416C118.322 33.664 118.13 33.032 117.746 32.52C117.378 32.008 116.906 31.6 116.33 31.296C115.77 30.976 115.058 30.656 114.194 30.336C113.234 29.984 112.442 29.648 111.818 29.328C111.194 28.992 110.666 28.552 110.234 28.008C109.818 27.464 109.61 26.784 109.61 25.968C109.61 25.168 109.81 24.464 110.21 23.856C110.626 23.232 111.194 22.752 111.914 22.416C112.65 22.064 113.466 21.88 114.362 21.864C115.13 21.864 115.922 21.968 116.738 22.176C117.57 22.384 118.306 22.648 118.946 22.968L118.49 23.88ZM125.427 25.488V29.736H128.331V30.648H125.427V39H124.275V30.648H122.283V29.736H124.275V25.488H125.427ZM130.232 34.248C130.232 33.352 130.448 32.528 130.88 31.776C131.328 31.008 131.936 30.408 132.704 29.976C133.472 29.528 134.32 29.304 135.248 29.304C136.176 29.304 137.024 29.528 137.792 29.976C138.56 30.408 139.16 31.008 139.592 31.776C140.024 32.528 140.24 33.352 140.24 34.248C140.24 35.16 140.016 35.992 139.568 36.744C139.136 37.496 138.536 38.096 137.768 38.544C137.016 38.976 136.168 39.192 135.224 39.192C134.28 39.192 133.424 38.984 132.656 38.568C131.904 38.136 131.312 37.544 130.88 36.792C130.448 36.04 130.232 35.192 130.232 34.248ZM131.36 34.272C131.36 34.992 131.528 35.656 131.864 36.264C132.216 36.872 132.688 37.352 133.28 37.704C133.872 38.056 134.52 38.232 135.224 38.232C135.928 38.232 136.576 38.056 137.168 37.704C137.76 37.352 138.224 36.872 138.56 36.264C138.912 35.656 139.088 34.992 139.088 34.272C139.088 33.552 138.912 32.888 138.56 32.28C138.224 31.656 137.76 31.168 137.168 30.816C136.576 30.464 135.928 30.288 135.224 30.288C134.504 30.288 133.848 30.48 133.256 30.864C132.664 31.232 132.2 31.72 131.864 32.328C131.528 32.936 131.36 33.584 131.36 34.272ZM144.669 31.848C145.005 31.096 145.557 30.496 146.325 30.048C147.093 29.6 147.861 29.368 148.629 29.352L148.581 30.456C147.877 30.456 147.229 30.616 146.637 30.936C146.045 31.24 145.573 31.672 145.221 32.232C144.885 32.776 144.717 33.376 144.717 34.032V39H143.589V29.616H144.573L144.669 31.848ZM155.521 38.208C156.529 38.208 157.441 37.864 158.257 37.176L158.833 37.992C158.369 38.36 157.841 38.656 157.249 38.88C156.673 39.088 156.089 39.192 155.497 39.192C154.537 39.192 153.673 38.976 152.905 38.544C152.153 38.112 151.561 37.528 151.129 36.792C150.713 36.04 150.505 35.2 150.505 34.272C150.505 33.376 150.729 32.552 151.177 31.8C151.625 31.032 152.233 30.424 153.001 29.976C153.769 29.528 154.609 29.304 155.521 29.304C156.609 29.304 157.537 29.624 158.305 30.264C159.073 30.904 159.633 31.768 159.985 32.856L151.969 35.952C152.273 36.624 152.737 37.168 153.361 37.584C154.001 38 154.721 38.208 155.521 38.208ZM155.449 30.264C154.745 30.264 154.097 30.44 153.505 30.792C152.913 31.144 152.449 31.624 152.113 32.232C151.777 32.824 151.609 33.488 151.609 34.224C151.609 34.56 151.641 34.856 151.705 35.112L158.617 32.4C158.313 31.76 157.889 31.248 157.345 30.864C156.801 30.464 156.169 30.264 155.449 30.264Z" fill="white"/>
<defs>
<linearGradient id="paint0_linear_430_15004" x1="-91" y1="32" x2="-50.9424" y2="145.914" gradientUnits="userSpaceOnUse">
<stop stop-color="#CA5EFF"/>
<stop offset="1" stop-color="#004FDE"/>
</linearGradient>
</defs>
</svg>
