<svg width="206" height="64" viewBox="0 0 206 64" fill="none" xmlns="http://www.w3.org/2000/svg">
<rect width="206" height="64" rx="8" fill="url(#paint0_linear_430_15003)"/>
<path fill-rule="evenodd" clip-rule="evenodd" d="M16.8565 49.4958L32.653 33.7445L38.221 39.2959L19.4425 49.7073C18.7285 50.1033 17.854 50.0973 17.1445 49.6908L16.8565 49.4958ZM31.06 32.156L16 47.1723V17.1397L31.06 32.156ZM40.471 25.9506L47.8285 30.029C48.5515 30.431 49 31.184 49 32C49 32.816 48.5515 33.569 47.8285 33.971L40.27 38.1604L34.2475 32.156L40.471 25.9506ZM16.69 14.6497C16.825 14.5192 16.9765 14.4052 17.1445 14.3092C17.854 13.9027 18.7285 13.8967 19.4425 14.2927L38.422 24.8151L32.653 30.5675L16.69 14.6497Z" fill="white"/>
<path d="M79.576 37.8C79 38.184 78.208 38.512 77.2 38.784C76.208 39.056 75.28 39.192 74.416 39.192C72.672 39.192 71.136 38.816 69.808 38.064C68.48 37.312 67.448 36.288 66.712 34.992C65.992 33.696 65.632 32.248 65.632 30.648C65.632 28.952 66.024 27.432 66.808 26.088C67.592 24.728 68.648 23.672 69.976 22.92C71.304 22.152 72.76 21.768 74.344 21.768C76.056 21.768 77.616 22.184 79.024 23.016L78.592 24.072C78.016 23.736 77.36 23.464 76.624 23.256C75.888 23.048 75.168 22.944 74.464 22.944C73.04 22.944 71.744 23.28 70.576 23.952C69.408 24.608 68.488 25.52 67.816 26.688C67.16 27.84 66.832 29.136 66.832 30.576C66.832 31.984 67.144 33.256 67.768 34.392C68.408 35.528 69.296 36.424 70.432 37.08C71.584 37.72 72.904 38.04 74.392 38.04C75.08 38.04 75.792 37.96 76.528 37.8C77.264 37.624 77.888 37.392 78.4 37.104V32.376H74.56V31.248H79.576V37.8ZM83.0131 34.248C83.0131 33.352 83.2291 32.528 83.6611 31.776C84.1091 31.008 84.7171 30.408 85.4851 29.976C86.2531 29.528 87.1011 29.304 88.0291 29.304C88.9571 29.304 89.8051 29.528 90.5731 29.976C91.3411 30.408 91.9411 31.008 92.3731 31.776C92.8051 32.528 93.0211 33.352 93.0211 34.248C93.0211 35.16 92.7971 35.992 92.3491 36.744C91.9171 37.496 91.3171 38.096 90.5491 38.544C89.7971 38.976 88.9491 39.192 88.0051 39.192C87.0611 39.192 86.2051 38.984 85.4371 38.568C84.6851 38.136 84.0931 37.544 83.6611 36.792C83.2291 36.04 83.0131 35.192 83.0131 34.248ZM84.1411 34.272C84.1411 34.992 84.3091 35.656 84.6451 36.264C84.9971 36.872 85.4691 37.352 86.0611 37.704C86.6531 38.056 87.3011 38.232 88.0051 38.232C88.7091 38.232 89.3571 38.056 89.9491 37.704C90.5411 37.352 91.0051 36.872 91.3411 36.264C91.6931 35.656 91.8691 34.992 91.8691 34.272C91.8691 33.552 91.6931 32.888 91.3411 32.28C91.0051 31.656 90.5411 31.168 89.9491 30.816C89.3571 30.464 88.7091 30.288 88.0051 30.288C87.2851 30.288 86.6291 30.48 86.0371 30.864C85.4451 31.232 84.9811 31.72 84.6451 32.328C84.3091 32.936 84.1411 33.584 84.1411 34.272ZM95.4584 34.248C95.4584 33.352 95.6744 32.528 96.1064 31.776C96.5544 31.008 97.1624 30.408 97.9304 29.976C98.6984 29.528 99.5464 29.304 100.474 29.304C101.402 29.304 102.25 29.528 103.018 29.976C103.786 30.408 104.386 31.008 104.818 31.776C105.25 32.528 105.466 33.352 105.466 34.248C105.466 35.16 105.242 35.992 104.794 36.744C104.362 37.496 103.762 38.096 102.994 38.544C102.242 38.976 101.394 39.192 100.45 39.192C99.5064 39.192 98.6504 38.984 97.8824 38.568C97.1304 38.136 96.5384 37.544 96.1064 36.792C95.6744 36.04 95.4584 35.192 95.4584 34.248ZM96.5864 34.272C96.5864 34.992 96.7544 35.656 97.0904 36.264C97.4424 36.872 97.9144 37.352 98.5064 37.704C99.0984 38.056 99.7464 38.232 100.45 38.232C101.154 38.232 101.802 38.056 102.394 37.704C102.986 37.352 103.45 36.872 103.786 36.264C104.138 35.656 104.314 34.992 104.314 34.272C104.314 33.552 104.138 32.888 103.786 32.28C103.45 31.656 102.986 31.168 102.394 30.816C101.802 30.464 101.154 30.288 100.45 30.288C99.7304 30.288 99.0744 30.48 98.4824 30.864C97.8904 31.232 97.4264 31.72 97.0904 32.328C96.7544 32.936 96.5864 33.584 96.5864 34.272ZM118.08 29.616V39.144C118.08 40.424 117.656 41.48 116.808 42.312C115.976 43.16 114.704 43.584 112.992 43.584C112.176 43.584 111.424 43.432 110.736 43.128C110.048 42.84 109.344 42.352 108.624 41.664L109.296 40.896C109.936 41.52 110.552 41.952 111.144 42.192C111.736 42.448 112.336 42.576 112.944 42.576C114.32 42.576 115.32 42.264 115.944 41.64C116.568 41.016 116.896 40.176 116.928 39.12L116.952 36.912C116.536 37.6 115.944 38.152 115.176 38.568C114.424 38.984 113.6 39.192 112.704 39.192C111.824 39.192 111.016 38.976 110.28 38.544C109.56 38.112 108.984 37.52 108.552 36.768C108.12 36.016 107.904 35.184 107.904 34.272C107.904 33.328 108.128 32.48 108.576 31.728C109.024 30.976 109.632 30.392 110.4 29.976C111.168 29.544 112.016 29.328 112.944 29.328C113.76 29.328 114.544 29.536 115.296 29.952C116.048 30.352 116.608 30.888 116.976 31.56L117.072 29.616H118.08ZM112.992 38.232C113.68 38.232 114.312 38.08 114.888 37.776C115.48 37.456 115.96 37.032 116.328 36.504C116.696 35.976 116.904 35.408 116.952 34.8V33.408C116.76 32.496 116.288 31.752 115.536 31.176C114.8 30.584 113.952 30.288 112.992 30.288C112.256 30.288 111.584 30.456 110.976 30.792C110.368 31.128 109.888 31.6 109.536 32.208C109.2 32.8 109.032 33.48 109.032 34.248C109.032 34.968 109.208 35.632 109.56 36.24C109.912 36.848 110.392 37.336 111 37.704C111.608 38.056 112.272 38.232 112.992 38.232ZM123.491 20.76V39H122.363V20.76H123.491ZM131.857 38.208C132.865 38.208 133.777 37.864 134.593 37.176L135.169 37.992C134.705 38.36 134.177 38.656 133.585 38.88C133.009 39.088 132.425 39.192 131.833 39.192C130.873 39.192 130.009 38.976 129.241 38.544C128.489 38.112 127.897 37.528 127.465 36.792C127.049 36.04 126.841 35.2 126.841 34.272C126.841 33.376 127.065 32.552 127.513 31.8C127.961 31.032 128.569 30.424 129.337 29.976C130.105 29.528 130.945 29.304 131.857 29.304C132.945 29.304 133.873 29.624 134.641 30.264C135.409 30.904 135.969 31.768 136.321 32.856L128.305 35.952C128.609 36.624 129.073 37.168 129.697 37.584C130.337 38 131.057 38.208 131.857 38.208ZM131.785 30.264C131.081 30.264 130.433 30.44 129.841 30.792C129.249 31.144 128.785 31.624 128.449 32.232C128.113 32.824 127.945 33.488 127.945 34.224C127.945 34.56 127.977 34.856 128.041 35.112L134.953 32.4C134.649 31.76 134.225 31.248 133.681 30.864C133.137 30.464 132.505 30.264 131.785 30.264ZM151.32 21.96C152.936 21.96 154.216 22.376 155.16 23.208C156.12 24.024 156.6 25.216 156.6 26.784C156.6 27.68 156.408 28.512 156.024 29.28C155.64 30.048 155.04 30.672 154.224 31.152C153.424 31.616 152.416 31.848 151.2 31.848H148.56V39H147.384V21.96H151.32ZM151.2 30.72C152.224 30.72 153.056 30.512 153.696 30.096C154.336 29.68 154.784 29.176 155.04 28.584C155.312 27.976 155.448 27.376 155.448 26.784C155.448 25.68 155.096 24.792 154.392 24.12C153.688 23.432 152.704 23.088 151.44 23.088H148.56V30.72H151.2ZM161.225 20.76V39H160.097V20.76H161.225ZM174.632 29.616V39H173.504V37.008C173.136 37.616 172.576 38.136 171.824 38.568C171.072 38.984 170.256 39.192 169.376 39.192C168.48 39.192 167.664 38.992 166.928 38.592C166.208 38.176 165.632 37.6 165.2 36.864C164.784 36.112 164.576 35.256 164.576 34.296C164.576 33.272 164.792 32.392 165.224 31.656C165.672 30.904 166.28 30.328 167.048 29.928C167.832 29.528 168.712 29.328 169.688 29.328C170.456 29.328 171.192 29.544 171.896 29.976C172.6 30.408 173.136 30.968 173.504 31.656L173.624 29.616H174.632ZM169.616 38.232C170.672 38.232 171.568 37.904 172.304 37.248C173.04 36.592 173.44 35.752 173.504 34.728V33.384C173.312 32.504 172.848 31.768 172.112 31.176C171.376 30.584 170.536 30.288 169.592 30.288C168.872 30.288 168.216 30.456 167.624 30.792C167.032 31.112 166.56 31.576 166.208 32.184C165.872 32.776 165.704 33.464 165.704 34.248C165.704 34.968 165.88 35.632 166.232 36.24C166.584 36.848 167.056 37.336 167.648 37.704C168.256 38.056 168.912 38.232 169.616 38.232ZM186.982 29.616L180.934 43.512H179.758L181.774 38.904L177.43 29.616H178.702L182.35 37.608L185.878 29.616H186.982Z" fill="white"/>
<defs>
<linearGradient id="paint0_linear_430_15003" x1="-103" y1="32" x2="-66.7335" y2="148.733" gradientUnits="userSpaceOnUse">
<stop stop-color="#CA5EFF"/>
<stop offset="1" stop-color="#004FDE"/>
</linearGradient>
</defs>
</svg>
