<svg width="128" height="128" viewBox="0 0 128 128" fill="none" xmlns="http://www.w3.org/2000/svg">
<path fill-rule="evenodd" clip-rule="evenodd" d="M47.4839 29.3558L56.1814 31.5292C60.7853 32.6814 64 36.7984 64 41.5444V76.3871H59.871V41.5444C59.871 38.6976 57.9405 36.2258 55.1804 35.5323L46.0534 33.253L43.4516 35.8548L45.5161 54.4355L39.2258 60.7258L32.9355 54.4375L35 35.8569L32.3982 33.255L23.2712 35.5343C20.5111 36.2258 18.5806 38.6976 18.5806 41.5444V74.3226H22.7097V41.2903H26.8387V64H51.6129V41.2903H55.7419V128H22.7097V99.0968H0V74.3226H14.4516V41.5444C14.4516 36.7984 17.6663 32.6814 22.2702 31.5312L30.9677 29.3558V25.7238C28.4405 23.4526 26.8387 20.1724 26.8387 16.5161V12.3871C26.8387 5.55544 32.3942 0 39.2258 0C46.0575 0 51.6129 5.55544 51.6129 12.3871V16.5161C51.6129 20.1744 50.0111 23.4546 47.4839 25.7238V29.3558ZM18.8448 83.8024L25.2651 78.4516H7.76915L14.1895 83.8004C15.4919 84.8891 17.5423 84.8871 18.8448 83.8024ZM4.12903 80.7944L11.5423 86.9718C12.9365 88.1341 14.7016 88.7742 16.5161 88.7742C18.3306 88.7742 20.0958 88.1341 21.4879 86.9738L28.9032 80.7944V94.9677H4.12903V80.7944ZM51.6129 68.129H26.8387V74.3226H33.0323V99.0968H26.8387V123.871H37.1613V76.3871H41.2903V123.871H51.6129V68.129ZM30.9677 12.3871C30.9677 7.83266 34.6714 4.12903 39.2258 4.12903C43.7802 4.12903 47.4839 7.83266 47.4839 12.3871V16.5161C47.4839 21.0706 43.7802 24.7742 39.2258 24.7742C34.6714 24.7742 30.9677 21.0706 30.9677 16.5161V12.3871ZM43.3548 28.1804C42.0605 28.6391 40.6754 28.9032 39.2258 28.9032C37.7762 28.9032 36.3911 28.6391 35.0968 28.1804V30.1129L39.2258 34.2419L43.3548 30.1129V28.1804ZM39.2258 54.8871L37.2581 52.9194L39.2258 35.2127L41.1936 52.9194L39.2258 54.8871ZM120.181 31.5292L111.484 29.3558V25.7238C114.011 23.4546 115.613 20.1744 115.613 16.5161V12.3871C115.613 5.55544 110.057 0 103.226 0C96.3941 0 90.8387 5.55544 90.8387 12.3871V16.5161C90.8387 20.1724 92.4405 23.4526 94.9677 25.7238V29.3558L86.2702 31.5312C81.6663 32.6814 78.4516 36.7984 78.4516 41.5444V76.3871H82.5806V41.5444C82.5806 38.6976 84.5111 36.2258 87.2712 35.5343L99.0968 32.5796V28.1804C100.391 28.6411 101.776 28.9032 103.226 28.9032C104.675 28.9032 106.06 28.6391 107.355 28.1804V32.5796L119.18 35.5343C121.941 36.2258 123.871 38.6976 123.871 41.5444V76.3871H128V41.5444C128 36.7984 124.785 32.6814 120.181 31.5292ZM94.9677 16.5161V12.3871C94.9677 7.83266 98.6714 4.12903 103.226 4.12903C107.78 4.12903 111.484 7.83266 111.484 12.3871V16.5161C111.484 21.0706 107.78 24.7742 103.226 24.7742C98.6714 24.7742 94.9677 21.0706 94.9677 16.5161ZM115.613 64V41.2903H119.742V128H86.7097V41.2903H90.8387V64H115.613ZM105.29 76.3871V123.871H115.613V68.129H90.8387V123.871H101.161V76.3871H105.29ZM61.9355 20.6452H78.7591L86.7097 27.006V4.12903C86.7097 1.85181 84.8579 0 82.5806 0H61.9355C59.6583 0 57.8064 1.85181 57.8064 4.12903V16.5161C57.8064 18.7933 59.6583 20.6452 61.9355 20.6452ZM61.9355 4.12903H82.5806V18.4133L80.2087 16.5161H61.9355V4.12903ZM66.0645 8.25806H70.1935V12.3871H66.0645V8.25806ZM78.4516 8.25806H74.3226V12.3871H78.4516V8.25806Z" fill="url(#paint0_linear_265_1182)"/>
<defs>
<linearGradient id="paint0_linear_265_1182" x1="-64" y1="64" x2="64" y2="192" gradientUnits="userSpaceOnUse">
<stop stop-color="#CA5EFF"/>
<stop offset="1" stop-color="#004FDE"/>
</linearGradient>
</defs>
</svg>
