<svg width="24" height="20" viewBox="0 0 24 20" fill="none" xmlns="http://www.w3.org/2000/svg">
<path fill-rule="evenodd" clip-rule="evenodd" d="M3 8V3C3 2.44772 3.44772 2 4 2C4.55228 2 5 2.44772 5 3V5H7V3C7 1.34315 5.65685 0 4 0C2.34315 0 1 1.34315 1 3V8H0V10H24V8H3ZM18 5C18.5523 5 19 4.55228 19 4C19 3.44772 18.5523 3 18 3C17.4477 3 17 3.44772 17 4C17 4.55228 17.4477 5 18 5ZM16 2C16 2.55228 15.5523 3 15 3C14.4477 3 14 2.55228 14 2C14 1.44772 14.4477 1 15 1C15.5523 1 16 1.44772 16 2ZM13 7C13.5523 7 14 6.55228 14 6C14 5.44772 13.5523 5 13 5C12.4477 5 12 5.44772 12 6C12 6.55228 12.4477 7 13 7ZM6 19C3.23986 18.9969 1.0031 16.7601 1 14V11H23V14C22.9969 16.7601 20.7601 18.9969 18 19V20H16V19H8V20H6V19Z" fill="#CECECE"/>
</svg>
