<svg width="48" height="48" viewBox="0 0 48 48" fill="none" xmlns="http://www.w3.org/2000/svg">
<path d="M47.5 24C47.5 36.9787 36.9787 47.5 24 47.5C11.0213 47.5 0.5 36.9787 0.5 24C0.5 11.0213 11.0213 0.5 24 0.5C36.9787 0.5 47.5 11.0213 47.5 24Z" stroke="white" stroke-opacity="0.3003"/>
<path fill-rule="evenodd" clip-rule="evenodd" d="M28.4116 27.048C26.692 26.651 25.0915 26.303 25.8665 24.839C28.2266 20.383 26.492 18 24.0004 18C21.4594 18 19.7683 20.4745 22.1344 24.839C22.9329 26.3115 21.2719 26.6595 19.5893 27.048C18.0527 27.403 17.9952 28.166 18.0002 29.5L18.0022 30H29.9976L29.9996 29.5155C30.0056 28.1715 29.9536 27.4045 28.4116 27.048Z" fill="white"/>
</svg>
