<svg width="32" height="32" viewBox="0 0 32 32" fill="none" xmlns="http://www.w3.org/2000/svg">
<path d="M16 32C24.8366 32 32 24.8366 32 16C32 7.16344 24.8366 0 16 0C7.16344 0 0 7.16344 0 16C0 24.8366 7.16344 32 16 32Z" fill="#E9E9E9"/>
<path fill-rule="evenodd" clip-rule="evenodd" d="M16 17.334C18.5773 17.334 20.6667 15.244 20.6667 12.6673C20.6667 10.0893 18.5773 8 16 8C13.4227 8 11.3333 10.0893 11.3333 12.6673C11.3333 15.244 13.4227 17.334 16 17.334ZM16 18.6673C17.352 18.6673 18.5973 18.212 19.6013 17.454C22.2667 18.6627 24 22.3847 24 24H8C8 22.37 9.68067 18.648 12.3953 17.4527C13.4007 18.2107 14.6467 18.6673 16 18.6673Z" fill="#D3D3D3"/>
</svg>
