<svg width="16" height="16" viewBox="0 0 16 16" fill="none" xmlns="http://www.w3.org/2000/svg">
<path fill-rule="evenodd" clip-rule="evenodd" d="M11.733 9.684L16 13.92L13.9051 16L9.60927 11.736C8.65687 12.3 7.54664 12.6247 6.35916 12.6247C2.85249 12.6247 0 9.79267 0 6.312C0 2.832 2.85249 0 6.35916 0C9.86584 0 12.719 2.832 12.7183 6.31133C12.7183 7.55067 12.3577 8.70733 11.733 9.684ZM6.35849 2.35333C4.15952 2.35333 2.36957 4.13 2.36957 6.312C2.36957 8.49533 4.15952 10.2713 6.35849 10.2713C8.55814 10.2713 10.3481 8.49533 10.3481 6.312C10.3481 4.12933 8.55814 2.35333 6.35849 2.35333Z" fill="#9B9B9B"/>
</svg>
