<svg width="1440" height="864" viewBox="0 0 1440 864" fill="none" xmlns="http://www.w3.org/2000/svg">
<rect width="1440" height="864" fill="#D8D8D8"/>
<mask id="mask0_1017_13724" style="mask-type:luminance" maskUnits="userSpaceOnUse" x="0" y="0" width="1440" height="864">
<rect width="1440" height="864" fill="white"/>
</mask>
<g mask="url(#mask0_1017_13724)">
<path d="M1266 -44.5078L1248.2 -46.5417L1233.71 -52.6437L1208.67 -72.636L1191.76 -81.8952L1178.14 -84L1162.31 -77.3112L1126.67 -59.6597L1100.61 -45.2734L1076.48 -29.2546L1065.65 -14.5614L1054.47 0.604065L1014.79 86.5709L990.006 131.295L948.984 202.383L931.173 273.896L922.901 306.888L913.735 317.18L903.038 351.008L893.766 365.411L872.252 405.693L843.508 425.186L815.683 427.116L798.248 425.358L765.829 422.1L730.894 419.121L693.92 425.328L636.171 438.935L611.718 445.135L593.583 448.093L502.958 450.42L397.021 450.973L354.943 451.722L334.084 455.824L313.721 465.194L278 488" stroke="white" stroke-width="4.8" stroke-linecap="round" stroke-linejoin="round"/>
<path d="M1189 149L1263.93 171.617L1274.84 181.18L1282 197.479L1280.56 226" stroke="white" stroke-width="4.8" stroke-linecap="round" stroke-linejoin="round"/>
<path d="M231 226L292 181" stroke="white" stroke-width="4.8" stroke-linecap="round" stroke-linejoin="round"/>
<path d="M1177.97 536L1264.2 603.621L1280.09 615.06L1307.3 639.479L1310.33 656.951L1310.78 688.105L1311 748.908L1309.41 758.374L1302.21 768.928L1290.74 776.628L1277.63 780.922L1217.04 782L1202.71 778.749L1190.77 772.327L1184.76 763.732L1178.3 746.976L1171.47 728.033L1158.59 715.867L1132.06 693.515L1080 652.512" stroke="white" stroke-width="4.8" stroke-linecap="round" stroke-linejoin="round"/>
<path d="M1017 86L1047.49 102.288L1141 210" stroke="white" stroke-width="4.8" stroke-linecap="round" stroke-linejoin="round"/>
<path d="M1589 -190L1353.76 -186.957L1327.95 -177.925L1307.73 -164.334L1289.3 -142.258L1277.33 -101.621L1265.48 -52.0189L1256.84 -15.1458L1219.92 53.3488L1212.96 72.9482L1190.7 143.189L1173.45 170.614L1152.54 190.039L1134.62 202.608L1104.14 235.818L1091.47 272.942L1078.67 335.551L1072.1 350.03L1064.07 361.418L1052.01 375.515L995.635 441.646L971.586 471.582L855.118 608.309L835.357 631.508L808.968 656.712L787.248 667.229L576.212 672.42L436.748 673L384.734 669.447L365.69 659.349L346.461 645.893L330.174 625L297.137 505.955L283.61 477.078L262.387 454.566L241.122 444.847L194.789 437.122L158.051 428.545L130.049 406.499L121.804 393.257L113.314 376.46L101.738 309.41L93.7101 275.275L93 235.023L108.136 170.785L137.559 59.8171L162.865 -36.8702L177.071 -87.7492L184.189 -115.6L188.391 -134.858" stroke="white" stroke-width="4.8" stroke-linecap="round" stroke-linejoin="round"/>
<path d="M585.133 520L586 556.864L585 582.839L584.4 591.981L572.612 625.005L570 635.376L570.979 674" stroke="white" stroke-width="4.8" stroke-linecap="round" stroke-linejoin="round"/>
<path d="M879 395L904.87 415.376L972 472" stroke="white" stroke-width="4.8" stroke-linecap="round" stroke-linejoin="round"/>
<path d="M601 549L455.724 549.77L442.346 555.328L436.055 561.842L432.613 570.284L432 589.69L433.587 673" stroke="white" stroke-width="4.8" stroke-linecap="round" stroke-linejoin="round"/>
<path d="M1189 303L1170.1 390.521L1165.3 401.273L1069.6 512.253L953.926 643.551L927 674" stroke="white" stroke-width="4.8" stroke-linecap="round" stroke-linejoin="round"/>
<path d="M109 181L195.278 200.957L236.925 226.608L243.737 239.024L260.688 279.025L278 319" stroke="white" stroke-width="4.8" stroke-linecap="round" stroke-linejoin="round"/>
<path d="M1018 705L1026.58 718.474L1038.83 745.133L1050.18 766.327L1059.18 775.582L1071.02 782L1126 779.087" stroke="white" stroke-width="4.8" stroke-linecap="round" stroke-linejoin="round"/>
<path d="M1250 459L1311 520" stroke="white" stroke-width="4.8" stroke-linecap="round" stroke-linejoin="round"/>
<path d="M1085.05 287L1185.57 305.125L1221.35 311.035L1239.35 320.388L1249.4 329.688L1258.52 341.161L1263.61 356.839L1265.68 370.153L1266 393.296L1264.95 424.344L1260.26 440.661L1241.14 467.046L1174.85 542.257L1079.33 655.362L1036.3 703.503L1021.29 713.518L997.294 719L980.366 717.335L962.676 710.947L926.877 683.018L850 621.502" stroke="white" stroke-width="4.8" stroke-linecap="round" stroke-linejoin="round"/>
</g>
<path fill-rule="evenodd" clip-rule="evenodd" d="M955 423.204C955 414.806 962.604 408 971 408C979.398 408 987 414.806 987 423.204C987 429.145 984.112 432.558 980.736 436.55C977.015 440.947 972.701 446.046 971 456C969.299 446.046 964.985 440.947 961.264 436.55C957.888 432.558 955 429.145 955 423.204ZM965 424C965 427.314 967.686 430 971 430C974.314 430 977 427.314 977 424C977 420.686 974.316 418 971 418C967.684 418 965 420.686 965 424Z" fill="#333333"/>
<rect x="806" y="272" width="330" height="112" rx="3" fill="#333333"/>
<path d="M971 394L980 384H962L971 394Z" fill="#333333"/>
<path d="M883.5 328C883.5 340.979 872.979 351.5 860 351.5C847.021 351.5 836.5 340.979 836.5 328C836.5 315.021 847.021 304.5 860 304.5C872.979 304.5 883.5 315.021 883.5 328Z" stroke="white" stroke-opacity="0.199587"/>
<path fill-rule="evenodd" clip-rule="evenodd" d="M865.545 321L860 317L854.455 321L848 317V335L854.455 339L860 335L865.545 339L872 335V317L865.545 321ZM855 323.073L859 320.187V333.255L855 336.14V323.073ZM866 336.366L870 333.887V320.592L866 323.071V336.366Z" fill="white"/>
<path d="M901.008 320V319.056C901.765 318.459 902.48 317.856 903.152 317.248C903.835 316.629 904.437 316.021 904.96 315.424C905.493 314.827 905.909 314.24 906.208 313.664C906.517 313.088 906.672 312.533 906.672 312C906.672 311.605 906.603 311.237 906.464 310.896C906.336 310.555 906.123 310.283 905.824 310.08C905.525 309.867 905.12 309.76 904.608 309.76C904.117 309.76 903.707 309.872 903.376 310.096C903.045 310.309 902.795 310.597 902.624 310.96C902.464 311.323 902.384 311.712 902.384 312.128H901.088C901.088 311.392 901.243 310.763 901.552 310.24C901.861 309.707 902.283 309.301 902.816 309.024C903.349 308.747 903.952 308.608 904.624 308.608C905.616 308.608 906.427 308.891 907.056 309.456C907.696 310.011 908.016 310.843 908.016 311.952C908.016 312.613 907.851 313.269 907.52 313.92C907.189 314.56 906.768 315.184 906.256 315.792C905.744 316.389 905.195 316.949 904.608 317.472C904.032 317.995 903.493 318.464 902.992 318.88H908.4V320H901.008ZM913.828 320.192C913.114 320.192 912.468 320.064 911.892 319.808C911.316 319.541 910.852 319.147 910.5 318.624C910.159 318.101 909.978 317.451 909.956 316.672H911.316C911.327 317.312 911.551 317.867 911.988 318.336C912.426 318.795 913.039 319.024 913.828 319.024C914.618 319.024 915.21 318.805 915.604 318.368C916.01 317.931 916.212 317.403 916.212 316.784C916.212 316.261 916.084 315.835 915.828 315.504C915.583 315.173 915.247 314.928 914.82 314.768C914.404 314.608 913.946 314.528 913.444 314.528H912.612V313.392H913.444C914.17 313.392 914.735 313.227 915.14 312.896C915.556 312.565 915.764 312.101 915.764 311.504C915.764 311.003 915.599 310.592 915.268 310.272C914.948 309.941 914.468 309.776 913.828 309.776C913.21 309.776 912.714 309.963 912.34 310.336C911.967 310.699 911.759 311.157 911.716 311.712H910.356C910.388 311.104 910.548 310.565 910.836 310.096C911.135 309.627 911.54 309.264 912.052 309.008C912.564 308.741 913.156 308.608 913.828 308.608C914.554 308.608 915.156 308.736 915.636 308.992C916.127 309.248 916.495 309.589 916.74 310.016C916.996 310.443 917.124 310.912 917.124 311.424C917.124 311.989 916.97 312.507 916.66 312.976C916.351 313.435 915.887 313.744 915.268 313.904C915.93 314.043 916.479 314.357 916.916 314.848C917.354 315.339 917.572 315.984 917.572 316.784C917.572 317.403 917.428 317.973 917.14 318.496C916.863 319.008 916.447 319.419 915.892 319.728C915.338 320.037 914.65 320.192 913.828 320.192ZM923.443 320.192C922.707 320.192 922.045 320.059 921.459 319.792C920.872 319.515 920.408 319.136 920.067 318.656C919.736 318.165 919.571 317.6 919.571 316.96C919.571 316.277 919.768 315.664 920.163 315.12C920.568 314.576 921.101 314.213 921.763 314.032C921.155 313.829 920.685 313.504 920.355 313.056C920.024 312.608 919.859 312.117 919.859 311.584C919.859 311.04 920.003 310.544 920.291 310.096C920.579 309.637 920.989 309.275 921.523 309.008C922.056 308.741 922.696 308.608 923.443 308.608C924.189 308.608 924.829 308.741 925.363 309.008C925.896 309.275 926.307 309.637 926.595 310.096C926.883 310.544 927.027 311.04 927.027 311.584C927.027 312.107 926.861 312.597 926.531 313.056C926.2 313.504 925.731 313.829 925.123 314.032C925.784 314.213 926.312 314.576 926.707 315.12C927.112 315.664 927.315 316.277 927.315 316.96C927.315 317.6 927.144 318.165 926.803 318.656C926.472 319.136 926.013 319.515 925.427 319.792C924.84 320.059 924.179 320.192 923.443 320.192ZM923.443 313.552C924.125 313.552 924.664 313.381 925.059 313.04C925.464 312.688 925.667 312.229 925.667 311.664C925.667 311.035 925.469 310.56 925.075 310.24C924.68 309.92 924.136 309.76 923.443 309.76C922.749 309.76 922.205 309.92 921.811 310.24C921.427 310.56 921.235 311.035 921.235 311.664C921.235 312.229 921.432 312.688 921.827 313.04C922.221 313.381 922.76 313.552 923.443 313.552ZM923.443 319.008C924.285 319.008 924.915 318.816 925.331 318.432C925.757 318.037 925.971 317.52 925.971 316.88C925.971 316.155 925.741 315.605 925.283 315.232C924.824 314.859 924.211 314.672 923.443 314.672C922.675 314.672 922.061 314.859 921.603 315.232C921.144 315.605 920.914 316.155 920.914 316.88C920.914 317.52 921.123 318.037 921.539 318.432C921.965 318.816 922.6 319.008 923.443 319.008ZM933 320.192C932.285 320.192 931.64 320.064 931.064 319.808C930.488 319.541 930.024 319.147 929.672 318.624C929.331 318.101 929.149 317.451 929.128 316.672H930.488C930.499 317.312 930.723 317.867 931.16 318.336C931.597 318.795 932.211 319.024 933 319.024C933.789 319.024 934.381 318.805 934.776 318.368C935.181 317.931 935.384 317.403 935.384 316.784C935.384 316.261 935.256 315.835 935 315.504C934.755 315.173 934.419 314.928 933.992 314.768C933.576 314.608 933.117 314.528 932.616 314.528H931.784V313.392H932.616C933.341 313.392 933.907 313.227 934.312 312.896C934.728 312.565 934.936 312.101 934.936 311.504C934.936 311.003 934.771 310.592 934.44 310.272C934.12 309.941 933.64 309.776 933 309.776C932.381 309.776 931.885 309.963 931.512 310.336C931.139 310.699 930.931 311.157 930.888 311.712H929.528C929.56 311.104 929.72 310.565 930.008 310.096C930.307 309.627 930.712 309.264 931.224 309.008C931.736 308.741 932.328 308.608 933 308.608C933.725 308.608 934.328 308.736 934.808 308.992C935.299 309.248 935.667 309.589 935.912 310.016C936.168 310.443 936.296 310.912 936.296 311.424C936.296 311.989 936.141 312.507 935.832 312.976C935.523 313.435 935.059 313.744 934.44 313.904C935.101 314.043 935.651 314.357 936.088 314.848C936.525 315.339 936.744 315.984 936.744 316.784C936.744 317.403 936.6 317.973 936.312 318.496C936.035 319.008 935.619 319.419 935.064 319.728C934.509 320.037 933.821 320.192 933 320.192ZM947.387 320V308.8H951.003C951.878 308.8 952.592 308.944 953.147 309.232C953.702 309.52 954.112 309.915 954.379 310.416C954.646 310.917 954.779 311.472 954.779 312.08C954.779 312.784 954.587 313.419 954.203 313.984C953.83 314.549 953.243 314.949 952.443 315.184L954.891 320H953.307L951.035 315.376H950.939H948.731V320H947.387ZM948.731 314.32H950.907C951.771 314.32 952.4 314.112 952.795 313.696C953.19 313.28 953.387 312.747 953.387 312.096C953.387 311.435 953.19 310.912 952.795 310.528C952.411 310.133 951.776 309.936 950.891 309.936H948.731V314.32ZM959.923 320.192C959.176 320.192 958.504 320.021 957.907 319.68C957.31 319.339 956.835 318.859 956.483 318.24C956.142 317.611 955.971 316.875 955.971 316.032C955.971 315.189 956.147 314.459 956.499 313.84C956.851 313.211 957.326 312.725 957.923 312.384C958.531 312.043 959.208 311.872 959.955 311.872C960.702 311.872 961.374 312.043 961.971 312.384C962.568 312.725 963.038 313.211 963.379 313.84C963.731 314.459 963.907 315.189 963.907 316.032C963.907 316.875 963.731 317.611 963.379 318.24C963.027 318.859 962.547 319.339 961.939 319.68C961.342 320.021 960.67 320.192 959.923 320.192ZM959.923 319.04C960.382 319.04 960.808 318.928 961.203 318.704C961.598 318.48 961.918 318.144 962.163 317.696C962.408 317.248 962.531 316.693 962.531 316.032C962.531 315.371 962.408 314.816 962.163 314.368C961.928 313.92 961.614 313.584 961.219 313.36C960.824 313.136 960.403 313.024 959.955 313.024C959.496 313.024 959.07 313.136 958.675 313.36C958.28 313.584 957.96 313.92 957.715 314.368C957.47 314.816 957.347 315.371 957.347 316.032C957.347 316.693 957.47 317.248 957.715 317.696C957.96 318.144 958.275 318.48 958.659 318.704C959.054 318.928 959.475 319.04 959.923 319.04ZM969.424 320.192C968.667 320.192 967.984 320.021 967.376 319.68C966.779 319.328 966.304 318.843 965.952 318.224C965.611 317.595 965.44 316.864 965.44 316.032C965.44 315.2 965.611 314.475 965.952 313.856C966.304 313.227 966.779 312.741 967.376 312.4C967.984 312.048 968.667 311.872 969.424 311.872C970.363 311.872 971.152 312.117 971.792 312.608C972.443 313.099 972.853 313.755 973.024 314.576H971.648C971.541 314.085 971.28 313.707 970.864 313.44C970.448 313.163 969.963 313.024 969.408 313.024C968.96 313.024 968.539 313.136 968.144 313.36C967.749 313.584 967.429 313.92 967.184 314.368C966.939 314.816 966.816 315.371 966.816 316.032C966.816 316.693 966.939 317.248 967.184 317.696C967.429 318.144 967.749 318.485 968.144 318.72C968.539 318.944 968.96 319.056 969.408 319.056C969.963 319.056 970.448 318.923 970.864 318.656C971.28 318.379 971.541 317.989 971.648 317.488H973.024C972.864 318.288 972.459 318.939 971.808 319.44C971.157 319.941 970.363 320.192 969.424 320.192ZM974.901 320V308.48H976.245V315.408L979.493 312.064H981.141L977.621 315.648L981.589 320H979.877L976.245 315.888V320H974.901ZM983.395 320V313.2H982.195V312.064H983.395V310.688C983.395 309.92 983.587 309.36 983.971 309.008C984.355 308.656 984.915 308.48 985.651 308.48H986.451V309.632H985.859C985.454 309.632 985.166 309.717 984.995 309.888C984.825 310.048 984.739 310.325 984.739 310.72V312.064H986.691V313.2H984.739V320H983.395ZM991.595 320.192C990.848 320.192 990.176 320.021 989.579 319.68C988.982 319.339 988.507 318.859 988.155 318.24C987.814 317.611 987.643 316.875 987.643 316.032C987.643 315.189 987.819 314.459 988.171 313.84C988.523 313.211 988.998 312.725 989.595 312.384C990.203 312.043 990.88 311.872 991.627 311.872C992.374 311.872 993.046 312.043 993.643 312.384C994.24 312.725 994.71 313.211 995.051 313.84C995.403 314.459 995.579 315.189 995.579 316.032C995.579 316.875 995.403 317.611 995.051 318.24C994.699 318.859 994.219 319.339 993.611 319.68C993.014 320.021 992.342 320.192 991.595 320.192ZM991.595 319.04C992.054 319.04 992.48 318.928 992.875 318.704C993.27 318.48 993.59 318.144 993.835 317.696C994.08 317.248 994.203 316.693 994.203 316.032C994.203 315.371 994.08 314.816 993.835 314.368C993.6 313.92 993.286 313.584 992.891 313.36C992.496 313.136 992.075 313.024 991.627 313.024C991.168 313.024 990.742 313.136 990.347 313.36C989.952 313.584 989.632 313.92 989.387 314.368C989.142 314.816 989.019 315.371 989.019 316.032C989.019 316.693 989.142 317.248 989.387 317.696C989.632 318.144 989.947 318.48 990.331 318.704C990.726 318.928 991.147 319.04 991.595 319.04ZM997.448 320V312.064H998.664L998.776 313.584C999.021 313.061 999.394 312.645 999.896 312.336C1000.4 312.027 1001.02 311.872 1001.75 311.872V313.28H1001.38C1000.91 313.28 1000.48 313.365 1000.09 313.536C999.693 313.696 999.378 313.973 999.144 314.368C998.909 314.763 998.792 315.307 998.792 316V320H997.448ZM1006.56 320.192C1005.77 320.192 1005.08 320.011 1004.48 319.648C1003.9 319.285 1003.44 318.789 1003.11 318.16C1002.79 317.531 1002.63 316.816 1002.63 316.016C1002.63 315.216 1002.79 314.507 1003.12 313.888C1003.45 313.259 1003.91 312.768 1004.5 312.416C1005.09 312.053 1005.78 311.872 1006.58 311.872C1007.23 311.872 1007.81 312.005 1008.31 312.272C1008.81 312.539 1009.2 312.912 1009.48 313.392V308.48H1010.82V320H1009.6L1009.48 318.688C1009.22 319.072 1008.85 319.419 1008.37 319.728C1007.89 320.037 1007.29 320.192 1006.56 320.192ZM1006.71 319.024C1007.24 319.024 1007.71 318.901 1008.12 318.656C1008.53 318.4 1008.85 318.048 1009.08 317.6C1009.31 317.152 1009.43 316.629 1009.43 316.032C1009.43 315.435 1009.31 314.912 1009.08 314.464C1008.85 314.016 1008.53 313.669 1008.12 313.424C1007.71 313.168 1007.24 313.04 1006.71 313.04C1006.18 313.04 1005.72 313.168 1005.3 313.424C1004.89 313.669 1004.57 314.016 1004.34 314.464C1004.12 314.912 1004 315.435 1004 316.032C1004 316.629 1004.12 317.152 1004.34 317.6C1004.57 318.048 1004.89 318.4 1005.3 318.656C1005.72 318.901 1006.18 319.024 1006.71 319.024ZM1017.32 320V308.8H1018.89L1022.92 316.608L1026.92 308.8H1028.51V320H1027.16V311.2L1023.42 318.4H1022.41L1018.67 311.216V320H1017.32ZM1034.41 320.192C1033.66 320.192 1032.99 320.021 1032.39 319.68C1031.79 319.339 1031.32 318.859 1030.97 318.24C1030.63 317.611 1030.46 316.875 1030.46 316.032C1030.46 315.189 1030.63 314.459 1030.98 313.84C1031.34 313.211 1031.81 312.725 1032.41 312.384C1033.02 312.043 1033.69 311.872 1034.44 311.872C1035.19 311.872 1035.86 312.043 1036.46 312.384C1037.05 312.725 1037.52 313.211 1037.86 313.84C1038.22 314.459 1038.39 315.189 1038.39 316.032C1038.39 316.875 1038.22 317.611 1037.86 318.24C1037.51 318.859 1037.03 319.339 1036.42 319.68C1035.83 320.021 1035.15 320.192 1034.41 320.192ZM1034.41 319.04C1034.87 319.04 1035.29 318.928 1035.69 318.704C1036.08 318.48 1036.4 318.144 1036.65 317.696C1036.89 317.248 1037.02 316.693 1037.02 316.032C1037.02 315.371 1036.89 314.816 1036.65 314.368C1036.41 313.92 1036.1 313.584 1035.7 313.36C1035.31 313.136 1034.89 313.024 1034.44 313.024C1033.98 313.024 1033.55 313.136 1033.16 313.36C1032.76 313.584 1032.44 313.92 1032.2 314.368C1031.95 314.816 1031.83 315.371 1031.83 316.032C1031.83 316.693 1031.95 317.248 1032.2 317.696C1032.44 318.144 1032.76 318.48 1033.14 318.704C1033.54 318.928 1033.96 319.04 1034.41 319.04ZM1047.2 312.064V320H1045.99L1045.91 318.576C1045.65 319.077 1045.28 319.472 1044.8 319.76C1044.32 320.048 1043.78 320.192 1043.17 320.192C1042.23 320.192 1041.48 319.909 1040.92 319.344C1040.36 318.768 1040.08 317.888 1040.08 316.704V312.064H1041.43V316.56C1041.43 318.213 1042.11 319.04 1043.48 319.04C1044.16 319.04 1044.72 318.795 1045.17 318.304C1045.63 317.803 1045.86 317.093 1045.86 316.176V312.064H1047.2ZM1049.42 320V312.064H1050.63L1050.71 313.488C1050.97 312.987 1051.34 312.592 1051.82 312.304C1052.3 312.016 1052.84 311.872 1053.45 311.872C1054.39 311.872 1055.13 312.16 1055.69 312.736C1056.25 313.301 1056.54 314.176 1056.54 315.36V320H1055.19V315.504C1055.19 313.851 1054.51 313.024 1053.14 313.024C1052.46 313.024 1051.89 313.275 1051.43 313.776C1050.98 314.267 1050.76 314.971 1050.76 315.888V320H1049.42ZM1061.71 320C1060.98 320 1060.41 319.824 1060 319.472C1059.58 319.12 1059.37 318.485 1059.37 317.568V313.2H1058V312.064H1059.37L1059.55 310.16H1060.72V312.064H1063.05V313.2H1060.72V317.568C1060.72 318.069 1060.82 318.411 1061.02 318.592C1061.22 318.763 1061.58 318.848 1062.09 318.848H1062.92V320H1061.71ZM1067.4 320.192C1066.74 320.192 1066.19 320.08 1065.75 319.856C1065.31 319.632 1064.99 319.333 1064.78 318.96C1064.56 318.587 1064.46 318.181 1064.46 317.744C1064.46 316.933 1064.77 316.309 1065.38 315.872C1066 315.435 1066.85 315.216 1067.91 315.216H1070.06V315.12C1070.06 314.427 1069.87 313.904 1069.51 313.552C1069.15 313.189 1068.66 313.008 1068.06 313.008C1067.53 313.008 1067.08 313.141 1066.7 313.408C1066.32 313.664 1066.09 314.043 1065.99 314.544H1064.62C1064.67 313.968 1064.86 313.483 1065.19 313.088C1065.53 312.693 1065.95 312.395 1066.46 312.192C1066.96 311.979 1067.49 311.872 1068.06 311.872C1069.17 311.872 1070 312.171 1070.55 312.768C1071.12 313.355 1071.4 314.139 1071.4 315.12V320H1070.2L1070.12 318.576C1069.9 319.024 1069.57 319.408 1069.13 319.728C1068.7 320.037 1068.13 320.192 1067.4 320.192ZM1067.61 319.056C1068.12 319.056 1068.56 318.923 1068.92 318.656C1069.29 318.389 1069.58 318.043 1069.77 317.616C1069.96 317.189 1070.06 316.741 1070.06 316.272V316.256H1068.02C1067.23 316.256 1066.67 316.395 1066.34 316.672C1066.02 316.939 1065.86 317.275 1065.86 317.68C1065.86 318.096 1066.01 318.432 1066.31 318.688C1066.62 318.933 1067.05 319.056 1067.61 319.056ZM1074.23 310.304C1073.97 310.304 1073.74 310.219 1073.56 310.048C1073.39 309.867 1073.3 309.643 1073.3 309.376C1073.3 309.12 1073.39 308.907 1073.56 308.736C1073.74 308.565 1073.97 308.48 1074.23 308.48C1074.49 308.48 1074.71 308.565 1074.89 308.736C1075.07 308.907 1075.16 309.12 1075.16 309.376C1075.16 309.643 1075.07 309.867 1074.89 310.048C1074.71 310.219 1074.49 310.304 1074.23 310.304ZM1073.56 320V312.064H1074.9V320H1073.56ZM1077.24 320V312.064H1078.46L1078.54 313.488C1078.8 312.987 1079.16 312.592 1079.64 312.304C1080.12 312.016 1080.67 311.872 1081.28 311.872C1082.22 311.872 1082.96 312.16 1083.52 312.736C1084.08 313.301 1084.36 314.176 1084.36 315.36V320H1083.02V315.504C1083.02 313.851 1082.34 313.024 1080.97 313.024C1080.29 313.024 1079.72 313.275 1079.26 313.776C1078.81 314.267 1078.59 314.971 1078.59 315.888V320H1077.24ZM901.184 352V340.8H902.528V350.928H907.744V352H901.184ZM912.15 352.192C911.489 352.192 910.94 352.08 910.502 351.856C910.065 351.632 909.74 351.333 909.526 350.96C909.313 350.587 909.206 350.181 909.206 349.744C909.206 348.933 909.516 348.309 910.134 347.872C910.753 347.435 911.596 347.216 912.662 347.216H914.806V347.12C914.806 346.427 914.625 345.904 914.262 345.552C913.9 345.189 913.414 345.008 912.806 345.008C912.284 345.008 911.83 345.141 911.446 345.408C911.073 345.664 910.838 346.043 910.742 346.544H909.366C909.42 345.968 909.612 345.483 909.942 345.088C910.284 344.693 910.705 344.395 911.206 344.192C911.708 343.979 912.241 343.872 912.806 343.872C913.916 343.872 914.748 344.171 915.302 344.768C915.868 345.355 916.15 346.139 916.15 347.12V352H914.95L914.87 350.576C914.646 351.024 914.316 351.408 913.878 351.728C913.452 352.037 912.876 352.192 912.15 352.192ZM912.358 351.056C912.87 351.056 913.308 350.923 913.67 350.656C914.044 350.389 914.326 350.043 914.518 349.616C914.71 349.189 914.806 348.741 914.806 348.272V348.256H912.774C911.985 348.256 911.425 348.395 911.094 348.672C910.774 348.939 910.614 349.275 910.614 349.68C910.614 350.096 910.764 350.432 911.062 350.688C911.372 350.933 911.804 351.056 912.358 351.056ZM918.167 352V344.064H919.383L919.463 345.488C919.719 344.987 920.087 344.592 920.567 344.304C921.047 344.016 921.591 343.872 922.199 343.872C923.137 343.872 923.884 344.16 924.439 344.736C925.004 345.301 925.286 346.176 925.286 347.36V352H923.943V347.504C923.943 345.851 923.26 345.024 921.895 345.024C921.212 345.024 920.641 345.275 920.183 345.776C919.735 346.267 919.511 346.971 919.511 347.888V352H918.167ZM930.891 352.192C930.133 352.192 929.461 352.021 928.875 351.68C928.288 351.328 927.824 350.843 927.483 350.224C927.152 349.605 926.987 348.875 926.987 348.032C926.987 347.2 927.152 346.475 927.483 345.856C927.813 345.227 928.272 344.741 928.859 344.4C929.456 344.048 930.144 343.872 930.923 343.872C931.691 343.872 932.352 344.048 932.907 344.4C933.472 344.741 933.904 345.195 934.203 345.76C934.501 346.325 934.651 346.933 934.651 347.584C934.651 347.701 934.645 347.819 934.635 347.936C934.635 348.053 934.635 348.187 934.635 348.336H928.315C928.347 348.944 928.485 349.451 928.731 349.856C928.987 350.251 929.301 350.549 929.675 350.752C930.059 350.955 930.464 351.056 930.891 351.056C931.445 351.056 931.909 350.928 932.283 350.672C932.656 350.416 932.928 350.069 933.099 349.632H934.427C934.213 350.368 933.803 350.981 933.195 351.472C932.597 351.952 931.829 352.192 930.891 352.192ZM930.891 345.008C930.251 345.008 929.68 345.205 929.179 345.6C928.688 345.984 928.405 346.549 928.331 347.296H933.323C933.291 346.581 933.045 346.021 932.587 345.616C932.128 345.211 931.563 345.008 930.891 345.008ZM935.36 353.904L936.288 350.368H937.68L936.288 353.904H935.36ZM943.59 352V340.8H947.206C948.081 340.8 948.796 340.944 949.35 341.232C949.905 341.52 950.316 341.915 950.582 342.416C950.849 342.917 950.982 343.472 950.982 344.08C950.982 344.784 950.79 345.419 950.406 345.984C950.033 346.549 949.446 346.949 948.646 347.184L951.094 352H949.51L947.238 347.376H947.142H944.934V352H943.59ZM944.934 346.32H947.11C947.974 346.32 948.604 346.112 948.998 345.696C949.393 345.28 949.59 344.747 949.59 344.096C949.59 343.435 949.393 342.912 948.998 342.528C948.614 342.133 947.98 341.936 947.094 341.936H944.934V346.32ZM955.416 352.192C954.755 352.192 954.205 352.08 953.768 351.856C953.331 351.632 953.005 351.333 952.792 350.96C952.579 350.587 952.472 350.181 952.472 349.744C952.472 348.933 952.781 348.309 953.4 347.872C954.019 347.435 954.861 347.216 955.928 347.216H958.072V347.12C958.072 346.427 957.891 345.904 957.528 345.552C957.165 345.189 956.68 345.008 956.072 345.008C955.549 345.008 955.096 345.141 954.712 345.408C954.339 345.664 954.104 346.043 954.008 346.544H952.632C952.685 345.968 952.877 345.483 953.208 345.088C953.549 344.693 953.971 344.395 954.472 344.192C954.973 343.979 955.507 343.872 956.072 343.872C957.181 343.872 958.013 344.171 958.568 344.768C959.133 345.355 959.416 346.139 959.416 347.12V352H958.216L958.136 350.576C957.912 351.024 957.581 351.408 957.144 351.728C956.717 352.037 956.141 352.192 955.416 352.192ZM955.624 351.056C956.136 351.056 956.573 350.923 956.936 350.656C957.309 350.389 957.592 350.043 957.784 349.616C957.976 349.189 958.072 348.741 958.072 348.272V348.256H956.04C955.251 348.256 954.691 348.395 954.36 348.672C954.04 348.939 953.88 349.275 953.88 349.68C953.88 350.096 954.029 350.432 954.328 350.688C954.637 350.933 955.069 351.056 955.624 351.056ZM961.432 352V340.48H962.776V352H961.432ZM968.547 352.192C967.79 352.192 967.118 352.021 966.531 351.68C965.944 351.328 965.48 350.843 965.139 350.224C964.808 349.605 964.643 348.875 964.643 348.032C964.643 347.2 964.808 346.475 965.139 345.856C965.47 345.227 965.928 344.741 966.515 344.4C967.112 344.048 967.8 343.872 968.579 343.872C969.347 343.872 970.008 344.048 970.563 344.4C971.128 344.741 971.56 345.195 971.859 345.76C972.158 346.325 972.307 346.933 972.307 347.584C972.307 347.701 972.302 347.819 972.291 347.936C972.291 348.053 972.291 348.187 972.291 348.336H965.971C966.003 348.944 966.142 349.451 966.387 349.856C966.643 350.251 966.958 350.549 967.331 350.752C967.715 350.955 968.12 351.056 968.547 351.056C969.102 351.056 969.566 350.928 969.939 350.672C970.312 350.416 970.584 350.069 970.755 349.632H972.083C971.87 350.368 971.459 350.981 970.851 351.472C970.254 351.952 969.486 352.192 968.547 352.192ZM968.547 345.008C967.907 345.008 967.336 345.205 966.835 345.6C966.344 345.984 966.062 346.549 965.987 347.296H970.979C970.947 346.581 970.702 346.021 970.243 345.616C969.784 345.211 969.219 345.008 968.547 345.008ZM974.904 342.304C974.638 342.304 974.414 342.219 974.232 342.048C974.062 341.867 973.976 341.643 973.976 341.376C973.976 341.12 974.062 340.907 974.232 340.736C974.414 340.565 974.638 340.48 974.904 340.48C975.16 340.48 975.379 340.565 975.56 340.736C975.742 340.907 975.832 341.12 975.832 341.376C975.832 341.643 975.742 341.867 975.56 342.048C975.379 342.219 975.16 342.304 974.904 342.304ZM974.232 352V344.064H975.576V352H974.232ZM981.053 349.504C980.605 349.504 980.194 349.445 979.821 349.328L979.021 350.08C979.138 350.165 979.282 350.24 979.453 350.304C979.634 350.357 979.89 350.411 980.221 350.464C980.551 350.507 981.015 350.555 981.613 350.608C982.679 350.683 983.442 350.928 983.901 351.344C984.359 351.76 984.589 352.304 984.589 352.976C984.589 353.435 984.461 353.872 984.205 354.288C983.959 354.704 983.575 355.045 983.053 355.312C982.541 355.579 981.879 355.712 981.069 355.712C980.354 355.712 979.719 355.616 979.164 355.424C978.61 355.243 978.178 354.96 977.868 354.576C977.559 354.203 977.405 353.728 977.405 353.152C977.405 352.853 977.485 352.528 977.645 352.176C977.805 351.835 978.103 351.509 978.541 351.2C978.306 351.104 978.103 351.003 977.933 350.896C977.773 350.779 977.623 350.651 977.485 350.512V350.144L978.845 348.8C978.215 348.267 977.901 347.563 977.901 346.688C977.901 346.165 978.023 345.691 978.269 345.264C978.514 344.837 978.871 344.501 979.341 344.256C979.81 344 980.381 343.872 981.053 343.872C981.511 343.872 981.927 343.936 982.301 344.064H985.229V345.072L983.741 345.136C984.05 345.584 984.205 346.101 984.205 346.688C984.205 347.211 984.077 347.685 983.821 348.112C983.575 348.539 983.218 348.88 982.749 349.136C982.29 349.381 981.725 349.504 981.053 349.504ZM981.053 348.4C981.618 348.4 982.066 348.256 982.397 347.968C982.738 347.669 982.909 347.243 982.909 346.688C982.909 346.144 982.738 345.728 982.397 345.44C982.066 345.141 981.618 344.992 981.053 344.992C980.477 344.992 980.018 345.141 979.677 345.44C979.346 345.728 979.181 346.144 979.181 346.688C979.181 347.243 979.346 347.669 979.677 347.968C980.018 348.256 980.477 348.4 981.053 348.4ZM978.717 353.024C978.717 353.557 978.941 353.952 979.389 354.208C979.837 354.475 980.397 354.608 981.069 354.608C981.73 354.608 982.258 354.464 982.653 354.176C983.058 353.888 983.261 353.504 983.261 353.024C983.261 352.683 983.122 352.384 982.845 352.128C982.567 351.883 982.055 351.739 981.309 351.696C980.722 351.653 980.215 351.6 979.789 351.536C979.351 351.771 979.063 352.021 978.924 352.288C978.786 352.565 978.717 352.811 978.717 353.024ZM986.745 352V340.48H988.089V345.424C988.355 344.933 988.734 344.555 989.225 344.288C989.715 344.011 990.249 343.872 990.825 343.872C991.742 343.872 992.478 344.16 993.033 344.736C993.587 345.301 993.865 346.176 993.865 347.36V352H992.537V347.504C992.537 345.851 991.87 345.024 990.537 345.024C989.843 345.024 989.262 345.275 988.793 345.776C988.323 346.267 988.089 346.971 988.089 347.888V352H986.745ZM994.829 353.904L995.757 350.368H997.149L995.757 353.904H994.829ZM1003.06 352V340.8H1004.4L1010.37 349.776V340.8H1011.72V352H1010.37L1004.4 343.024V352H1003.06ZM1019 352.192C1017.9 352.192 1016.95 351.952 1016.15 351.472C1015.36 350.981 1014.75 350.304 1014.31 349.44C1013.88 348.565 1013.66 347.552 1013.66 346.4C1013.66 345.259 1013.88 344.256 1014.31 343.392C1014.75 342.517 1015.36 341.835 1016.15 341.344C1016.95 340.853 1017.9 340.608 1019 340.608C1020.28 340.608 1021.32 340.917 1022.12 341.536C1022.93 342.144 1023.45 342.997 1023.67 344.096H1022.19C1022.02 343.403 1021.66 342.848 1021.13 342.432C1020.61 342.005 1019.9 341.792 1019 341.792C1018.2 341.792 1017.5 341.979 1016.91 342.352C1016.31 342.715 1015.84 343.243 1015.51 343.936C1015.19 344.619 1015.03 345.44 1015.03 346.4C1015.03 347.36 1015.19 348.187 1015.51 348.88C1015.84 349.563 1016.31 350.091 1016.91 350.464C1017.5 350.827 1018.2 351.008 1019 351.008C1019.9 351.008 1020.61 350.805 1021.13 350.4C1021.66 349.984 1022.02 349.435 1022.19 348.752H1023.67C1023.45 349.829 1022.93 350.672 1022.12 351.28C1021.32 351.888 1020.28 352.192 1019 352.192Z" fill="white"/>
</svg>
