<svg width="104" height="48" viewBox="0 0 104 48" fill="none" xmlns="http://www.w3.org/2000/svg">
<g id="arrows">
<path id="Oval" d="M24 48C37.2548 48 48 37.2548 48 24C48 10.7452 37.2548 0 24 0C10.7452 0 0 10.7452 0 24C0 37.2548 10.7452 48 24 48Z" fill="white"/>
<path id="Path" fill-rule="evenodd" clip-rule="evenodd" d="M22.975 13L25.822 15.828L19.646 22.004H36V25.996H19.646L25.822 32.172L22.975 35L12 24L22.975 13Z" fill="#DD514C"/>
<path id="Oval_2" d="M80 48C93.2548 48 104 37.2548 104 24C104 10.7452 93.2548 0 80 0C66.7452 0 56 10.7452 56 24C56 37.2548 66.7452 48 80 48Z" fill="white"/>
<path id="Path_2" fill-rule="evenodd" clip-rule="evenodd" d="M81.025 13L78.178 15.828L84.354 22.004H68V25.996H84.354L78.178 32.172L81.025 35L92 24L81.025 13Z" fill="#DD514C"/>
</g>
</svg>
