<svg xmlns="http://www.w3.org/2000/svg" width="99" height="23" viewBox="0 0 99 23" fill="none">
<path d="M21.7389 22.7389H3.77411C1.69005 22.7389 0 21.0488 0 18.9647V1L5.43471 5.07604V13.53C5.43471 15.6141 7.12476 17.3041 9.20882 17.3041H16.3041L21.7389 22.7389Z" fill="#F2F2F2"/>
<path d="M70.6451 10.1333V18.9647C70.6451 21.0488 68.9551 22.7389 66.871 22.7389H52.6804C50.5963 22.7389 48.9062 21.0488 48.9062 18.9647V4.77411C48.9062 2.69004 50.5963 1 52.6804 1H70.6451L65.2104 6.43471H56.228C55.1856 6.43471 54.341 7.27936 54.341 8.32177V15.4171C54.341 16.4595 55.1856 17.3041 56.228 17.3041H65.2104V13.9074H57.6622L61.4363 10.1333H70.6451Z" fill="#F2F2F2"/>
<path d="M41.3657 1H27.0241C24.94 1 23.25 2.71948 23.25 4.84053V18.8976C23.25 21.0186 24.94 22.7381 27.0241 22.7381H41.3657C43.4498 22.7381 45.1398 21.0186 45.1398 18.8976V4.84053C45.1398 2.71948 43.4498 1 41.3657 1ZM39.7806 15.6647C39.7806 16.7252 38.9359 17.5849 37.8935 17.5849H30.537C29.4946 17.5849 28.65 16.7252 28.65 15.6647V8.4516C28.65 7.39107 29.4946 6.53133 30.537 6.53133H37.8935C38.9359 6.53133 39.7806 7.39107 39.7806 8.4516V15.6647Z" fill="#F2F2F2"/>
<path d="M90.8863 22.8467H97.7217L91.0527 12.4216H84.6137L90.8863 22.8467Z" stroke="url(#paint0_linear_1854_6641)" stroke-width="0.30662"/>
<path d="M90.8664 1.07666H97.7217L90.9948 11.6551H84.537L90.8664 1.07666Z" stroke="url(#paint1_linear_1854_6641)" stroke-width="0.30662"/>
<mask id="path-6-inside-1_1854_6641" fill="white">
<path fill-rule="evenodd" clip-rule="evenodd" d="M75.6455 1H82.494L88.8302 11.8084H82.3788L75.6455 1ZM83.1796 22.9236H75.6455L82.3724 12.2686H88.8302L83.1796 22.9236Z"/>
</mask>
<path fill-rule="evenodd" clip-rule="evenodd" d="M75.6455 1H82.494L88.8302 11.8084H82.3788L75.6455 1ZM83.1796 22.9236H75.6455L82.3724 12.2686H88.8302L83.1796 22.9236Z" fill="url(#paint2_linear_1854_6641)"/>
<path d="M82.494 1L82.5601 0.961233L82.5379 0.923345H82.494V1ZM75.6455 1V0.923345H75.5074L75.5804 1.04053L75.6455 1ZM88.8302 11.8084V11.885H88.964L88.8963 11.7696L88.8302 11.8084ZM82.3788 11.8084L82.3137 11.8489L82.3362 11.885H82.3788V11.8084ZM75.6455 22.9236L75.5807 22.8827L75.5065 23.0003H75.6455V22.9236ZM83.1796 22.9236V23.0003H83.2257L83.2473 22.9595L83.1796 22.9236ZM82.3724 12.2686V12.1919H82.3301L82.3076 12.2276L82.3724 12.2686ZM88.8302 12.2686L88.8979 12.3045L88.9576 12.1919H88.8302V12.2686ZM82.494 0.923345H75.6455V1.07666H82.494V0.923345ZM88.8963 11.7696L82.5601 0.961233L82.4279 1.03877L88.764 11.8471L88.8963 11.7696ZM82.3788 11.885H88.8302V11.7317H82.3788V11.885ZM75.5804 1.04053L82.3137 11.8489L82.4438 11.7678L75.7106 0.959468L75.5804 1.04053ZM75.6455 23.0003H83.1796V22.847H75.6455V23.0003ZM82.3076 12.2276L75.5807 22.8827L75.7103 22.9645L82.4372 12.3095L82.3076 12.2276ZM88.8302 12.1919H82.3724V12.3452H88.8302V12.1919ZM83.2473 22.9595L88.8979 12.3045L88.7625 12.2326L83.1119 22.8877L83.2473 22.9595Z" fill="url(#paint3_linear_1854_6641)" mask="url(#path-6-inside-1_1854_6641)"/>
<defs>
<linearGradient id="paint0_linear_1854_6641" x1="84.2528" y1="17.5458" x2="97.7217" y2="17.5458" gradientUnits="userSpaceOnUse">
<stop stop-color="#27F9BB"/>
<stop offset="1" stop-color="#07F2C7"/>
</linearGradient>
<linearGradient id="paint1_linear_1854_6641" x1="84.174" y1="6.45551" x2="97.7217" y2="6.45551" gradientUnits="userSpaceOnUse">
<stop stop-color="#27F9BB"/>
<stop offset="1" stop-color="#07F2C7"/>
</linearGradient>
<linearGradient id="paint2_linear_1854_6641" x1="89.1932" y1="12.1476" x2="75.6455" y2="12.1476" gradientUnits="userSpaceOnUse">
<stop stop-color="#27F9BB"/>
<stop offset="1" stop-color="#07F2C7"/>
</linearGradient>
<linearGradient id="paint3_linear_1854_6641" x1="89.1932" y1="12.1476" x2="75.6455" y2="12.1476" gradientUnits="userSpaceOnUse">
<stop stop-color="#27F9BB"/>
<stop offset="1" stop-color="#07F2C7"/>
</linearGradient>
</defs>
</svg>