<svg width="170" height="170" viewBox="0 0 170 170" fill="none" xmlns="http://www.w3.org/2000/svg">
<path d="M166 85C166 129.735 129.735 166 85 166C40.2649 166 4 129.735 4 85C4 40.2649 40.2649 4 85 4C129.735 4 166 40.2649 166 85Z" stroke="#8B95C6" stroke-width="8"/>
<path d="M49.1651 7.90057L52.5417 15.1531C25.5963 27.6983 8 54.7527 8 85C8 127.526 42.4741 162 85 162C127.526 162 162 127.526 162 85C162 42.4741 127.526 8 85 8V0C131.944 0 170 38.0558 170 85C170 131.944 131.944 170 85 170C38.0558 170 0 131.944 0 85C0 50.8591 20.1282 21.4195 49.1651 7.90057Z" fill="#F9C65E"/>
</svg>
