<svg width="170" height="170" viewBox="0 0 170 170" fill="none" xmlns="http://www.w3.org/2000/svg">
<path d="M166 85C166 129.735 129.735 166 85 166C40.2649 166 4 129.735 4 85C4 40.2649 40.2649 4 85 4C129.735 4 166 40.2649 166 85Z" stroke="#8B95C6" stroke-width="8"/>
<path d="M0.619141 95.3144L8.56124 94.3537C13.2091 132.776 45.9537 162 84.9997 162C127.526 162 162 127.526 162 85C162 42.4741 127.526 8 84.9997 8V0C131.944 0 170 38.0558 170 85C170 131.944 131.944 170 84.9997 170C41.5468 170 5.70935 137.394 0.619141 95.3144Z" fill="#F9C65E"/>
</svg>
