<svg width="170" height="170" viewBox="0 0 170 170" fill="none" xmlns="http://www.w3.org/2000/svg">
<path d="M166 85C166 129.735 129.735 166 85 166C40.2649 166 4 129.735 4 85C4 40.2649 40.2649 4 85 4C129.735 4 166 40.2649 166 85Z" stroke="#8B95C6" stroke-width="8"/>
<path d="M16.4657 34.7106L22.9118 39.4486C13.2755 52.5589 8 68.3706 8 85C8 127.526 42.4741 162 85 162C127.526 162 162 127.526 162 85C162 42.4741 127.526 8 85 8V0C131.944 0 170 38.0558 170 85C170 131.944 131.944 170 85 170C38.0558 170 0 131.944 0 85C0 66.1825 6.11478 48.7932 16.4657 34.7106Z" fill="#F9C65E"/>
</svg>
