<svg width="72" height="54" viewBox="0 0 72 54" fill="none" xmlns="http://www.w3.org/2000/svg">
<path fill-rule="evenodd" clip-rule="evenodd" d="M3 54C21.324 50.382 33 34.248 33 18.825C33 6.915 24.642 0 15.597 0C7.752 0 0 5.391 0 14.937C0 22.743 5.715 29.208 13.188 30.384C12.537 36.396 6.693 45.117 0.048 47.622L3 54ZM42 54C60.324 50.382 72 34.248 72 18.825C72 6.915 63.642 0 54.597 0C46.752 0 39 5.391 39 14.937C39 22.743 44.715 29.208 52.188 30.384C51.537 36.396 45.693 45.117 39.048 47.622L42 54Z" fill="#DD514C"/>
</svg>
