<svg width="48" height="48" viewBox="0 0 48 48" fill="none" xmlns="http://www.w3.org/2000/svg">
<path d="M47.5 24C47.5 36.9787 36.9787 47.5 24 47.5C11.0213 47.5 0.5 36.9787 0.5 24C0.5 11.0213 11.0213 0.5 24 0.5C36.9787 0.5 47.5 11.0213 47.5 24Z" stroke="#333333" stroke-opacity="0.295431"/>
<path fill-rule="evenodd" clip-rule="evenodd" d="M29.545 17L24 13L18.455 17L12 13V31L18.455 35L24 31L29.545 35L36 31V13L29.545 17ZM19 19.073L23 16.187V29.255L19 32.14V19.073ZM30 32.366L34 29.887V16.592L30 19.071V32.366Z" fill="#333333"/>
</svg>
