<svg width="1440" height="480" viewBox="0 0 1440 480" fill="none" xmlns="http://www.w3.org/2000/svg">
<rect width="1440" height="480" fill="#D8D8D8"/>
<mask id="mask0_960_13716" style="mask-type:luminance" maskUnits="userSpaceOnUse" x="0" y="0" width="1440" height="480">
<rect width="1440" height="480" fill="white"/>
</mask>
<g mask="url(#mask0_960_13716)">
<path d="M1235 -387.508L1217.2 -389.542L1202.71 -395.644L1177.67 -415.636L1160.76 -424.895L1147.14 -427L1131.31 -420.311L1095.67 -402.66L1069.61 -388.273L1045.48 -372.255L1034.65 -357.561L1023.47 -342.396L983.79 -256.429L959.006 -211.705L917.984 -140.617L900.173 -69.1041L891.901 -36.1118L882.735 -25.8205L872.038 8.00833L862.766 22.4115L841.252 62.693L812.508 82.1862L784.683 84.1156L767.248 82.3582L734.829 79.0998L699.894 76.1213L662.92 82.3278L605.171 95.9349L580.718 102.135L562.583 105.093L471.958 107.42L366.021 107.973L323.943 108.722L303.084 112.824L282.721 122.194L247 145" stroke="white" stroke-width="4.8" stroke-linecap="round" stroke-linejoin="round"/>
<path d="M1146.97 193L1233.2 260.621L1249.09 272.06L1276.3 296.479L1279.33 313.951L1279.78 345.105L1280 405.908L1278.41 415.374L1271.21 425.928L1259.74 433.628L1246.63 437.922L1186.04 439L1171.71 435.749L1159.77 429.327L1153.76 420.732L1147.3 403.976L1140.47 385.033L1127.59 372.867L1101.06 350.515L1049 309.512" stroke="white" stroke-width="4.8" stroke-linecap="round" stroke-linejoin="round"/>
<path d="M1558 -533L1322.76 -529.957L1296.95 -520.925L1276.73 -507.334L1258.3 -485.258L1246.33 -444.621L1234.48 -395.019L1225.84 -358.146L1188.92 -289.651L1181.96 -270.052L1159.7 -199.811L1142.45 -172.386L1121.54 -152.961L1103.62 -140.392L1073.14 -107.182L1060.47 -70.058L1047.67 -7.44867L1041.1 7.02979L1033.07 18.4182L1021.01 32.5146L964.635 98.6463L940.586 128.582L824.118 265.309L804.357 288.508L777.968 313.712L756.248 324.229L545.212 329.42L405.748 330L353.734 326.447L334.69 316.349L315.461 302.893L299.174 282L266.137 162.955L252.61 134.078L231.387 111.566L210.122 101.847L163.789 94.1217L127.051 85.5453L99.0488 63.4991L90.8037 50.2574L82.3137 33.4597L70.7384 -33.5903L62.7101 -67.7253L62 -107.977L77.1364 -172.215L106.559 -283.183L131.865 -379.87L146.071 -430.749L153.189 -458.6L157.391 -477.858" stroke="white" stroke-width="4.8" stroke-linecap="round" stroke-linejoin="round"/>
<path d="M554.133 177L555 213.864L554 239.839L553.4 248.981L541.612 282.005L539 292.376L539.979 331" stroke="white" stroke-width="4.8" stroke-linecap="round" stroke-linejoin="round"/>
<path d="M848 52L873.87 72.3757L941 129" stroke="white" stroke-width="4.8" stroke-linecap="round" stroke-linejoin="round"/>
<path d="M570 206L424.724 206.77L411.346 212.328L405.055 218.842L401.613 227.284L401 246.69L402.587 330" stroke="white" stroke-width="4.8" stroke-linecap="round" stroke-linejoin="round"/>
<path d="M1158 -40L1139.1 47.5211L1134.3 58.2726L1038.6 169.253L922.926 300.551L896 331" stroke="white" stroke-width="4.8" stroke-linecap="round" stroke-linejoin="round"/>
<path d="M987 362L995.581 375.474L1007.83 402.133L1019.18 423.327L1028.18 432.582L1040.02 439L1095 436.087" stroke="white" stroke-width="4.8" stroke-linecap="round" stroke-linejoin="round"/>
<path d="M1219 116L1280 177" stroke="white" stroke-width="4.8" stroke-linecap="round" stroke-linejoin="round"/>
<path d="M1054.05 -56L1154.57 -37.8751L1190.35 -31.9649L1208.35 -22.6116L1218.4 -13.3118L1227.52 -1.83911L1232.61 13.8388L1234.68 27.1534L1235 50.296L1233.95 81.3444L1229.26 97.6608L1210.14 124.046L1143.85 199.257L1048.33 312.362L1005.3 360.503L990.289 370.518L966.294 376L949.366 374.335L931.676 367.947L895.877 340.018L819 278.502" stroke="white" stroke-width="4.8" stroke-linecap="round" stroke-linejoin="round"/>
</g>
<path fill-rule="evenodd" clip-rule="evenodd" d="M704 183.204C704 174.806 711.604 168 720 168C728.398 168 736 174.806 736 183.204C736 189.145 733.112 192.558 729.736 196.55C726.015 200.947 721.701 206.046 720 216C718.299 206.046 713.985 200.947 710.264 196.55C706.888 192.558 704 189.145 704 183.204ZM714 184C714 187.314 716.686 190 720 190C723.314 190 726 187.314 726 184C726 180.686 723.316 178 720 178C716.684 178 714 180.686 714 184Z" fill="#333333"/>
</svg>
