<svg width="1440" height="880" viewBox="0 0 1440 880" fill="none" xmlns="http://www.w3.org/2000/svg">
<rect width="1440" height="880" fill="url(#paint0_linear_458_15073)"/>
<path opacity="0.303246" fill-rule="evenodd" clip-rule="evenodd" d="M99 192C99 194.209 97.2091 196 95 196C92.7909 196 91 194.209 91 192C91 189.791 92.7909 188 95 188C97.2091 188 99 189.791 99 192ZM123 192C123 194.209 121.209 196 119 196C116.791 196 115 194.209 115 192C115 189.791 116.791 188 119 188C121.209 188 123 189.791 123 192ZM143 196C145.209 196 147 194.209 147 192C147 189.791 145.209 188 143 188C140.791 188 139 189.791 139 192C139 194.209 140.791 196 143 196ZM171 192C171 194.209 169.209 196 167 196C164.791 196 163 194.209 163 192C163 189.791 164.791 188 167 188C169.209 188 171 189.791 171 192ZM191 196C193.209 196 195 194.209 195 192C195 189.791 193.209 188 191 188C188.791 188 187 189.791 187 192C187 194.209 188.791 196 191 196ZM219 192C219 194.209 217.209 196 215 196C212.791 196 211 194.209 211 192C211 189.791 212.791 188 215 188C217.209 188 219 189.791 219 192ZM239 196C241.209 196 243 194.209 243 192C243 189.791 241.209 188 239 188C236.791 188 235 189.791 235 192C235 194.209 236.791 196 239 196ZM267 192C267 194.209 265.209 196 263 196C260.791 196 259 194.209 259 192C259 189.791 260.791 188 263 188C265.209 188 267 189.791 267 192ZM95 220C97.2091 220 99 218.209 99 216C99 213.791 97.2091 212 95 212C92.7909 212 91 213.791 91 216C91 218.209 92.7909 220 95 220ZM123 216C123 218.209 121.209 220 119 220C116.791 220 115 218.209 115 216C115 213.791 116.791 212 119 212C121.209 212 123 213.791 123 216ZM143 220C145.209 220 147 218.209 147 216C147 213.791 145.209 212 143 212C140.791 212 139 213.791 139 216C139 218.209 140.791 220 143 220ZM171 216C171 218.209 169.209 220 167 220C164.791 220 163 218.209 163 216C163 213.791 164.791 212 167 212C169.209 212 171 213.791 171 216ZM191 220C193.209 220 195 218.209 195 216C195 213.791 193.209 212 191 212C188.791 212 187 213.791 187 216C187 218.209 188.791 220 191 220ZM219 216C219 218.209 217.209 220 215 220C212.791 220 211 218.209 211 216C211 213.791 212.791 212 215 212C217.209 212 219 213.791 219 216ZM239 220C241.209 220 243 218.209 243 216C243 213.791 241.209 212 239 212C236.791 212 235 213.791 235 216C235 218.209 236.791 220 239 220ZM267 216C267 218.209 265.209 220 263 220C260.791 220 259 218.209 259 216C259 213.791 260.791 212 263 212C265.209 212 267 213.791 267 216ZM95 244C97.2091 244 99 242.209 99 240C99 237.791 97.2091 236 95 236C92.7909 236 91 237.791 91 240C91 242.209 92.7909 244 95 244ZM123 240C123 242.209 121.209 244 119 244C116.791 244 115 242.209 115 240C115 237.791 116.791 236 119 236C121.209 236 123 237.791 123 240ZM143 244C145.209 244 147 242.209 147 240C147 237.791 145.209 236 143 236C140.791 236 139 237.791 139 240C139 242.209 140.791 244 143 244ZM171 240C171 242.209 169.209 244 167 244C164.791 244 163 242.209 163 240C163 237.791 164.791 236 167 236C169.209 236 171 237.791 171 240ZM191 244C193.209 244 195 242.209 195 240C195 237.791 193.209 236 191 236C188.791 236 187 237.791 187 240C187 242.209 188.791 244 191 244ZM219 240C219 242.209 217.209 244 215 244C212.791 244 211 242.209 211 240C211 237.791 212.791 236 215 236C217.209 236 219 237.791 219 240ZM239 244C241.209 244 243 242.209 243 240C243 237.791 241.209 236 239 236C236.791 236 235 237.791 235 240C235 242.209 236.791 244 239 244ZM267 240C267 242.209 265.209 244 263 244C260.791 244 259 242.209 259 240C259 237.791 260.791 236 263 236C265.209 236 267 237.791 267 240ZM95 268C97.2091 268 99 266.209 99 264C99 261.791 97.2091 260 95 260C92.7909 260 91 261.791 91 264C91 266.209 92.7909 268 95 268ZM123 264C123 266.209 121.209 268 119 268C116.791 268 115 266.209 115 264C115 261.791 116.791 260 119 260C121.209 260 123 261.791 123 264ZM143 268C145.209 268 147 266.209 147 264C147 261.791 145.209 260 143 260C140.791 260 139 261.791 139 264C139 266.209 140.791 268 143 268ZM171 264C171 266.209 169.209 268 167 268C164.791 268 163 266.209 163 264C163 261.791 164.791 260 167 260C169.209 260 171 261.791 171 264ZM191 268C193.209 268 195 266.209 195 264C195 261.791 193.209 260 191 260C188.791 260 187 261.791 187 264C187 266.209 188.791 268 191 268ZM219 264C219 266.209 217.209 268 215 268C212.791 268 211 266.209 211 264C211 261.791 212.791 260 215 260C217.209 260 219 261.791 219 264ZM239 268C241.209 268 243 266.209 243 264C243 261.791 241.209 260 239 260C236.791 260 235 261.791 235 264C235 266.209 236.791 268 239 268ZM267 264C267 266.209 265.209 268 263 268C260.791 268 259 266.209 259 264C259 261.791 260.791 260 263 260C265.209 260 267 261.791 267 264ZM95 292C97.2091 292 99 290.209 99 288C99 285.791 97.2091 284 95 284C92.7909 284 91 285.791 91 288C91 290.209 92.7909 292 95 292ZM123 288C123 290.209 121.209 292 119 292C116.791 292 115 290.209 115 288C115 285.791 116.791 284 119 284C121.209 284 123 285.791 123 288ZM143 292C145.209 292 147 290.209 147 288C147 285.791 145.209 284 143 284C140.791 284 139 285.791 139 288C139 290.209 140.791 292 143 292ZM171 288C171 290.209 169.209 292 167 292C164.791 292 163 290.209 163 288C163 285.791 164.791 284 167 284C169.209 284 171 285.791 171 288ZM191 292C193.209 292 195 290.209 195 288C195 285.791 193.209 284 191 284C188.791 284 187 285.791 187 288C187 290.209 188.791 292 191 292ZM219 288C219 290.209 217.209 292 215 292C212.791 292 211 290.209 211 288C211 285.791 212.791 284 215 284C217.209 284 219 285.791 219 288ZM239 292C241.209 292 243 290.209 243 288C243 285.791 241.209 284 239 284C236.791 284 235 285.791 235 288C235 290.209 236.791 292 239 292ZM267 288C267 290.209 265.209 292 263 292C260.791 292 259 290.209 259 288C259 285.791 260.791 284 263 284C265.209 284 267 285.791 267 288ZM95 316C97.2091 316 99 314.209 99 312C99 309.791 97.2091 308 95 308C92.7909 308 91 309.791 91 312C91 314.209 92.7909 316 95 316ZM123 312C123 314.209 121.209 316 119 316C116.791 316 115 314.209 115 312C115 309.791 116.791 308 119 308C121.209 308 123 309.791 123 312ZM143 316C145.209 316 147 314.209 147 312C147 309.791 145.209 308 143 308C140.791 308 139 309.791 139 312C139 314.209 140.791 316 143 316ZM171 312C171 314.209 169.209 316 167 316C164.791 316 163 314.209 163 312C163 309.791 164.791 308 167 308C169.209 308 171 309.791 171 312ZM191 316C193.209 316 195 314.209 195 312C195 309.791 193.209 308 191 308C188.791 308 187 309.791 187 312C187 314.209 188.791 316 191 316ZM219 312C219 314.209 217.209 316 215 316C212.791 316 211 314.209 211 312C211 309.791 212.791 308 215 308C217.209 308 219 309.791 219 312ZM239 316C241.209 316 243 314.209 243 312C243 309.791 241.209 308 239 308C236.791 308 235 309.791 235 312C235 314.209 236.791 316 239 316ZM267 312C267 314.209 265.209 316 263 316C260.791 316 259 314.209 259 312C259 309.791 260.791 308 263 308C265.209 308 267 309.791 267 312ZM95 340C97.2091 340 99 338.209 99 336C99 333.791 97.2091 332 95 332C92.7909 332 91 333.791 91 336C91 338.209 92.7909 340 95 340ZM123 336C123 338.209 121.209 340 119 340C116.791 340 115 338.209 115 336C115 333.791 116.791 332 119 332C121.209 332 123 333.791 123 336ZM143 340C145.209 340 147 338.209 147 336C147 333.791 145.209 332 143 332C140.791 332 139 333.791 139 336C139 338.209 140.791 340 143 340ZM171 336C171 338.209 169.209 340 167 340C164.791 340 163 338.209 163 336C163 333.791 164.791 332 167 332C169.209 332 171 333.791 171 336ZM191 340C193.209 340 195 338.209 195 336C195 333.791 193.209 332 191 332C188.791 332 187 333.791 187 336C187 338.209 188.791 340 191 340ZM219 336C219 338.209 217.209 340 215 340C212.791 340 211 338.209 211 336C211 333.791 212.791 332 215 332C217.209 332 219 333.791 219 336ZM239 340C241.209 340 243 338.209 243 336C243 333.791 241.209 332 239 332C236.791 332 235 333.791 235 336C235 338.209 236.791 340 239 340ZM267 336C267 338.209 265.209 340 263 340C260.791 340 259 338.209 259 336C259 333.791 260.791 332 263 332C265.209 332 267 333.791 267 336ZM95 364C97.2091 364 99 362.209 99 360C99 357.791 97.2091 356 95 356C92.7909 356 91 357.791 91 360C91 362.209 92.7909 364 95 364ZM123 360C123 362.209 121.209 364 119 364C116.791 364 115 362.209 115 360C115 357.791 116.791 356 119 356C121.209 356 123 357.791 123 360ZM143 364C145.209 364 147 362.209 147 360C147 357.791 145.209 356 143 356C140.791 356 139 357.791 139 360C139 362.209 140.791 364 143 364ZM171 360C171 362.209 169.209 364 167 364C164.791 364 163 362.209 163 360C163 357.791 164.791 356 167 356C169.209 356 171 357.791 171 360ZM191 364C193.209 364 195 362.209 195 360C195 357.791 193.209 356 191 356C188.791 356 187 357.791 187 360C187 362.209 188.791 364 191 364ZM219 360C219 362.209 217.209 364 215 364C212.791 364 211 362.209 211 360C211 357.791 212.791 356 215 356C217.209 356 219 357.791 219 360ZM239 364C241.209 364 243 362.209 243 360C243 357.791 241.209 356 239 356C236.791 356 235 357.791 235 360C235 362.209 236.791 364 239 364ZM267 360C267 362.209 265.209 364 263 364C260.791 364 259 362.209 259 360C259 357.791 260.791 356 263 356C265.209 356 267 357.791 267 360Z" fill="white"/>
<defs>
<linearGradient id="paint0_linear_458_15073" x1="-720" y1="440" x2="63.1011" y2="1721.44" gradientUnits="userSpaceOnUse">
<stop stop-color="#CA5EFF"/>
<stop offset="1" stop-color="#004FDE"/>
</linearGradient>
</defs>
</svg>
