<svg width="1440" height="880" viewBox="0 0 1440 880" fill="none" xmlns="http://www.w3.org/2000/svg">
<rect width="1440" height="880" fill="url(#paint0_linear_436_15009)"/>
<path opacity="0.303246" fill-rule="evenodd" clip-rule="evenodd" d="M703 100C703 102.209 701.209 104 699 104C696.791 104 695 102.209 695 100C695 97.7909 696.791 96 699 96C701.209 96 703 97.7909 703 100ZM727 100C727 102.209 725.209 104 723 104C720.791 104 719 102.209 719 100C719 97.7909 720.791 96 723 96C725.209 96 727 97.7909 727 100ZM747 104C749.209 104 751 102.209 751 100C751 97.7909 749.209 96 747 96C744.791 96 743 97.7909 743 100C743 102.209 744.791 104 747 104ZM775 100C775 102.209 773.209 104 771 104C768.791 104 767 102.209 767 100C767 97.7909 768.791 96 771 96C773.209 96 775 97.7909 775 100ZM795 104C797.209 104 799 102.209 799 100C799 97.7909 797.209 96 795 96C792.791 96 791 97.7909 791 100C791 102.209 792.791 104 795 104ZM823 100C823 102.209 821.209 104 819 104C816.791 104 815 102.209 815 100C815 97.7909 816.791 96 819 96C821.209 96 823 97.7909 823 100ZM843 104C845.209 104 847 102.209 847 100C847 97.7909 845.209 96 843 96C840.791 96 839 97.7909 839 100C839 102.209 840.791 104 843 104ZM871 100C871 102.209 869.209 104 867 104C864.791 104 863 102.209 863 100C863 97.7909 864.791 96 867 96C869.209 96 871 97.7909 871 100ZM699 128C701.209 128 703 126.209 703 124C703 121.791 701.209 120 699 120C696.791 120 695 121.791 695 124C695 126.209 696.791 128 699 128ZM727 124C727 126.209 725.209 128 723 128C720.791 128 719 126.209 719 124C719 121.791 720.791 120 723 120C725.209 120 727 121.791 727 124ZM747 128C749.209 128 751 126.209 751 124C751 121.791 749.209 120 747 120C744.791 120 743 121.791 743 124C743 126.209 744.791 128 747 128ZM775 124C775 126.209 773.209 128 771 128C768.791 128 767 126.209 767 124C767 121.791 768.791 120 771 120C773.209 120 775 121.791 775 124ZM795 128C797.209 128 799 126.209 799 124C799 121.791 797.209 120 795 120C792.791 120 791 121.791 791 124C791 126.209 792.791 128 795 128ZM823 124C823 126.209 821.209 128 819 128C816.791 128 815 126.209 815 124C815 121.791 816.791 120 819 120C821.209 120 823 121.791 823 124ZM843 128C845.209 128 847 126.209 847 124C847 121.791 845.209 120 843 120C840.791 120 839 121.791 839 124C839 126.209 840.791 128 843 128ZM871 124C871 126.209 869.209 128 867 128C864.791 128 863 126.209 863 124C863 121.791 864.791 120 867 120C869.209 120 871 121.791 871 124ZM699 152C701.209 152 703 150.209 703 148C703 145.791 701.209 144 699 144C696.791 144 695 145.791 695 148C695 150.209 696.791 152 699 152ZM727 148C727 150.209 725.209 152 723 152C720.791 152 719 150.209 719 148C719 145.791 720.791 144 723 144C725.209 144 727 145.791 727 148ZM747 152C749.209 152 751 150.209 751 148C751 145.791 749.209 144 747 144C744.791 144 743 145.791 743 148C743 150.209 744.791 152 747 152ZM775 148C775 150.209 773.209 152 771 152C768.791 152 767 150.209 767 148C767 145.791 768.791 144 771 144C773.209 144 775 145.791 775 148ZM795 152C797.209 152 799 150.209 799 148C799 145.791 797.209 144 795 144C792.791 144 791 145.791 791 148C791 150.209 792.791 152 795 152ZM823 148C823 150.209 821.209 152 819 152C816.791 152 815 150.209 815 148C815 145.791 816.791 144 819 144C821.209 144 823 145.791 823 148ZM843 152C845.209 152 847 150.209 847 148C847 145.791 845.209 144 843 144C840.791 144 839 145.791 839 148C839 150.209 840.791 152 843 152ZM871 148C871 150.209 869.209 152 867 152C864.791 152 863 150.209 863 148C863 145.791 864.791 144 867 144C869.209 144 871 145.791 871 148ZM699 176C701.209 176 703 174.209 703 172C703 169.791 701.209 168 699 168C696.791 168 695 169.791 695 172C695 174.209 696.791 176 699 176ZM727 172C727 174.209 725.209 176 723 176C720.791 176 719 174.209 719 172C719 169.791 720.791 168 723 168C725.209 168 727 169.791 727 172ZM747 176C749.209 176 751 174.209 751 172C751 169.791 749.209 168 747 168C744.791 168 743 169.791 743 172C743 174.209 744.791 176 747 176ZM775 172C775 174.209 773.209 176 771 176C768.791 176 767 174.209 767 172C767 169.791 768.791 168 771 168C773.209 168 775 169.791 775 172ZM795 176C797.209 176 799 174.209 799 172C799 169.791 797.209 168 795 168C792.791 168 791 169.791 791 172C791 174.209 792.791 176 795 176ZM823 172C823 174.209 821.209 176 819 176C816.791 176 815 174.209 815 172C815 169.791 816.791 168 819 168C821.209 168 823 169.791 823 172ZM843 176C845.209 176 847 174.209 847 172C847 169.791 845.209 168 843 168C840.791 168 839 169.791 839 172C839 174.209 840.791 176 843 176ZM871 172C871 174.209 869.209 176 867 176C864.791 176 863 174.209 863 172C863 169.791 864.791 168 867 168C869.209 168 871 169.791 871 172ZM699 200C701.209 200 703 198.209 703 196C703 193.791 701.209 192 699 192C696.791 192 695 193.791 695 196C695 198.209 696.791 200 699 200ZM727 196C727 198.209 725.209 200 723 200C720.791 200 719 198.209 719 196C719 193.791 720.791 192 723 192C725.209 192 727 193.791 727 196ZM747 200C749.209 200 751 198.209 751 196C751 193.791 749.209 192 747 192C744.791 192 743 193.791 743 196C743 198.209 744.791 200 747 200ZM775 196C775 198.209 773.209 200 771 200C768.791 200 767 198.209 767 196C767 193.791 768.791 192 771 192C773.209 192 775 193.791 775 196ZM795 200C797.209 200 799 198.209 799 196C799 193.791 797.209 192 795 192C792.791 192 791 193.791 791 196C791 198.209 792.791 200 795 200ZM823 196C823 198.209 821.209 200 819 200C816.791 200 815 198.209 815 196C815 193.791 816.791 192 819 192C821.209 192 823 193.791 823 196ZM843 200C845.209 200 847 198.209 847 196C847 193.791 845.209 192 843 192C840.791 192 839 193.791 839 196C839 198.209 840.791 200 843 200ZM871 196C871 198.209 869.209 200 867 200C864.791 200 863 198.209 863 196C863 193.791 864.791 192 867 192C869.209 192 871 193.791 871 196ZM699 224C701.209 224 703 222.209 703 220C703 217.791 701.209 216 699 216C696.791 216 695 217.791 695 220C695 222.209 696.791 224 699 224ZM727 220C727 222.209 725.209 224 723 224C720.791 224 719 222.209 719 220C719 217.791 720.791 216 723 216C725.209 216 727 217.791 727 220ZM747 224C749.209 224 751 222.209 751 220C751 217.791 749.209 216 747 216C744.791 216 743 217.791 743 220C743 222.209 744.791 224 747 224ZM775 220C775 222.209 773.209 224 771 224C768.791 224 767 222.209 767 220C767 217.791 768.791 216 771 216C773.209 216 775 217.791 775 220ZM795 224C797.209 224 799 222.209 799 220C799 217.791 797.209 216 795 216C792.791 216 791 217.791 791 220C791 222.209 792.791 224 795 224ZM823 220C823 222.209 821.209 224 819 224C816.791 224 815 222.209 815 220C815 217.791 816.791 216 819 216C821.209 216 823 217.791 823 220ZM843 224C845.209 224 847 222.209 847 220C847 217.791 845.209 216 843 216C840.791 216 839 217.791 839 220C839 222.209 840.791 224 843 224ZM871 220C871 222.209 869.209 224 867 224C864.791 224 863 222.209 863 220C863 217.791 864.791 216 867 216C869.209 216 871 217.791 871 220ZM699 248C701.209 248 703 246.209 703 244C703 241.791 701.209 240 699 240C696.791 240 695 241.791 695 244C695 246.209 696.791 248 699 248ZM727 244C727 246.209 725.209 248 723 248C720.791 248 719 246.209 719 244C719 241.791 720.791 240 723 240C725.209 240 727 241.791 727 244ZM747 248C749.209 248 751 246.209 751 244C751 241.791 749.209 240 747 240C744.791 240 743 241.791 743 244C743 246.209 744.791 248 747 248ZM775 244C775 246.209 773.209 248 771 248C768.791 248 767 246.209 767 244C767 241.791 768.791 240 771 240C773.209 240 775 241.791 775 244ZM795 248C797.209 248 799 246.209 799 244C799 241.791 797.209 240 795 240C792.791 240 791 241.791 791 244C791 246.209 792.791 248 795 248ZM823 244C823 246.209 821.209 248 819 248C816.791 248 815 246.209 815 244C815 241.791 816.791 240 819 240C821.209 240 823 241.791 823 244ZM843 248C845.209 248 847 246.209 847 244C847 241.791 845.209 240 843 240C840.791 240 839 241.791 839 244C839 246.209 840.791 248 843 248ZM871 244C871 246.209 869.209 248 867 248C864.791 248 863 246.209 863 244C863 241.791 864.791 240 867 240C869.209 240 871 241.791 871 244ZM699 272C701.209 272 703 270.209 703 268C703 265.791 701.209 264 699 264C696.791 264 695 265.791 695 268C695 270.209 696.791 272 699 272ZM727 268C727 270.209 725.209 272 723 272C720.791 272 719 270.209 719 268C719 265.791 720.791 264 723 264C725.209 264 727 265.791 727 268ZM747 272C749.209 272 751 270.209 751 268C751 265.791 749.209 264 747 264C744.791 264 743 265.791 743 268C743 270.209 744.791 272 747 272ZM775 268C775 270.209 773.209 272 771 272C768.791 272 767 270.209 767 268C767 265.791 768.791 264 771 264C773.209 264 775 265.791 775 268ZM795 272C797.209 272 799 270.209 799 268C799 265.791 797.209 264 795 264C792.791 264 791 265.791 791 268C791 270.209 792.791 272 795 272ZM823 268C823 270.209 821.209 272 819 272C816.791 272 815 270.209 815 268C815 265.791 816.791 264 819 264C821.209 264 823 265.791 823 268ZM843 272C845.209 272 847 270.209 847 268C847 265.791 845.209 264 843 264C840.791 264 839 265.791 839 268C839 270.209 840.791 272 843 272ZM871 268C871 270.209 869.209 272 867 272C864.791 272 863 270.209 863 268C863 265.791 864.791 264 867 264C869.209 264 871 265.791 871 268Z" fill="white"/>
<defs>
<linearGradient id="paint0_linear_436_15009" x1="-720" y1="440" x2="63.1011" y2="1721.44" gradientUnits="userSpaceOnUse">
<stop stop-color="#CA5EFF"/>
<stop offset="1" stop-color="#004FDE"/>
</linearGradient>
</defs>
</svg>
