<svg width="20" height="20" viewBox="0 0 20 20" fill="none" xmlns="http://www.w3.org/2000/svg">
<path fill-rule="evenodd" clip-rule="evenodd" d="M19.554 0H0.442049C0.198922 0 0 0.198868 0 0.442049V19.5539C0 19.7971 0.198922 19.9959 0.442049 19.9959H19.5539C19.7971 19.9959 19.9959 19.7971 19.9959 19.5539V0.442049C19.996 0.198922 19.797 0 19.554 0ZM7.88712 13.7327L4.84081 16.7712C4.71865 16.8934 4.71865 17.0932 4.84081 17.2152L5.53181 17.9062C5.65402 18.0284 5.61305 18.1394 5.44081 18.153L1.85348 18.4367C1.68135 18.4503 1.55154 18.3205 1.56518 18.1483L1.84879 14.561C1.86243 14.3888 1.97348 14.3478 2.09558 14.47L2.78663 15.1609C2.90879 15.2831 3.10863 15.2831 3.23073 15.1609L6.27709 12.1225C6.39925 12.0003 6.59908 12.0003 6.72119 12.1225L7.88706 13.2884C8.00922 13.4108 8.00922 13.6106 7.88712 13.7327ZM6.72124 7.94992L7.88712 6.78404C8.00922 6.66189 8.00922 6.46205 7.88717 6.33984L4.84086 3.30135C4.71871 3.17925 4.71871 2.97941 4.84086 2.8572L5.53186 2.1662C5.65407 2.0441 5.6131 1.93299 5.44086 1.91941L1.85353 1.6358C1.68135 1.62216 1.55159 1.75197 1.56523 1.9241L1.84884 5.51148C1.86248 5.68367 1.97353 5.72464 2.09563 5.60248L2.78668 4.91148C2.90879 4.78933 3.10863 4.78933 3.23078 4.91148L6.27714 7.94992C6.39925 8.07213 6.59908 8.07213 6.72124 7.94992ZM18.1425 18.4368L14.5552 18.1532C14.383 18.1396 14.342 18.0285 14.4642 17.9064L15.1552 17.2154C15.2774 17.0932 15.2774 16.8934 15.1552 16.7714L12.1089 13.7329C11.9867 13.6106 11.9867 13.4108 12.1089 13.2888L13.2748 12.1229C13.3969 12.0007 13.5968 12.0007 13.7189 12.1229L16.7652 15.1613C16.8874 15.2835 17.0872 15.2835 17.2093 15.1613L17.9002 14.4704C18.0225 14.3481 18.1334 14.3892 18.1471 14.5613L18.4307 18.1486C18.4445 18.3207 18.3147 18.4505 18.1425 18.4368ZM17.9004 5.60248C18.0226 5.72458 18.1336 5.68361 18.1472 5.51148L18.431 1.9242C18.4446 1.75202 18.3148 1.62226 18.1427 1.6359L14.5554 1.91951C14.3831 1.9331 14.3422 2.04415 14.4644 2.16631L15.1554 2.8573C15.2775 2.97946 15.2775 3.1793 15.1554 3.30146L12.1091 6.33995C11.9869 6.46205 11.9869 6.66189 12.1091 6.78404L13.2749 7.94992C13.3969 8.07213 13.5968 8.07213 13.719 7.94992L16.7654 4.91148C16.8874 4.78933 17.0872 4.78933 17.2095 4.91148L17.9004 5.60248Z" fill="#CECECE"/>
</svg>
