<svg width="24" height="24" viewBox="0 0 24 24" fill="none" xmlns="http://www.w3.org/2000/svg">
<path fill-rule="evenodd" clip-rule="evenodd" d="M17.604 15.441L23.809 21.646L21.455 24L15.217 17.762C13.653 18.833 11.764 19.46 9.73 19.46C4.365 19.46 0 15.096 0 9.73C0 4.365 4.365 0 9.73 0C15.096 0 19.461 4.365 19.461 9.73C19.461 11.862 18.771 13.836 17.604 15.441ZM9.731 2.853C5.939 2.853 2.854 5.938 2.854 9.73C2.854 13.522 5.938 16.607 9.731 16.607C13.523 16.607 16.608 13.522 16.608 9.73C16.608 5.938 13.523 2.853 9.731 2.853Z" fill="#333333"/>
</svg>
