<svg width="128" height="128" viewBox="0 0 128 128" fill="none" xmlns="http://www.w3.org/2000/svg">
<path fill-rule="evenodd" clip-rule="evenodd" d="M117.333 0H113.067V4.26667H108.8V8.53333H113.067L113.067 12.8H117.333V8.53333H121.6V4.26667H117.333V0ZM117.333 4.26667V8.53333H113.067L113.067 4.26667H117.333ZM17.0667 128H4.26667C1.9136 128 0 126.086 0 123.733V76.8C0 74.4469 1.9136 72.5333 4.26667 72.5333H17.0667C19.4197 72.5333 21.3333 74.4469 21.3333 76.8V81.3781C30.7029 75.5925 41.3845 72.5333 52.4864 72.5333H83.2C88.0235 72.5333 92.0619 75.7739 93.3781 80.1749L105.109 75.1467L109.615 66.1333H87.4667H70.4H51.2H27.7333C20.6741 66.1333 14.9333 60.3925 14.9333 53.3333V46.7904C14.9333 36.3435 20.4651 24.8469 24.9941 20.7552L18.5429 8.8448C17.8283 7.53707 17.9712 5.93493 18.9056 4.768C19.8379 3.60107 21.3632 3.1104 22.8075 3.52427L28.96 5.28213L33.0539 1.18827C33.8133 0.4288 34.8651 0.0362667 35.9339 0.1152C37.0048 0.192 37.9861 0.727467 38.6304 1.5872L40.7616 4.43093L44.0064 1.18827C44.7723 0.426667 45.8197 0.0362667 46.8907 0.1152C47.9595 0.192 48.9408 0.7296 49.5829 1.5872L52.1237 4.97493L56.1579 2.95893C57.5509 2.26347 59.1915 2.496 60.3328 3.56267C61.4741 4.6272 61.824 6.2464 61.2245 7.6864L55.8336 20.8619C56.7979 22.0736 57.9989 24.1621 59.6224 27.7333H68.2667V4.26667C68.2667 3.08907 69.2203 2.13333 70.4 2.13333H91.7333C92.9131 2.13333 93.8667 3.08907 93.8667 4.26667V33.2501L98.7584 28.3584C99.5925 27.5243 100.941 27.5243 101.775 28.3584L118.842 45.4251C119.452 46.0352 119.635 46.9525 119.305 47.7504C118.976 48.5461 118.195 49.0667 117.333 49.0667H115.2V58.4853C116.305 57.9221 117.542 57.6 118.842 57.6C121.22 57.6 123.462 58.6453 124.992 60.4672C126.522 62.2891 127.159 64.6784 126.746 67.0208L125.82 72.2645C123.01 88.1792 113.54 102.219 99.8379 110.784C90.7499 116.463 80.2773 119.467 69.5595 119.467H21.3333V123.733C21.3333 126.086 19.4197 128 17.0667 128ZM31.7419 8.5376C30.7947 9.48907 29.4016 9.84747 28.1109 9.4784L22.9376 8L29.0027 19.2H32.8725L30.7883 14.8629L34.6347 13.0133L37.6085 19.2H41.3483L45.024 11.8443L48.8405 13.7536L46.1184 19.2H51.8997L56.7125 7.45173L53.6085 9.0048C52.0021 9.80693 50.0651 9.34613 48.9963 7.91253L46.5621 4.66987L43.3173 7.91253C42.56 8.66987 41.5275 9.05813 40.4437 8.98773C39.3728 8.91307 38.3893 8.37547 37.7429 7.51787L35.6096 4.66987L31.7419 8.5376ZM49.0667 29.8667V61.8667H27.7333C23.0272 61.8667 19.2 58.0395 19.2 53.3333V46.7904C19.2 35.3707 26.2677 24.7211 28.2901 23.4667H52.4544C52.8 23.8848 53.5829 25.0069 54.9077 27.7333H51.2C50.0203 27.7333 49.0667 28.6891 49.0667 29.8667ZM68.2667 32H53.3333V61.8667H68.2667V32ZM100.267 32.8832L112.183 44.8H88.3499L100.267 32.8832ZM89.6 6.4H72.5333V61.8667H85.3333V49.0667H83.2C82.3381 49.0667 81.5573 48.5461 81.2288 47.7504C80.8981 46.9525 81.0816 46.0352 81.6917 45.4251L89.6 37.5168V6.4ZM89.6 49.0667H110.933V61.8667H106.667V53.3333C106.667 52.1557 105.713 51.2 104.533 51.2H96C94.8203 51.2 93.8667 52.1557 93.8667 53.3333V61.8667H89.6V49.0667ZM98.1333 61.8667H102.4V55.4667H98.1333V61.8667ZM52.4864 76.8H83.2C86.7285 76.8 89.6 79.6715 89.6 83.2C89.6 86.7285 86.7285 89.6 83.2 89.6H49.0667V93.8667H83.2C88.5781 93.8667 92.9941 89.8517 93.7173 84.6699L107.505 78.7605C107.97 78.5621 108.35 78.2059 108.574 77.7536L115.477 63.9445C116.122 62.6624 117.408 61.8667 118.842 61.8667C119.955 61.8667 121.007 62.3552 121.724 63.2107C122.441 64.0661 122.741 65.184 122.547 66.2805L121.621 71.5243C119.021 86.2507 110.259 99.2405 97.5765 107.166C89.1669 112.422 79.4795 115.2 69.5595 115.2H21.3333V86.4811C30.5472 80.1621 41.2864 76.8 52.4864 76.8ZM17.0667 76.8H4.26667V123.733H17.0688L17.0667 76.8ZM8.53333 83.2H12.8V89.6H8.53333V83.2ZM78.9333 10.6667H76.8V14.9333H78.9333V10.6667ZM83.2 10.6667H85.3333V14.9333H83.2V10.6667ZM78.9333 19.2H76.8V23.4667H78.9333V19.2ZM83.2 19.2H85.3333V23.4667H83.2V19.2ZM78.9333 27.7333H76.8V32H78.9333V27.7333ZM83.2 27.7333H85.3333V32H83.2V27.7333ZM59.7333 36.2667H57.6V40.5333H59.7333V36.2667ZM64 36.2667H66.1333V40.5333H64V36.2667ZM59.7333 44.8H57.6V49.0667H59.7333V44.8ZM64 44.8H66.1333V49.0667H64V44.8ZM59.7333 53.3333H57.6V57.6H59.7333V53.3333ZM64 53.3333H66.1333V57.6H64V53.3333ZM78.9333 36.2667H76.8V40.5333H78.9333V36.2667ZM83.2 36.2667H85.3333V40.5333H83.2V36.2667ZM40.5333 34.1333H42.6667C43.8464 34.1333 44.8 35.0891 44.8 36.2667V38.4H36.2667V40.5333H42.6667C43.8464 40.5333 44.8 41.4891 44.8 42.6667V49.0667C44.8 50.2443 43.8464 51.2 42.6667 51.2H40.5333V53.3333H36.2667V51.2H34.1333C32.9536 51.2 32 50.2443 32 49.0667V46.9333H40.5333V44.8H34.1333C32.9536 44.8 32 43.8443 32 42.6667V36.2667C32 35.0891 32.9536 34.1333 34.1333 34.1333H36.2667V32H40.5333V34.1333ZM123.733 14.9333H128V19.2H123.733V14.9333ZM113.067 21.3333H108.8V25.6H113.067V21.3333ZM0 19.2H4.26667V23.4667H0V19.2ZM8.53333 23.4667V27.7333H4.26667V23.4667H8.53333ZM8.53333 19.2H12.8V23.4667H8.53333V19.2ZM8.53333 19.2H4.26667V14.9333H8.53333V19.2ZM0 36.2667H4.26667V40.5333H0V36.2667ZM12.8 0H8.53333V4.26667H12.8V0Z" fill="url(#paint0_linear_265_1208)"/>
<defs>
<linearGradient id="paint0_linear_265_1208" x1="-64" y1="64" x2="64" y2="192" gradientUnits="userSpaceOnUse">
<stop stop-color="#CA5EFF"/>
<stop offset="1" stop-color="#004FDE"/>
</linearGradient>
</defs>
</svg>
