<svg width="128" height="128" viewBox="0 0 128 128" fill="none" xmlns="http://www.w3.org/2000/svg">
<path fill-rule="evenodd" clip-rule="evenodd" d="M117.201 123.733H125.867C127.147 123.733 128 124.587 128 125.867C128 127.146 127.147 128 125.867 128H114.56H72.5332H21.3333H14.9333H2.13325C0.85325 128 0 127.146 0 125.866C0 124.586 0.85325 123.733 2.13325 123.733H12.8V2.133C12.8 0.853 13.6532 -0.000249835 14.9338 5.4874e-08H72.5338C73.8138 5.4874e-08 74.667 0.85325 74.667 2.13325V34.1333H106.667C107.947 34.1333 108.8 34.9865 108.8 36.2665V108.079C113.868 110.453 117.334 115.578 117.334 121.6C117.334 122.316 117.293 123.032 117.201 123.733ZM102.4 106.666C103.126 106.666 103.837 106.72 104.533 106.817V38.3997H72.5332H61.8665V106.213C63.52 105.242 65.4295 104.693 67.373 104.564L67.4008 104.562L67.4423 104.56C67.4599 104.559 67.4775 104.558 67.495 104.557L67.5413 104.554C67.6271 104.549 67.713 104.544 67.799 104.541C67.954 104.536 68.1097 104.533 68.2668 104.533C68.4697 104.533 68.6725 104.538 68.8753 104.548C68.9167 104.55 68.958 104.553 68.9992 104.556C69.0323 104.558 69.0654 104.56 69.0985 104.563L69.1773 104.568L69.2062 104.57C69.2905 104.576 69.3749 104.582 69.459 104.59C69.5875 104.602 69.7152 104.617 69.8425 104.632C69.9047 104.64 69.9668 104.648 70.0287 104.657C70.1675 104.676 70.3053 104.697 70.4425 104.721C70.4808 104.727 70.5191 104.735 70.5572 104.742L70.613 104.752C70.7438 104.777 70.8747 104.801 71.0042 104.83C71.164 104.865 71.323 104.904 71.4815 104.944C71.4894 104.946 71.4974 104.948 71.5054 104.95L71.5203 104.954L71.5298 104.956L71.5395 104.958C73.3565 105.433 75.0807 106.296 76.555 107.494C76.7035 107.438 76.8535 107.386 77.0045 107.335C78.2243 106.84 79.7298 106.666 81.0667 106.666C81.5625 106.666 82.0518 106.696 82.5335 106.752C82.7393 106.696 82.9622 106.666 83.2 106.666C83.808 106.666 84.3177 106.86 84.6875 107.2C87.262 107.978 89.539 109.576 91.3067 111.786C91.4105 111.669 91.5165 111.553 91.6243 111.439C92.3065 110.7 93.0583 110.036 93.8668 109.453V108.799C93.8668 107.52 94.72 106.666 96 106.666C96.7462 106.666 97.3455 106.958 97.7173 107.453C99.2097 106.94 100.79 106.666 102.4 106.666ZM17.0672 4.2665H70.4V34.1333H59.7332C58.4533 34.1333 57.6 34.9865 57.6 36.2665V102.613C56.5098 101.523 55.253 100.601 53.8848 99.879C53.764 99.8145 53.642 99.752 53.5195 99.691L53.5012 99.6819L53.4619 99.6622C53.433 99.6477 53.4041 99.6332 53.375 99.6193C51.8525 98.8808 50.1958 98.3962 48.4645 98.215L48.4372 98.2124L48.4274 98.2115L48.3913 98.208C48.1903 98.188 47.9883 98.1722 47.7852 98.1605C47.7315 98.1572 47.6777 98.154 47.6237 98.1513C47.3945 98.1405 47.1645 98.1333 46.9333 98.1333C43.7583 98.1333 40.8167 99.1775 38.4 100.933V100.267C38.4 98.9868 37.5467 98.1335 36.2668 98.1335C34.9868 98.1335 34.1335 98.9868 34.1335 100.267V104.534C34.1335 104.854 34.1867 105.147 34.2868 105.407C33.2393 107.133 32.5175 109.079 32.2135 111.147C29.7575 111.428 27.5117 112.312 25.6003 113.633V113.067C25.6003 111.787 24.747 110.934 23.467 110.934C22.187 110.934 21.3337 111.787 21.3337 113.067V117.334C21.3337 117.583 21.367 117.815 21.4285 118.029C20.3708 119.739 19.651 121.675 19.3545 123.734H17.0672V4.2665ZM33.29 115.234L33.2422 115.238C33.2156 115.24 33.1889 115.242 33.1625 115.244C28.481 115.669 24.6785 119.14 23.68 123.733H69.0023C68.514 122.372 68.2673 120.95 68.2673 119.467C68.2673 119.246 68.273 119.026 68.2843 118.807C68.452 115.47 69.895 112.351 72.4398 109.958C71.1475 109.203 69.7077 108.8 68.2673 108.8C65.4938 108.8 63.1473 110.08 61.4405 112.213L61.2272 112.426L61.227 112.427L61.2267 112.427C60.871 112.96 60.2188 113.344 59.5175 113.333C59.365 113.338 59.2207 113.322 59.0938 113.28L59.0935 113.28L59.0933 113.279C58.988 113.253 58.886 113.22 58.7882 113.181C58.785 113.18 58.782 113.179 58.7788 113.177C58.6933 113.143 58.6113 113.104 58.5325 113.06C58.5024 113.044 58.4735 113.026 58.4445 113.008L58.4325 113.001C58.4017 112.981 58.3715 112.962 58.342 112.941C57.8735 112.625 57.531 112.15 57.3867 111.573C56.7467 106.24 52.2668 102.399 46.9335 102.399C40.96 102.399 36.2668 107.093 36.2668 113.066C36.2668 114.346 35.4135 115.2 34.1335 115.2C33.964 115.2 33.7957 115.204 33.6285 115.212C33.515 115.217 33.4025 115.226 33.29 115.234ZM74.0385 123.733C73.2235 122.354 72.7467 120.725 72.7467 119.253C72.7467 116.894 73.6768 114.769 75.2753 113.215C75.5807 112.932 75.9065 112.671 76.2505 112.434C76.5837 112.436 76.919 112.367 77.2268 112.213C81.92 109.653 87.4668 112 89.1735 116.693C89.3867 117.333 90.0267 117.973 91.0935 117.973C91.296 117.973 91.52 117.909 91.745 117.794C92.2803 117.706 92.7035 117.313 93.0135 116.693C93.8402 114.936 95.1202 113.534 96.6783 112.55C97.0145 112.457 97.3032 112.291 97.533 112.065C98.9982 111.329 100.659 110.933 102.4 110.933C108.373 110.933 113.067 115.626 113.067 121.6C113.067 122.24 113.067 123.093 112.854 123.733H74.0385ZM68.2667 57.5998C68.2667 56.3197 69.12 55.4665 70.4 55.4665C71.68 55.4665 72.5332 56.3197 72.5332 57.5998V61.8665C72.5332 63.1465 71.68 63.9997 70.4 63.9997C69.12 63.9997 68.2667 63.1465 68.2667 61.8665V57.5998ZM70.4 93.8665C69.12 93.8665 68.2667 94.7197 68.2667 95.9997V100.267C68.2667 101.547 69.12 102.4 70.4 102.4C71.68 102.4 72.5332 101.547 72.5332 100.267V95.9997C72.5332 94.7197 71.68 93.8665 70.4 93.8665ZM68.2667 70.3997C68.2667 69.1198 69.12 68.2665 70.4 68.2665C71.68 68.2665 72.5332 69.1198 72.5332 70.3997V74.6665C72.5332 75.9465 71.68 76.7998 70.4 76.7998C69.12 76.7998 68.2667 75.9465 68.2667 74.6665V70.3997ZM70.4 81.0665C69.12 81.0665 68.2667 81.9197 68.2667 83.1997V87.4665C68.2667 88.7465 69.12 89.5997 70.4 89.5997C71.68 89.5997 72.5332 88.7465 72.5332 87.4665V83.1997C72.5332 81.9197 71.68 81.0665 70.4 81.0665ZM68.2667 44.7998C68.2667 43.5197 69.12 42.6665 70.4 42.6665C71.68 42.6665 72.5332 43.5197 72.5332 44.7998V49.0665C72.5332 50.3465 71.68 51.1997 70.4 51.1997C69.12 51.1997 68.2667 50.3465 68.2667 49.0665V44.7998ZM83.2 63.9997C84.48 63.9997 85.3333 63.1465 85.3333 61.8665V57.5998C85.3333 56.3197 84.48 55.4665 83.2 55.4665C81.92 55.4665 81.0667 56.3197 81.0667 57.5998V61.8665C81.0667 63.1465 81.92 63.9997 83.2 63.9997ZM85.3333 49.0665C85.3333 50.3465 84.48 51.1997 83.2 51.1997C81.92 51.1997 81.0667 50.3465 81.0667 49.0665V44.7998C81.0667 43.5197 81.92 42.6665 83.2 42.6665C84.48 42.6665 85.3333 43.5197 85.3333 44.7998V49.0665ZM83.2 76.7998C84.48 76.7998 85.3333 75.9465 85.3333 74.6665V70.3997C85.3333 69.1198 84.48 68.2665 83.2 68.2665C81.92 68.2665 81.0667 69.1198 81.0667 70.3997V74.6665C81.0667 75.9465 81.92 76.7998 83.2 76.7998ZM85.3333 87.4665C85.3333 88.7465 84.48 89.5997 83.2 89.5997C81.92 89.5997 81.0667 88.7465 81.0667 87.4665V83.1997C81.0667 81.9197 81.92 81.0665 83.2 81.0665C84.48 81.0665 85.3333 81.9197 85.3333 83.1997V87.4665ZM83.2 102.4C84.48 102.4 85.3333 101.547 85.3333 100.267V95.9997C85.3333 94.7197 84.48 93.8665 83.2 93.8665C81.92 93.8665 81.0667 94.7197 81.0667 95.9997V100.267C81.0667 101.547 81.92 102.4 83.2 102.4ZM98.1333 74.6665C98.1333 75.9465 97.28 76.7998 96 76.7998C94.72 76.7998 93.8668 75.9465 93.8668 74.6665V70.3997C93.8668 69.1198 94.72 68.2665 96 68.2665C97.28 68.2665 98.1333 69.1198 98.1333 70.3997V74.6665ZM96 63.9997C97.28 63.9997 98.1333 63.1465 98.1333 61.8665V57.5998C98.1333 56.3197 97.28 55.4665 96 55.4665C94.72 55.4665 93.8668 56.3197 93.8668 57.5998V61.8665C93.8668 63.1465 94.72 63.9997 96 63.9997ZM98.1333 100.267C98.1333 101.547 97.28 102.4 96 102.4C94.72 102.4 93.8668 101.547 93.8668 100.267V95.9997C93.8668 94.7197 94.72 93.8665 96 93.8665C97.28 93.8665 98.1333 94.7197 98.1333 95.9997V100.267ZM96 89.5997C97.28 89.5997 98.1333 88.7465 98.1333 87.4665V83.1997C98.1333 81.9197 97.28 81.0665 96 81.0665C94.72 81.0665 93.8668 81.9197 93.8668 83.1997V87.4665C93.8668 88.7465 94.72 89.5997 96 89.5997ZM98.1333 49.0665C98.1333 50.3465 97.28 51.1997 96 51.1997C94.72 51.1997 93.8668 50.3465 93.8668 49.0665V44.7998C93.8668 43.5197 94.72 42.6665 96 42.6665C97.28 42.6665 98.1333 43.5197 98.1333 44.7998V49.0665ZM23.4667 81.0665C24.7467 81.0665 25.6 80.2132 25.6 78.9333V74.6665C25.6 73.3865 24.7467 72.5332 23.4667 72.5332C22.1868 72.5332 21.3335 73.3865 21.3335 74.6665V78.9333C21.3333 80.213 22.1868 81.0665 23.4667 81.0665ZM25.6 91.7333C25.6 93.0133 24.7467 93.8665 23.4667 93.8665C22.1868 93.8665 21.3333 93.013 21.3335 91.7333V87.4665C21.3335 86.1865 22.1868 85.3333 23.4667 85.3333C24.7467 85.3333 25.6 86.1865 25.6 87.4665V91.7333ZM23.4667 106.666C24.7467 106.666 25.6 105.813 25.6 104.533V100.266C25.6 98.9865 24.7467 98.1332 23.4667 98.1332C22.1868 98.1332 21.3335 98.9865 21.3335 100.266V104.533C21.3333 105.813 22.1868 106.666 23.4667 106.666ZM25.6 14.9333C25.6 16.2132 24.7467 17.0665 23.4667 17.0665C22.1868 17.0665 21.3333 16.213 21.3335 14.9333V10.6665C21.3335 9.3865 22.1868 8.53325 23.4667 8.53325C24.7467 8.53325 25.6 9.3865 25.6 10.6665V14.9333ZM23.4667 29.8665C24.7467 29.8665 25.6 29.0133 25.6 27.7332V23.4665C25.6 22.1865 24.7467 21.3333 23.4667 21.3333C22.1868 21.3333 21.3335 22.1865 21.3335 23.4665V27.7332C21.3333 29.013 22.1868 29.8665 23.4667 29.8665ZM25.6 40.5333C25.6 41.8133 24.7467 42.6665 23.4667 42.6665C22.1868 42.6665 21.3333 41.813 21.3335 40.5333V36.2665C21.3335 34.9865 22.1868 34.1333 23.4667 34.1333C24.7467 34.1333 25.6 34.9865 25.6 36.2665V40.5333ZM23.4667 55.4665C24.7467 55.4665 25.6 54.6133 25.6 53.3333V49.0665C25.6 47.7865 24.7467 46.9333 23.4667 46.9333C22.1868 46.9333 21.3335 47.7865 21.3335 49.0665V53.3333C21.3333 54.613 22.1868 55.4665 23.4667 55.4665ZM25.6 66.1332C25.6 67.4132 24.7467 68.2665 23.4667 68.2665C22.1868 68.2665 21.3333 67.413 21.3335 66.1332V61.8665C21.3335 60.5865 22.1868 59.7332 23.4667 59.7332C24.7467 59.7332 25.6 60.5865 25.6 61.8665V66.1332ZM36.2668 29.8665C37.5467 29.8665 38.4 29.0133 38.4 27.7332V23.4665C38.4 22.1865 37.5467 21.3333 36.2668 21.3333C34.9867 21.3333 34.1335 22.1865 34.1335 23.4665V27.7332C34.1332 29.013 34.9867 29.8665 36.2668 29.8665ZM38.4 14.9333C38.4 16.2132 37.5467 17.0665 36.2668 17.0665C34.9867 17.0665 34.1332 16.213 34.1335 14.9333V10.6665C34.1335 9.3865 34.9867 8.53325 36.2668 8.53325C37.5467 8.53325 38.4 9.3865 38.4 10.6665V14.9333ZM36.2668 55.4665C37.5467 55.4665 38.4 54.6133 38.4 53.3333V49.0665C38.4 47.7865 37.5467 46.9333 36.2668 46.9333C34.9867 46.9333 34.1335 47.7865 34.1335 49.0665V53.3333C34.1332 54.613 34.9867 55.4665 36.2668 55.4665ZM38.4 40.5333C38.4 41.8133 37.5467 42.6665 36.2668 42.6665C34.9867 42.6665 34.1332 41.813 34.1335 40.5333V36.2665C34.1335 34.9865 34.9867 34.1333 36.2668 34.1333C37.5467 34.1333 38.4 34.9865 38.4 36.2665V40.5333ZM36.2668 68.2665C37.5467 68.2665 38.4 67.4132 38.4 66.1332V61.8665C38.4 60.5865 37.5467 59.7332 36.2668 59.7332C34.9867 59.7332 34.1335 60.5865 34.1335 61.8665V66.1332C34.1332 67.413 34.9867 68.2665 36.2668 68.2665ZM38.4 78.9333C38.4 80.2132 37.5467 81.0665 36.2668 81.0665C34.9867 81.0665 34.1332 80.213 34.1335 78.9333V74.6665C34.1335 73.3865 34.9867 72.5332 36.2668 72.5332C37.5467 72.5332 38.4 73.3865 38.4 74.6665V78.9333ZM36.2668 93.8665C37.5467 93.8665 38.4 93.0133 38.4 91.7333V87.4665C38.4 86.1865 37.5467 85.3333 36.2668 85.3333C34.9867 85.3333 34.1335 86.1865 34.1335 87.4665V91.7333C34.1332 93.013 34.9867 93.8665 36.2668 93.8665ZM51.2 40.5333C51.2 41.8133 50.3467 42.6665 49.0667 42.6665C47.7867 42.6665 46.9332 41.813 46.9335 40.5333V36.2665C46.9335 34.9865 47.7867 34.1333 49.0667 34.1333C50.3467 34.1333 51.2 34.9865 51.2 36.2665V40.5333ZM49.0667 29.8665C50.3467 29.8665 51.2 29.0133 51.2 27.7332V23.4665C51.2 22.1865 50.3467 21.3333 49.0667 21.3333C47.7867 21.3333 46.9335 22.1865 46.9335 23.4665V27.7332C46.9332 29.013 47.7867 29.8665 49.0667 29.8665ZM51.2 14.9333C51.2 16.2132 50.3467 17.0665 49.0667 17.0665C47.7867 17.0665 46.9332 16.213 46.9335 14.9333V10.6665C46.9335 9.3865 47.7867 8.53325 49.0667 8.53325C50.3467 8.53325 51.2 9.3865 51.2 10.6665V14.9333ZM49.0667 93.8665C50.3467 93.8665 51.2 93.0133 51.2 91.7333V87.4665C51.2 86.1865 50.3467 85.3333 49.0667 85.3333C47.7867 85.3333 46.9335 86.1865 46.9335 87.4665V91.7333C46.9332 93.013 47.7867 93.8665 49.0667 93.8665ZM51.2 78.9333C51.2 80.2132 50.3467 81.0665 49.0667 81.0665C47.7867 81.0665 46.9332 80.213 46.9335 78.9333V74.6665C46.9335 73.3865 47.7867 72.5332 49.0667 72.5332C50.3467 72.5332 51.2 73.3865 51.2 74.6665V78.9333ZM49.0667 68.2665C50.3467 68.2665 51.2 67.4132 51.2 66.1332V61.8665C51.2 60.5865 50.3467 59.7332 49.0667 59.7332C47.7867 59.7332 46.9335 60.5865 46.9335 61.8665V66.1332C46.9332 67.413 47.7867 68.2665 49.0667 68.2665ZM51.2 53.3333C51.2 54.6133 50.3467 55.4665 49.0667 55.4665C47.7867 55.4665 46.9332 54.613 46.9335 53.3333V49.0665C46.9335 47.7865 47.7867 46.9333 49.0667 46.9333C50.3467 46.9333 51.2 47.7865 51.2 49.0665V53.3333ZM61.8668 29.8665C63.1468 29.8665 64 29.0133 64 27.7332V23.4665C64 22.1865 63.1468 21.3333 61.8668 21.3333C60.5868 21.3333 59.7335 22.1865 59.7335 23.4665V27.7332C59.7332 29.013 60.5868 29.8665 61.8668 29.8665ZM64 14.9333C64 16.2132 63.1468 17.0665 61.8668 17.0665C60.5868 17.0665 59.7332 16.213 59.7335 14.9333V10.6665C59.7335 9.3865 60.5868 8.53325 61.8668 8.53325C63.1468 8.53325 64 9.3865 64 10.6665V14.9333Z" fill="url(#paint0_linear_265_1127)"/>
<defs>
<linearGradient id="paint0_linear_265_1127" x1="-64" y1="63.9999" x2="63.9997" y2="192" gradientUnits="userSpaceOnUse">
<stop stop-color="#CA5EFF"/>
<stop offset="1" stop-color="#004FDE"/>
</linearGradient>
</defs>
</svg>
