<svg width="25" height="20" viewBox="0 0 25 20" fill="none" xmlns="http://www.w3.org/2000/svg">
<path fill-rule="evenodd" clip-rule="evenodd" d="M24.9215 13.331L22.1727 9.0368V1.13743L21.0538 0.0333252H3.91784L2.79891 1.13743V9.03673L0.0501279 13.331H24.9215ZM19.9348 2.24153V7.75332C18.4928 7.38525 16.0017 6.93137 12.4858 6.93137C8.96988 6.93137 6.47877 7.38525 5.03676 7.75332V2.24153H19.9348ZM0 16.8979V14.6897H24.9717V16.8979H22.3643V19.9387H20.1265V16.8979H4.84514V19.9387H2.60729V16.8979H0ZM11.5777 5.78254V4.49616C11.5777 3.73263 10.4547 3.11345 9.06937 3.11345C7.68408 3.11345 6.56113 3.73263 6.56113 4.49616V6.42702C6.56113 6.42702 8.04066 6.05945 9.05761 5.96443C9.97315 5.87881 11.5777 5.78254 11.5777 5.78254ZM18.4105 4.49616V6.42702C18.4105 6.42702 16.9311 6.05945 15.9141 5.96443C14.9985 5.87875 13.3939 5.78254 13.3939 5.78254V4.49616C13.3939 3.73263 14.5169 3.11345 15.9022 3.11345C17.2875 3.11345 18.4105 3.73263 18.4105 4.49616Z" fill="#CECECE"/>
</svg>
