<svg width="1300" height="816" viewBox="0 0 1300 816" fill="none" xmlns="http://www.w3.org/2000/svg">
<rect width="1300" height="816" rx="7" fill="url(#paint0_linear_265_1950)" fill-opacity="0.15"/>
<rect width="1300" height="816" rx="7" fill="#2F3A62"/>
<mask id="mask0_265_1950" style="mask-type:luminance" maskUnits="userSpaceOnUse" x="0" y="0" width="1300" height="816">
<rect width="1300" height="816" rx="7" fill="white"/>
<rect width="1300" height="816" rx="7" stroke="white"/>
</mask>
<g mask="url(#mask0_265_1950)">
<path d="M1300.5 -541C1068.26 -541 880 -355.422 880 -126.5C880 -2.03909 1009.17 -18.088 1097.28 57.8906C1171.23 121.66 1194.53 288 1300.5 288C1532.74 288 1721 102.422 1721 -126.5C1721 -355.422 1532.74 -541 1300.5 -541Z" fill="url(#paint1_linear_265_1950)"/>
<path d="M1300.5 -541C1068.26 -541 880 -355.422 880 -126.5C880 -2.03909 1009.17 -18.088 1097.28 57.8906C1171.23 121.66 1194.53 288 1300.5 288C1532.74 288 1721 102.422 1721 -126.5C1721 -355.422 1532.74 -541 1300.5 -541Z" fill="#5D72E4"/>
<path opacity="0.50107" d="M635 1054.5C635 1282.86 447.197 1468 215.5 1468C-16.1971 1468 -204 1282.86 -204 1054.5C-204 826.144 -16.1971 641 215.5 641C267.863 641 299.923 682.059 328.249 731.637C334.997 743.448 341.519 755.713 348.047 767.992L348.98 769.747C355.818 782.606 362.675 795.454 369.805 807.754C384.059 832.341 399.448 854.812 418.066 870.867C440.196 889.951 464.888 903.24 489.427 914.382C500.185 919.267 510.925 923.744 521.406 928.113C522.877 928.726 524.342 929.337 525.802 929.947C537.674 934.904 549.165 939.776 559.963 945.023C581.566 955.52 600.306 967.476 613.654 984.484C626.982 1001.47 635 1023.57 635 1054.5Z" stroke="white" stroke-width="2"/>
</g>
<defs>
<linearGradient id="paint0_linear_265_1950" x1="0" y1="0" x2="0" y2="816" gradientUnits="userSpaceOnUse">
<stop stop-color="#FA7E4A"/>
<stop offset="1" stop-color="#6A7BE3"/>
</linearGradient>
<linearGradient id="paint1_linear_265_1950" x1="1721" y1="288" x2="1721" y2="-541" gradientUnits="userSpaceOnUse">
<stop stop-color="#FFECE5"/>
<stop offset="1" stop-color="white"/>
</linearGradient>
</defs>
</svg>
