<svg width="80" height="80" viewBox="0 0 80 80" fill="none" xmlns="http://www.w3.org/2000/svg">
<path d="M40 80C62.0914 80 80 62.0914 80 40C80 17.9086 62.0914 0 40 0C17.9086 0 0 17.9086 0 40C0 62.0914 17.9086 80 40 80Z" fill="#F87853"/>
<path d="M40 80C62.0914 80 80 62.0914 80 40C80 17.9086 62.0914 0 40 0C17.9086 0 0 17.9086 0 40C0 62.0914 17.9086 80 40 80Z" fill="url(#paint0_linear_562_15147)"/>
<path fill-rule="evenodd" clip-rule="evenodd" d="M33.5 20H53.5C56.5376 20 59 22.4624 59 25.5V45.5C59 48.5376 56.5376 51 53.5 51H51V53.7857C51 56.6655 48.6655 59 45.7857 59H27.5C23.3579 59 20 55.6421 20 51.5V33.2143C20 30.3345 22.3345 28 25.2143 28H28V25.5C28 22.4624 30.4624 20 33.5 20ZM28 31H25.2143C23.9914 31 23 31.9914 23 33.2143V51.5C23 53.9853 25.0147 56 27.5 56H45.7857C47.0086 56 48 55.0086 48 53.7857V51H33.5C30.4624 51 28 48.5376 28 45.5V31ZM33.5 23C32.1193 23 31 24.1193 31 25.5V45.5C31 46.8807 32.1193 48 33.5 48H53.5C54.8807 48 56 46.8807 56 45.5V25.5C56 24.1193 54.8807 23 53.5 23H33.5ZM38.5 30H48.5C49.3284 30 50 30.6716 50 31.5C50 32.3284 49.3284 33 48.5 33H38.5C37.6716 33 37 32.3284 37 31.5C37 30.6716 37.6716 30 38.5 30ZM48.5 38H38.5C37.6716 38 37 38.6716 37 39.5C37 40.3284 37.6716 41 38.5 41H48.5C49.3284 41 50 40.3284 50 39.5C50 38.6716 49.3284 38 48.5 38Z" fill="white"/>
<defs>
<linearGradient id="paint0_linear_562_15147" x1="0" y1="0" x2="0" y2="80" gradientUnits="userSpaceOnUse">
<stop stop-color="#FBD4C9"/>
<stop offset="1" stop-color="#6A7BE2"/>
</linearGradient>
</defs>
</svg>
