<svg width="80" height="80" viewBox="0 0 80 80" fill="none" xmlns="http://www.w3.org/2000/svg">
<path d="M40 80C62.0914 80 80 62.0914 80 40C80 17.9086 62.0914 0 40 0C17.9086 0 0 17.9086 0 40C0 62.0914 17.9086 80 40 80Z" fill="#F87853"/>
<path d="M40 80C62.0914 80 80 62.0914 80 40C80 17.9086 62.0914 0 40 0C17.9086 0 0 17.9086 0 40C0 62.0914 17.9086 80 40 80Z" fill="url(#paint0_linear_562_15150)" fill-opacity="0.5"/>
<path fill-rule="evenodd" clip-rule="evenodd" d="M40.5 23C33.5007 23 29 28.5169 29 36.5V39.5V43.5C29 44.3284 28.3284 45 27.5 45H25.5C22.4624 45 20 42.5376 20 39.5V37.5C20 34.4624 22.4624 32 25.5 32H26.4566C27.9708 24.8595 33.1519 20 40.5 20C47.8481 20 53.0292 24.8595 54.5434 32H55.5C58.5376 32 61 34.4624 61 37.5V39.5C61 42.5376 58.5376 45 55.5 45H54.8818C54.3419 50.3549 51.9217 53.6559 46.9971 55.6802C46.902 58.6344 44.4773 61 41.5 61C38.4624 61 36 58.5376 36 55.5C36 52.4624 38.4624 50 41.5 50C43.5301 50 45.3033 51.0999 46.2562 52.7362C50.4331 50.8934 52 48.0009 52 42.5V36.5C52 28.5169 47.4993 23 40.5 23ZM26 39.5V36.5V35H25.5C24.1193 35 23 36.1193 23 37.5V39.5C23 40.8807 24.1193 42 25.5 42H26V39.5ZM55.5 42H55V36.5V35H55.5C56.8807 35 58 36.1193 58 37.5V39.5C58 40.8807 56.8807 42 55.5 42ZM41.5 58C40.1193 58 39 56.8807 39 55.5C39 54.1193 40.1193 53 41.5 53C42.8807 53 44 54.1193 44 55.5C44 56.8807 42.8807 58 41.5 58Z" fill="white"/>
<defs>
<linearGradient id="paint0_linear_562_15150" x1="80" y1="0" x2="0" y2="0" gradientUnits="userSpaceOnUse">
<stop stop-color="#1F2C5F"/>
<stop offset="1" stop-color="#F9764A"/>
</linearGradient>
</defs>
</svg>
