<svg width="64" height="64" viewBox="0 0 64 64" fill="none" xmlns="http://www.w3.org/2000/svg">
<g filter="url(#filter0_d_265_1990)">
<rect x="8" y="4" width="48" height="48" rx="7" fill="white"/>
</g>
<path fill-rule="evenodd" clip-rule="evenodd" d="M32 20C29.8267 20 29.556 20.0093 28.7013 20.0493C25.7947 20.1827 24.1813 21.7947 24.048 24.7013C24.0093 25.556 24 25.828 24 28C24 30.1733 24.0093 30.4453 24.048 31.2987C24.1813 34.204 25.7947 35.8187 28.7013 35.952C29.556 35.9907 29.8267 36 32 36C34.1733 36 34.4453 35.9907 35.3 35.952C38.2013 35.8187 39.8213 34.2067 39.952 31.2987C39.9907 30.4453 40 30.1733 40 28C40 25.828 39.9907 25.556 39.952 24.7013C39.8213 21.7987 38.2067 20.1813 35.3 20.0493C34.4453 20.0093 34.1733 20 32 20ZM32 21.4427C34.136 21.4427 34.3893 21.4507 35.2333 21.4893C37.4027 21.588 38.4133 22.616 38.5133 24.768C38.5507 25.612 38.5587 25.864 38.5587 28C38.5587 30.136 38.5507 30.3893 38.5133 31.232C38.4133 33.3827 37.404 34.4133 35.2333 34.512C34.3893 34.5493 34.1373 34.5587 32 34.5587C29.864 34.5587 29.6107 34.5507 28.768 34.512C26.5947 34.412 25.588 33.38 25.488 31.232C25.4507 30.3893 25.4413 30.136 25.4413 28C25.4413 25.864 25.4507 25.6107 25.488 24.768C25.5867 22.6147 26.5973 21.5867 28.768 21.488C29.6107 21.4493 29.864 21.4427 32 21.4427ZM27.892 28C27.892 25.7307 29.732 23.892 32 23.892C34.268 23.892 36.108 25.732 36.108 28C36.108 30.2693 34.268 32.108 32 32.108C29.732 32.108 27.892 30.2693 27.892 28ZM32 30.6667C30.5267 30.6667 29.3333 29.4733 29.3333 28C29.3333 26.528 30.5267 25.3333 32 25.3333C33.472 25.3333 34.668 26.5267 34.668 28C34.668 29.4733 33.472 30.6667 32 30.6667ZM35.3093 23.7307C35.3093 23.2 35.74 22.7707 36.2693 22.7707C36.8013 22.7707 37.2307 23.2 37.2307 23.7307C37.2307 24.2613 36.8 24.6907 36.2693 24.6907C35.7387 24.6907 35.3093 24.26 35.3093 23.7307Z" fill="#2F3A62"/>
<defs>
<filter id="filter0_d_265_1990" x="0" y="0" width="64" height="64" filterUnits="userSpaceOnUse" color-interpolation-filters="sRGB">
<feFlood flood-opacity="0" result="BackgroundImageFix"/>
<feColorMatrix in="SourceAlpha" type="matrix" values="0 0 0 0 0 0 0 0 0 0 0 0 0 0 0 0 0 0 127 0" result="hardAlpha"/>
<feOffset dy="4"/>
<feGaussianBlur stdDeviation="4"/>
<feColorMatrix type="matrix" values="0 0 0 0 0 0 0 0 0 0.0342233 0 0 0 0 0.241576 0 0 0 0.104874 0"/>
<feBlend mode="normal" in2="BackgroundImageFix" result="effect1_dropShadow_265_1990"/>
<feBlend mode="normal" in="SourceGraphic" in2="effect1_dropShadow_265_1990" result="shape"/>
</filter>
</defs>
</svg>
