<svg width="126" height="36" viewBox="0 0 126 36" fill="none" xmlns="http://www.w3.org/2000/svg">
<mask id="mask0_109_943" style="mask-type:alpha" maskUnits="userSpaceOnUse" x="0" y="1" width="30" height="34">
<path d="M12.1778 2.44615C13.9242 1.43787 16.0758 1.43787 17.8222 2.44615L27.0589 7.77895C28.8053 8.78722 29.8811 10.6506 29.8811 12.6671V23.3327C29.8811 25.3493 28.8053 27.2127 27.0589 28.2209L17.8222 33.5537C16.0758 34.562 13.9242 34.562 12.1778 33.5537L2.9411 28.2209C1.19471 27.2127 0.118896 25.3493 0.118896 23.3327V12.6671C0.118896 10.6506 1.19471 8.78722 2.94109 7.77895L12.1778 2.44615Z" fill="#C4C4C4"/>
</mask>
<g mask="url(#mask0_109_943)">
<path d="M14.9958 0.535889L31.3076 9.95352L23.0527 14.3983L19.643 12.5384L16.5432 12.8484L8.79379 10.0586L6.93393 12.5384L6.004 13.7783L4.14413 12.5384L-1.31607 9.95353L14.9958 0.535889Z" fill="url(#paint0_linear_109_943)"/>
<path d="M-0.00967409 10.087L6.31822 13.1556L10.0379 22.1449L10.0379 22.4549L11.2779 24.0048L16.8574 28.3445L14.9995 36.0836L-0.00967447 27.4181L-0.00967409 10.087Z" fill="url(#paint1_linear_109_943)"/>
<path d="M19.9529 22.4543L23.9826 13.7749L30.0048 10.0887L30.0048 27.4197L14.9957 36.0852L14.6833 28.3438L19.9529 22.4543Z" fill="url(#paint2_linear_109_943)"/>
<path d="M14.9951 7.58276C12.4303 7.58276 10.0929 8.55624 8.33207 10.1538L9.76163 22.4616C10.1525 22.642 12.3947 23.3916 12.8253 23.3916H15.9251C16.4729 23.3916 20.2648 22.2238 20.2648 22.7716L19.9548 21.4696C19.9548 22.0175 19.5107 22.4616 18.9628 22.4616H11.0274C10.4796 22.4616 10.0355 22.0175 10.0355 21.4696V16.6676C10.0355 16.237 9.94206 15.8116 9.76163 15.4206L8.33207 10.1538C6.73447 11.9146 5.07587 14.9372 5.07587 17.502C5.07587 22.9804 9.51682 27.4213 14.9951 27.4213C20.4735 27.4213 24.9144 22.9804 24.9144 17.502C24.9144 12.0237 20.4735 7.58276 14.9951 7.58276Z" fill="url(#paint3_linear_109_943)"/>
<path d="M13.1582 11.7229C13.3771 11.6384 13.6115 11.6053 13.8434 11.6259C14.0753 11.6466 14.2988 11.7206 14.4969 11.8423C14.695 11.964 14.8625 12.1302 14.9867 12.3283C15.1109 12.5264 15.1886 12.7512 15.2138 12.9858C15.3939 14.6757 15.0144 16.3867 14.1348 17.8504C13.2552 19.314 11.9254 20.4474 10.354 21.0727L9.24194 18.1973C10.1806 17.8235 10.9757 17.1475 11.5034 16.2745C12.0312 15.4015 12.2622 14.3804 12.1603 13.3702C12.1232 13.0252 12.2009 12.6758 12.3812 12.3774C12.5615 12.079 12.834 11.8486 13.1555 11.7229L13.1582 11.7229Z" fill="white"/>
<path d="M13.1454 11.7277C12.7656 11.8791 12.4583 12.1762 12.2912 12.5539C12.1241 12.9316 12.1108 13.3588 12.2543 13.7417L15.5043 22.4086C15.648 22.7914 15.9366 23.0985 16.3068 23.2623C16.6769 23.426 17.0983 23.4331 17.4782 23.282C17.6664 23.2071 17.8387 23.0957 17.9854 22.9539C18.132 22.8122 18.2501 22.643 18.3328 22.4559C18.4156 22.2689 18.4614 22.0677 18.4677 21.8639C18.474 21.66 18.4405 21.4575 18.3694 21.2679L15.1193 12.6011C15.0483 12.4115 14.9409 12.2384 14.8032 12.0919C14.6656 11.9453 14.5004 11.8282 14.317 11.7471C14.1337 11.6659 13.9359 11.6225 13.7349 11.6192C13.5338 11.6159 13.3335 11.6527 13.1454 11.7277Z" fill="white"/>
<path d="M17.4639 23.2841C17.245 23.3687 17.0107 23.4019 16.7788 23.3813C16.5469 23.3607 16.3234 23.2867 16.1254 23.1651C15.9273 23.0435 15.7598 22.8774 15.6356 22.6793C15.5114 22.4812 15.4337 22.2564 15.4084 22.0219C15.2285 20.332 15.6081 18.621 16.4876 17.1573C17.3671 15.6935 18.6967 14.56 20.268 13.9344L21.3801 16.8109C20.4415 17.1847 19.6464 17.8607 19.1186 18.7337C18.5908 19.6067 18.3599 20.6277 18.4618 21.638C18.4983 21.9831 18.42 22.3324 18.2393 22.6306C18.0585 22.9288 17.7856 23.1588 17.4639 23.2841Z" fill="white"/>
</g>
<path d="M43.6027 27V9.54545H50.1481C51.489 9.54545 52.614 9.79545 53.5231 10.2955C54.4379 10.7955 55.1282 11.483 55.5941 12.358C56.0657 13.2273 56.3015 14.2159 56.3015 15.3239C56.3015 16.4432 56.0657 17.4375 55.5941 18.3068C55.1226 19.1761 54.4265 19.8608 53.5061 20.3608C52.5856 20.8551 51.4521 21.1023 50.1055 21.1023H45.7674V18.5028H49.6794C50.4635 18.5028 51.1055 18.3665 51.6055 18.0938C52.1055 17.821 52.4748 17.446 52.7135 16.9688C52.9578 16.4915 53.0799 15.9432 53.0799 15.3239C53.0799 14.7045 52.9578 14.1591 52.7135 13.6875C52.4748 13.2159 52.1027 12.8494 51.597 12.5881C51.097 12.321 50.4521 12.1875 49.6623 12.1875H46.7646V27H43.6027ZM62.4443 27.2642C61.6147 27.2642 60.8676 27.1165 60.2028 26.821C59.5437 26.5199 59.021 26.0767 58.6346 25.4915C58.2539 24.9062 58.0636 24.1847 58.0636 23.3267C58.0636 22.5881 58.2 21.9773 58.4727 21.4943C58.7454 21.0114 59.1176 20.625 59.5892 20.3352C60.0608 20.0455 60.592 19.8267 61.1829 19.679C61.7795 19.5256 62.396 19.4148 63.0324 19.3466C63.7994 19.267 64.4216 19.196 64.8988 19.1335C65.3761 19.0653 65.7227 18.9631 65.9386 18.8267C66.1602 18.6847 66.271 18.4659 66.271 18.1705V18.1193C66.271 17.4773 66.0806 16.9801 65.7 16.6278C65.3193 16.2756 64.771 16.0994 64.0551 16.0994C63.2994 16.0994 62.7 16.2642 62.2568 16.5938C61.8193 16.9233 61.5238 17.3125 61.3704 17.7614L58.4897 17.3523C58.717 16.5568 59.092 15.892 59.6147 15.358C60.1375 14.8182 60.7767 14.4148 61.5324 14.1477C62.288 13.875 63.1233 13.7386 64.038 13.7386C64.6687 13.7386 65.2966 13.8125 65.9216 13.9602C66.5466 14.108 67.1176 14.3523 67.6346 14.6932C68.1517 15.0284 68.5664 15.4858 68.8789 16.0653C69.1971 16.6449 69.3562 17.3693 69.3562 18.2386V27H66.3903V25.2017H66.288C66.1005 25.5653 65.8363 25.9062 65.4954 26.2244C65.1602 26.5369 64.7369 26.7898 64.2255 26.983C63.7199 27.1705 63.1261 27.2642 62.4443 27.2642ZM63.2454 24.9972C63.8647 24.9972 64.4017 24.875 64.8562 24.6307C65.3108 24.3807 65.6602 24.0511 65.9045 23.642C66.1545 23.233 66.2795 22.7869 66.2795 22.304V20.7614C66.1829 20.8409 66.0181 20.9148 65.7852 20.983C65.5579 21.0511 65.3022 21.1108 65.0181 21.1619C64.7341 21.2131 64.4528 21.2585 64.1744 21.2983C63.896 21.3381 63.6545 21.3722 63.45 21.4006C62.9897 21.4631 62.5778 21.5653 62.2142 21.7074C61.8505 21.8494 61.5636 22.0483 61.3534 22.304C61.1431 22.554 61.038 22.8778 61.038 23.2756C61.038 23.8438 61.2454 24.2727 61.6602 24.5625C62.075 24.8523 62.6034 24.9972 63.2454 24.9972ZM76.2255 27.2642C75.396 27.2642 74.6488 27.1165 73.9841 26.821C73.325 26.5199 72.8022 26.0767 72.4159 25.4915C72.0352 24.9062 71.8449 24.1847 71.8449 23.3267C71.8449 22.5881 71.9812 21.9773 72.2539 21.4943C72.5267 21.0114 72.8988 20.625 73.3704 20.3352C73.842 20.0455 74.3733 19.8267 74.9642 19.679C75.5608 19.5256 76.1772 19.4148 76.8136 19.3466C77.5806 19.267 78.2028 19.196 78.6801 19.1335C79.1574 19.0653 79.5039 18.9631 79.7199 18.8267C79.9414 18.6847 80.0522 18.4659 80.0522 18.1705V18.1193C80.0522 17.4773 79.8619 16.9801 79.4812 16.6278C79.1005 16.2756 78.5522 16.0994 77.8363 16.0994C77.0806 16.0994 76.4812 16.2642 76.038 16.5938C75.6005 16.9233 75.3051 17.3125 75.1517 17.7614L72.271 17.3523C72.4983 16.5568 72.8733 15.892 73.396 15.358C73.9187 14.8182 74.5579 14.4148 75.3136 14.1477C76.0693 13.875 76.9045 13.7386 77.8193 13.7386C78.45 13.7386 79.0778 13.8125 79.7028 13.9602C80.3278 14.108 80.8988 14.3523 81.4159 14.6932C81.9329 15.0284 82.3477 15.4858 82.6602 16.0653C82.9784 16.6449 83.1375 17.3693 83.1375 18.2386V27H80.1716V25.2017H80.0693C79.8818 25.5653 79.6176 25.9062 79.2767 26.2244C78.9414 26.5369 78.5181 26.7898 78.0068 26.983C77.5011 27.1705 76.9074 27.2642 76.2255 27.2642ZM77.0267 24.9972C77.646 24.9972 78.1829 24.875 78.6375 24.6307C79.092 24.3807 79.4414 24.0511 79.6858 23.642C79.9358 23.233 80.0608 22.7869 80.0608 22.304V20.7614C79.9642 20.8409 79.7994 20.9148 79.5664 20.983C79.3392 21.0511 79.0835 21.1108 78.7994 21.1619C78.5153 21.2131 78.2341 21.2585 77.9556 21.2983C77.6772 21.3381 77.4358 21.3722 77.2312 21.4006C76.771 21.4631 76.3591 21.5653 75.9954 21.7074C75.6318 21.8494 75.3449 22.0483 75.1346 22.304C74.9244 22.554 74.8193 22.8778 74.8193 23.2756C74.8193 23.8438 75.0267 24.2727 75.4414 24.5625C75.8562 24.8523 76.3846 24.9972 77.0267 24.9972ZM86.0693 27V25.0398L92.8193 16.5767V16.4659H86.2909V13.9091H96.5949V16.0142L90.1687 24.3324V24.4432H96.8164V27H86.0693ZM103.483 27.2642C102.654 27.2642 101.907 27.1165 101.242 26.821C100.583 26.5199 100.06 26.0767 99.6737 25.4915C99.293 24.9062 99.1027 24.1847 99.1027 23.3267C99.1027 22.5881 99.239 21.9773 99.5118 21.4943C99.7845 21.0114 100.157 20.625 100.628 20.3352C101.1 20.0455 101.631 19.8267 102.222 19.679C102.819 19.5256 103.435 19.4148 104.071 19.3466C104.838 19.267 105.461 19.196 105.938 19.1335C106.415 19.0653 106.762 18.9631 106.978 18.8267C107.199 18.6847 107.31 18.4659 107.31 18.1705V18.1193C107.31 17.4773 107.12 16.9801 106.739 16.6278C106.358 16.2756 105.81 16.0994 105.094 16.0994C104.338 16.0994 103.739 16.2642 103.296 16.5938C102.858 16.9233 102.563 17.3125 102.409 17.7614L99.5288 17.3523C99.7561 16.5568 100.131 15.892 100.654 15.358C101.177 14.8182 101.816 14.4148 102.571 14.1477C103.327 13.875 104.162 13.7386 105.077 13.7386C105.708 13.7386 106.336 13.8125 106.961 13.9602C107.586 14.108 108.157 14.3523 108.674 14.6932C109.191 15.0284 109.606 15.4858 109.918 16.0653C110.236 16.6449 110.395 17.3693 110.395 18.2386V27H107.429V25.2017H107.327C107.14 25.5653 106.875 25.9062 106.534 26.2244C106.199 26.5369 105.776 26.7898 105.265 26.983C104.759 27.1705 104.165 27.2642 103.483 27.2642ZM104.284 24.9972C104.904 24.9972 105.441 24.875 105.895 24.6307C106.35 24.3807 106.699 24.0511 106.944 23.642C107.194 23.233 107.319 22.7869 107.319 22.304V20.7614C107.222 20.8409 107.057 20.9148 106.824 20.983C106.597 21.0511 106.341 21.1108 106.057 21.1619C105.773 21.2131 105.492 21.2585 105.213 21.2983C104.935 21.3381 104.694 21.3722 104.489 21.4006C104.029 21.4631 103.617 21.5653 103.253 21.7074C102.89 21.8494 102.603 22.0483 102.392 22.304C102.182 22.554 102.077 22.8778 102.077 23.2756C102.077 23.8438 102.284 24.2727 102.699 24.5625C103.114 24.8523 103.642 24.9972 104.284 24.9972ZM117.265 27.2642C116.435 27.2642 115.688 27.1165 115.023 26.821C114.364 26.5199 113.841 26.0767 113.455 25.4915C113.074 24.9062 112.884 24.1847 112.884 23.3267C112.884 22.5881 113.02 21.9773 113.293 21.4943C113.566 21.0114 113.938 20.625 114.409 20.3352C114.881 20.0455 115.412 19.8267 116.003 19.679C116.6 19.5256 117.216 19.4148 117.853 19.3466C118.62 19.267 119.242 19.196 119.719 19.1335C120.196 19.0653 120.543 18.9631 120.759 18.8267C120.981 18.6847 121.091 18.4659 121.091 18.1705V18.1193C121.091 17.4773 120.901 16.9801 120.52 16.6278C120.14 16.2756 119.591 16.0994 118.875 16.0994C118.12 16.0994 117.52 16.2642 117.077 16.5938C116.64 16.9233 116.344 17.3125 116.191 17.7614L113.31 17.3523C113.537 16.5568 113.912 15.892 114.435 15.358C114.958 14.8182 115.597 14.4148 116.353 14.1477C117.108 13.875 117.944 13.7386 118.858 13.7386C119.489 13.7386 120.117 13.8125 120.742 13.9602C121.367 14.108 121.938 14.3523 122.455 14.6932C122.972 15.0284 123.387 15.4858 123.699 16.0653C124.017 16.6449 124.177 17.3693 124.177 18.2386V27H121.211V25.2017H121.108C120.921 25.5653 120.657 25.9062 120.316 26.2244C119.981 26.5369 119.557 26.7898 119.046 26.983C118.54 27.1705 117.946 27.2642 117.265 27.2642ZM118.066 24.9972C118.685 24.9972 119.222 24.875 119.677 24.6307C120.131 24.3807 120.481 24.0511 120.725 23.642C120.975 23.233 121.1 22.7869 121.1 22.304V20.7614C121.003 20.8409 120.838 20.9148 120.606 20.983C120.378 21.0511 120.123 21.1108 119.838 21.1619C119.554 21.2131 119.273 21.2585 118.995 21.2983C118.716 21.3381 118.475 21.3722 118.27 21.4006C117.81 21.4631 117.398 21.5653 117.034 21.7074C116.671 21.8494 116.384 22.0483 116.174 22.304C115.963 22.554 115.858 22.8778 115.858 23.2756C115.858 23.8438 116.066 24.2727 116.481 24.5625C116.895 24.8523 117.424 24.9972 118.066 24.9972Z" fill="white"/>
<defs>
<linearGradient id="paint0_linear_109_943" x1="14.6834" y1="1.9992" x2="14.4008" y2="13.3215" gradientUnits="userSpaceOnUse">
<stop stop-color="#FFDC60"/>
<stop offset="1" stop-color="#F4A52E"/>
</linearGradient>
<linearGradient id="paint1_linear_109_943" x1="1.13921" y1="11.7289" x2="8.2219" y2="29.5782" gradientUnits="userSpaceOnUse">
<stop stop-color="#FFDC60"/>
<stop offset="1" stop-color="#F4A52E"/>
</linearGradient>
<linearGradient id="paint2_linear_109_943" x1="15.7269" y1="19.8444" x2="24.6727" y2="25.3844" gradientUnits="userSpaceOnUse">
<stop stop-color="#FFDC60"/>
<stop offset="1" stop-color="#F4A52E"/>
</linearGradient>
<linearGradient id="paint3_linear_109_943" x1="6.42715" y1="9.31399" x2="17.8229" y2="21.7394" gradientUnits="userSpaceOnUse">
<stop stop-color="#FFDC60"/>
<stop offset="1" stop-color="#F4A52E"/>
</linearGradient>
</defs>
</svg>
