<svg width="868" height="497" viewBox="0 0 868 497" fill="none" xmlns="http://www.w3.org/2000/svg">
<path d="M4 496C4 496 77.7841 502.19 162.889 446.852C206.301 418.623 227.275 390.283 294.541 363.73C330.523 349.527 342.193 351.245 388.492 354.105C446.178 357.67 487.933 385.048 532.033 356.67C611.646 305.439 595.446 236.833 654.812 193.047C718.561 146.029 763.983 166.551 831.363 99.8672C856.105 75.3809 868 20 868 20H4V496Z" fill="#2C3E91"/>
<path d="M2 450V454.53L5.34744 451.478L4 450C5.34744 451.478 5.34772 451.478 5.3481 451.477L5.34931 451.476L5.3534 451.473L5.3682 451.459L5.42391 451.408C5.47255 451.363 5.54401 451.297 5.63734 451.211C5.82399 451.038 6.09813 450.782 6.45207 450.448C7.15992 449.779 8.1871 448.796 9.47211 447.533C12.0418 445.005 15.6444 441.352 19.7873 436.838C28.0653 427.819 38.5359 415.324 47.2289 401.482C55.8612 387.735 59.9693 374.935 63.4667 364.038C64.524 360.744 65.5255 357.623 66.5792 354.703C68.867 348.364 71.3847 342.971 75.174 338.51C78.9352 334.082 84.0425 330.465 91.6743 327.847C102.352 324.184 114.333 325.107 127.45 328.23C136.826 330.461 146.584 333.76 156.724 337.188C160.809 338.569 164.956 339.971 169.164 341.333C198.242 350.739 229.852 358.07 260.188 340.444C300.399 317.081 312.621 287.76 324.337 254.515C325.124 252.28 325.909 250.028 326.701 247.757C337.651 216.347 349.782 181.551 385.092 144.114C420.066 107.033 440.73 95.8092 474.03 77.7223C487.692 70.3014 503.482 61.7251 523.26 49.7336C542.335 38.1679 557.349 27.1112 567.601 18.9397C572.728 14.8536 576.665 11.488 579.325 9.13942C580.655 7.96512 581.666 7.04502 582.346 6.41619C582.687 6.10177 582.945 5.86016 583.119 5.69599C583.206 5.61391 583.272 5.55118 583.316 5.50839L583.368 5.45924L583.382 5.44601L583.386 5.44226L583.387 5.44111C583.387 5.44073 583.388 5.44043 582 4L583.388 5.44043L586.959 2H582H4H2V4V450Z" stroke="#EEC151" stroke-width="4"/>
</svg>
