<svg width="963" height="361" viewBox="0 0 963 361" fill="none" xmlns="http://www.w3.org/2000/svg">
<rect width="963" height="361" fill="#1E1E1E"/>
<rect width="963" height="365" fill="#456CC6"/>
<path d="M963 0C963 0 945.184 6.69531 923.281 25.3828C900.685 44.6624 892.685 55.7598 866.891 55.7598C823.596 55.7598 807.172 19.498 748.723 19.498C692.205 19.498 684.458 64.3558 612.859 122.762C553.615 171.09 453.23 158.293 365.262 206.262C252.402 267.803 228 361 228 361H963V0Z" fill="#FAEFE8"/>
<path d="M965 78.9041V76.3501L962.52 76.9625L962.537 77.0308C962.52 76.9625 962.52 76.9625 962.52 76.9625L962.518 76.9632L962.505 76.9663L962.45 76.9797C962.4 76.9917 962.325 77.0098 962.224 77.0337C962.023 77.0814 961.722 77.1518 961.327 77.2415C960.537 77.4209 959.37 77.6772 957.878 77.982C954.893 78.5917 950.607 79.3951 945.418 80.1659C935.029 81.7089 921.066 83.1141 906.698 82.5891C872.9 81.354 839.577 78.3554 807.694 75.4863C790.059 73.8993 772.864 72.352 756.273 71.1647C709.84 67.8417 668.162 67.3429 635.631 76.9866C597.412 88.3165 581.826 109.866 563.646 135.002C561.896 137.422 560.123 139.874 558.303 142.354C537.639 170.504 510.609 202.836 443.953 231.891C406.319 248.296 359.512 243.101 307.303 235.649C303.434 235.097 299.537 234.532 295.614 233.964C246.81 226.897 193.943 219.241 140.858 226.925C83.9105 235.167 49.4261 268.625 29.2299 299.922C19.1367 315.563 12.597 330.683 8.57917 341.893C6.56948 347.5 5.18856 352.135 4.30841 355.376C3.86829 356.996 3.55324 358.269 3.34731 359.141C3.24434 359.577 3.16863 359.913 3.1182 360.142C3.09298 360.256 3.07408 360.344 3.06125 360.405L3.04652 360.475L3.04251 360.494L3.04134 360.5C3.04098 360.501 3.04071 360.503 5 360.904L3.04071 360.503L2.54864 362.904H5H963H965V360.904V78.9041Z" stroke="#EEC151" stroke-width="4"/>
<path d="M965 244.532V241.717L962.341 242.644L962.341 242.644L962.337 242.645L962.319 242.652L962.243 242.678C962.174 242.701 962.07 242.737 961.931 242.784C961.653 242.877 961.237 243.015 960.691 243.19C959.599 243.541 957.989 244.043 955.928 244.642C951.806 245.84 945.886 247.425 938.715 248.965C924.358 252.049 905.05 254.94 885.134 254.225C826.999 252.137 777.863 243.169 736.966 235.705C731.918 234.784 726.995 233.885 722.196 233.026C700.388 229.118 681.077 225.998 664.248 225.199C647.42 224.401 632.883 225.91 620.693 231.409C586.746 246.722 566.134 270.131 548.943 296.283C542.282 306.416 536.111 316.999 529.888 327.67C528.101 330.735 526.309 333.808 524.5 336.88C516.377 350.672 507.882 364.49 497.769 377.753C488.296 390.178 476.051 402.48 466.137 411.702C461.187 416.307 456.833 420.13 453.718 422.801C452.161 424.136 450.914 425.183 450.057 425.895C449.629 426.25 449.299 426.522 449.076 426.705C448.965 426.796 448.88 426.865 448.824 426.911L448.761 426.962L448.746 426.974L448.743 426.977L448.742 426.978C448.742 426.978 448.742 426.978 448.844 427.104L448.742 426.978L444.35 430.532H450H963H965V428.532V244.532Z" stroke="#EFA19D" stroke-width="4"/>
</svg>
