<svg width="633" height="276" viewBox="0 0 633 276" fill="none" xmlns="http://www.w3.org/2000/svg">
<rect width="633" height="276" fill="#1E1E1E"/>
<rect y="-69" width="766" height="345" fill="#456CC6"/>
<path d="M0 276C0 276 73.7841 282.19 158.889 226.852C202.301 198.623 223.275 170.283 290.541 143.73C326.523 129.527 338.193 131.245 384.492 134.105C442.178 137.67 483.933 165.048 528.033 136.67C607.646 85.4395 591.446 16.8327 650.812 -26.9531C714.561 -73.9707 759.983 -53.4494 827.363 -120.133C852.105 -144.619 864 -200 864 -200H0V276Z" fill="#2C3E91"/>
<path d="M-2 230V234.53L1.34744 231.478L0 230C1.34744 231.478 1.34772 231.478 1.3481 231.477L1.34931 231.476L1.3534 231.473L1.3682 231.459L1.42391 231.408C1.47255 231.363 1.54401 231.297 1.63734 231.211C1.82399 231.038 2.09813 230.782 2.45207 230.448C3.15992 229.779 4.1871 228.796 5.47211 227.533C8.04176 225.005 11.6444 221.352 15.7873 216.838C24.0653 207.819 34.5359 195.324 43.2289 181.482C51.8612 167.735 55.9693 154.935 59.4667 144.038C60.524 140.744 61.5255 137.623 62.5792 134.703C64.867 128.364 67.3847 122.971 71.174 118.51C74.9352 114.082 80.0425 110.465 87.6743 107.847C98.352 104.184 110.333 105.107 123.45 108.23C132.826 110.461 142.584 113.76 152.724 117.188C156.809 118.569 160.956 119.971 165.164 121.333C194.242 130.739 225.852 138.07 256.188 120.444C296.399 97.0815 308.621 67.7599 320.337 34.5153C321.124 32.2805 321.909 30.0277 322.701 27.7572C333.651 -3.65312 345.782 -38.4488 381.092 -75.8855C416.066 -112.967 436.73 -124.191 470.03 -142.278C483.692 -149.699 499.482 -158.275 519.26 -170.266C538.335 -181.832 553.349 -192.889 563.601 -201.06C568.728 -205.146 572.665 -208.512 575.325 -210.861C576.655 -212.035 577.666 -212.955 578.346 -213.584C578.687 -213.898 578.945 -214.14 579.119 -214.304C579.206 -214.386 579.272 -214.449 579.316 -214.492L579.368 -214.541L579.382 -214.554L579.386 -214.558L579.387 -214.559C579.387 -214.559 579.388 -214.56 578 -216L579.388 -214.56L582.959 -218H578H0H-2V-216V230Z" stroke="#EEC151" stroke-width="4"/>
</svg>
